{
.appVersion = "3436";
.formatVersion = 3;
DisplayStrings = (
"ÆA ǼǢӔ АΑΆÁÀĂӐǍÂÄӒȦẠẬẶĄẢĀ/A_macroncomb-cy ÃÅǺẨẲẪẰẴẮẤẦ
VΛW ԜẂẀŴẄ
ДЛЉΔ Δ∆/De-cy.loclBGR/El-cy.loclBGR Ԓ
У/U-cy.ss02/Upsilon.ss06 Y ЎӮӰӲ /Ushort-cy.ss02/Umacron-cy.ss02/Udieresis-cy.ss02/Uhungarumlaut-cy.ss02  /Upsilontonos.ss06/Upsilondieresis.ss06  ҮΥΎΫҰÝŶŸỲȲỸỶỴ
XӼZ/Xi.ss06 Σ∑Ξ ХΧ/Ha_U_Iishort-cy/Ha_u_iishort-cy/X_circumflexcomb ҲӾ ŹŽŻẐΖ
I/I.cv05 Ꞌ ΙІӀΊÍÌİÏΪЇĬĨỈĪǏÎĮỊ /Iota.cv05/I-cy.cv05/Iotatonos.cv05/Iacute.cv05/Igrave.cv05/Idotaccent.cv05/Yi-cy.cv05/Iotadieresis.cv05/Ibreve.cv05/Icaron.cv05/Icircumflex.cv05/Ihookabove.cv05/Imacron.cv05/Itilde.cv05/Iogonek.cv05/Idotbelow.cv05 
NŊ№И ŃŇŅ/Ncommaaccent.loclMAH ÑΝ ЙҊЍӢӤ
HҤ ĦꞪӇԨḨĤНҢӉΗΉḢ
U ÚŬÛÜỤÙŰŪŲŮŨỦƯỨỪỬỮỰ
∏ПЦЏШ ҦΠԤҴЩ
ЧҸ ҺЋҶӋӴ/Chedescender_brevecomb-cy 
M ΜМӍ
EFƑ ƎΕΈÉĔĚÊËĖẸÈĒĘẼẺỂỀỄẾỆЕЀЁӖ
T ТΤ/T_circumflexcomb ṪҬŦŤŢȚЂ
L ΓГҐ ĹĽĻ/Lcommaaccent.loclMAH ĿŁ ЃӶҒҔ
/L.ss05  /Gamma.ss05/Ge-cy.ss05/Geupturn-cy.ss05  /Lacute.ss05/Lcaron.ss05/Lcommaaccent.ss05/Lcommaaccent.loclMAH.ss05/Ldot.ss05/Lslash.ss05  /Gje-cy.ss05/Gedescender-cy.ss05/Gestroke-cy.ss05/Gemiddlehook-cy.ss05 
J Ј/Jacute ĴĲ
Sʔ/half-section §&ẞ ЅŚŠŞŜȘʕ
PÞЬЫ/Yeru-cy.ss07 ЪҌЊ /P_circumflexcomb ṖҎӸ/Yerudieresis-cy.ss07 
BБR/R.ss01/Ya-cy.ss04 Ф/Ef-cy.ss04/Ef-cy.ss05 Ψ ḂВΒŔ/Racute.ss01 Ř/Rcaron.ss01 Ŗ/Rcommaaccent.ss01 Я/Ya-cy.ss01 РΡӸΦ/Phi.ss05 
OQ/Q.ss02 ΩŒҨЮ ОΟΏΩ/Q_dotaccentcomb/Q_circumflexcomb/Q_dotaccentcomb.ss02/Q_circumflexcomb.ss02 ΌỔỐỒỖỘƠỚỜỞỠỢÓŎÔÖỌÒŐŌǪØǾÕỎӦӨӪ/Obarred_macroncomb-cy Θ
C ĆČÇĈĊСҪ
G/G.cv06  ĞǦĜĢĠḠǤ /Gbreve.cv06/Gcaron.cv06/Gcircumflex.cv06/Gcommaaccent.cv06/Gdotaccent.cv06/Gmacron.cv06/Gstroke.cv06 
D ĎĐÐ
ЭƏҼ ЄӬ/Ereversed_macroncomb-cy ӘӚҾ
ЗƷ ԐƐҘӞӠǮ
K ǨĶ/K_dotaccentcomb/K_circumflexcomb 
/Zhe-cy.cv07/Kappa.cv07/Kahook-cy.cv07/Kaverticalstroke-cy.cv07  /Ka-cy.cv07/Kastroke-cy.cv07/Kabashkir-cy.cv07/Kje-cy.cv07/Kadescender-cy.cv07/Zhedescender-cy.cv/Zhebreve-cy.cv07/Zhedieresis-cy.cv07  /K.cv07/Kcaron.cv07/Kcommaaccent.cv07/K_dotaccentcomb.cv07/K_circumflexcomb.cv07 
ЖΚӃҜ КҞҠЌҚҖӁӜ

glyphs = (
{
glyphname = A;
kernLeft = A;
kernRight = A;
lastChange = "2025-11-18 18:41:31 +0000";
layers = (
{
anchors = (
{
name = bottom;
pos = (340,0);
},
{
name = ogonek;
pos = (555,0);
},
{
name = top;
pos = (340,700);
}
);
layerId = m003;
shapes = (
{
closed = 1;
nodes = (
(550,124,l),
(510,276,l),
(190,276,l),
(150,124,l)
);
},
{
angle = 180;
pos = (700,700);
ref = V;
}
);
width = 700;
},
{
anchors = (
{
name = bottom;
pos = (340,0);
},
{
name = ogonek;
pos = (578,0);
},
{
name = top;
pos = (340,700);
}
);
layerId = m004;
shapes = (
{
closed = 1;
nodes = (
(554,174,l),
(528,266,l),
(172,266,l),
(146,174,l)
);
},
{
angle = 180;
pos = (700,700);
ref = V;
}
);
width = 700;
},
{
anchors = (
{
name = bottom;
pos = (340,0);
},
{
name = ogonek;
pos = (624,0);
},
{
name = top;
pos = (340,700);
}
);
layerId = m007;
shapes = (
{
closed = 1;
nodes = (
(560,200,l),
(546,240,l),
(154,240,l),
(142,200,l)
);
},
{
angle = 180;
pos = (700,700);
ref = V;
}
);
width = 700;
}
);
metricLeft = X;
metricRight = X;
unicode = 65;
userData = {
KernOnName = A;
};
},
{
glyphname = AE;
kernLeft = A;
kernRight = E;
lastChange = "2025-11-18 18:41:39 +0000";
layers = (
{
anchors = (
{
name = top;
pos = (500,700);
}
);
layerId = m003;
shapes = (
{
closed = 1;
nodes = (
(204,0,l),
(356,548,l),
(492,548,l),
(492,700,l),
(210,700,l),
(12,0,l)
);
},
{
closed = 1;
nodes = (
(496,174,l),
(496,326,l),
(194,326,l),
(194,174,l)
);
},
{
alignment = -1;
pos = (360,0);
ref = E;
}
);
width = 960;
},
{
anchors = (
{
name = top;
pos = (500,700);
}
);
layerId = m004;
shapes = (
{
closed = 1;
nodes = (
(134,0,l),
(340,614,l),
(498,614,l),
(498,700,l),
(266,700,l),
(30,0,l)
);
},
{
closed = 1;
nodes = (
(496,204,l),
(496,296,l),
(180,296,l),
(180,204,l)
);
},
{
alignment = -1;
pos = (360,0);
ref = E;
}
);
width = 960;
},
{
anchors = (
{
name = top;
pos = (500,700);
}
);
layerId = m007;
shapes = (
{
closed = 1;
nodes = (
(80,0,l),
(324,660,l),
(484,660,l),
(484,700,l),
(294,700,l),
(36,0,l)
);
},
{
closed = 1;
nodes = (
(480,240,l),
(480,280,l),
(154,280,l),
(154,240,l)
);
},
{
alignment = -1;
pos = (360,0);
ref = E;
}
);
width = 960;
}
);
metricLeft = X;
metricRight = E;
unicode = 198;
},
{
glyphname = B;
kernLeft = I;
kernRight = S;
lastChange = "2025-11-18 18:50:54 +0000";
layers = (
{
anchors = (
{
name = bottom;
pos = (320,0);
},
{
name = top;
pos = (320,700);
}
);
layerId = m003;
shapes = (
{
closed = 1;
nodes = (
(384,0,ls),
(484,0,o),
(582,48,o),
(636,138,o),
(636,200,qs),
(636,248,o),
(604,314,o),
(550,358,o),
(518,368,q),
(550,376,o),
(602,420,o),
(626,478,o),
(626,520,qs),
(626,568,o),
(580,650,o),
(484,700,o),
(388,700,qs),
(52,700,l),
(52,0,l)
);
},
{
closed = 1;
nodes = (
(240,274,l),
(358,274,ls),
(384,274,o),
(416,266,o),
(438,236,o),
(438,212,qs),
(438,188,o),
(416,158,o),
(384,152,o),
(358,152,qs),
(240,152,l)
);
},
{
closed = 1;
nodes = (
(240,548,l),
(356,548,ls),
(384,548,o),
(414,538,o),
(432,510,o),
(432,488,qs),
(432,466,o),
(414,438,o),
(384,426,o),
(356,426,qs),
(240,426,l)
);
}
);
width = 660;
},
{
anchors = (
{
name = bottom;
pos = (320,0);
},
{
name = top;
pos = (320,700);
}
);
layerId = m004;
shapes = (
{
closed = 1;
nodes = (
(382,0,ls),
(466,0,o),
(562,44,o),
(612,132,o),
(612,192,qs),
(612,234,o),
(582,304,o),
(524,352,o),
(488,358,q),
(520,366,o),
(574,410,o),
(604,472,o),
(604,518,qs),
(604,570,o),
(558,650,o),
(468,700,o),
(380,700,qs),
(84,700,l),
(84,0,l)
);
},
{
closed = 1;
nodes = (
(182,306,l),
(372,306,ls),
(416,306,o),
(474,288,o),
(510,234,o),
(510,196,qs),
(510,160,o),
(476,106,o),
(416,88,o),
(372,88,qs),
(182,88,l)
);
},
{
closed = 1;
nodes = (
(182,612,l),
(366,612,ls),
(418,612,o),
(472,588,o),
(500,540,o),
(500,504,qs),
(500,472,o),
(474,424,o),
(422,394,o),
(372,394,qs),
(182,394,l)
);
}
);
width = 660;
},
{
anchors = (
{
name = bottom;
pos = (320,0);
},
{
name = top;
pos = (320,700);
}
);
layerId = m007;
shapes = (
{
closed = 1;
nodes = (
(388,0,ls),
(458,0,o),
(548,42,o),
(598,126,o),
(598,184,qs),
(598,228,o),
(566,300,o),
(508,348,o),
(480,352,q),
(502,360,o),
(558,406,o),
(588,472,o),
(588,520,qs),
(588,572,o),
(544,652,o),
(458,700,o),
(378,700,qs),
(100,700,l),
(100,0,l)
);
},
{
closed = 1;
nodes = (
(140,330,l),
(386,330,ls),
(440,330,o),
(514,302,o),
(558,230,o),
(558,184,qs),
(558,142,o),
(516,68,o),
(440,40,o),
(386,40,qs),
(140,40,l)
);
},
{
closed = 1;
nodes = (
(140,660,l),
(376,660,ls),
(440,660,o),
(510,624,o),
(548,560,o),
(548,516,qs),
(548,476,o),
(518,414,o),
(446,370,o),
(386,370,qs),
(140,370,l)
);
}
);
width = 660;
}
);
metricLeft = N;
unicode = 66;
userData = {
KernOnName = B;
};
},
{
glyphname = C;
kernLeft = O;
kernRight = C;
lastChange = "2025-11-19 08:27:34 +0000";
layers = (
{
anchors = (
{
name = bottom;
pos = (360,0);
},
{
name = top;
pos = (360,700);
}
);
guides = (
{
pos = (-8,480);
},
{
pos = (-8,220);
}
);
layerId = m003;
shapes = (
{
closed = 1;
nodes = (
(448,-12,o),
(568,48,o),
(638,154,o),
(640,220,q),
(454,220,l),
(452,196,o),
(426,158,o),
(388,142,o),
(356,142,qs),
(314,142,o),
(254,188,o),
(224,276,o),
(224,350,qs),
(224,424,o),
(254,514,o),
(314,560,o),
(356,560,qs),
(388,560,o),
(426,542,o),
(452,504,o),
(454,480,q),
(640,480,l),
(638,544,o),
(568,652,o),
(448,712,o),
(356,712,qs),
(252,712,o),
(108,630,o),
(28,474,o),
(28,350,qs),
(28,228,o),
(108,70,o),
(252,-12,o),
(356,-12,qs)
);
}
);
width = 660;
},
{
anchors = (
{
name = bottom;
pos = (357,0);
},
{
name = top;
pos = (357,700);
}
);
guides = (
{
pos = (-8,510);
},
{
pos = (-8,190);
}
);
layerId = m004;
shapes = (
{
closed = 1;
nodes = (
(442,-12,o),
(552,42,o),
(616,138,o),
(618,190,q),
(518,190,l),
(516,162,o),
(476,110,o),
(414,80,o),
(360,80,qs),
(296,80,o),
(206,134,o),
(152,256,o),
(152,350,qs),
(152,446,o),
(206,568,o),
(296,620,o),
(360,620,qs),
(414,620,o),
(476,590,o),
(516,536,o),
(518,510,q),
(618,510,l),
(616,560,o),
(552,658,o),
(442,712,o),
(360,712,qs),
(264,712,o),
(128,630,o),
(52,472,o),
(52,350,qs),
(52,228,o),
(128,72,o),
(264,-12,o),
(360,-12,qs)
);
}
);
width = 660;
},
{
anchors = (
{
name = bottom;
pos = (353,0);
},
{
name = top;
pos = (353,700);
}
);
guides = (
{
pos = (-8,520);
},
{
pos = (-8,180);
}
);
layerId = m007;
shapes = (
{
closed = 1;
nodes = (
(442,-12,o),
(548,44,o),
(606,140,o),
(608,180,q),
(568,180,l),
(566,150,o),
(520,72,o),
(430,28,o),
(362,28,qs),
(288,28,o),
(176,88,o),
(100,232,o),
(100,350,qs),
(100,470,o),
(176,612,o),
(288,672,o),
(362,672,qs),
(430,672,o),
(520,628,o),
(566,552,o),
(568,520,q),
(608,520,l),
(606,562,o),
(548,656,o),
(442,712,o),
(362,712,qs),
(274,712,o),
(144,638,o),
(60,480,o),
(60,350,qs),
(60,222,o),
(144,62,o),
(274,-12,o),
(362,-12,qs)
);
}
);
width = 660;
}
);
metricLeft = O;
unicode = 67;
},
{
glyphname = D;
kernLeft = I;
kernRight = O;
lastChange = "2025-11-18 19:02:16 +0000";
layers = (
{
anchors = (
{
name = top;
pos = (320,700);
}
);
layerId = m003;
shapes = (
{
closed = 1;
nodes = (
(282,0,ls),
(396,0,o),
(554,72,o),
(652,230,o),
(652,350,qs),
(652,470,o),
(554,628,o),
(396,700,o),
(282,700,qs),
(52,700,l),
(52,0,l)
);
},
{
closed = 1;
nodes = (
(246,548,l),
(266,548,ls),
(336,548,o),
(414,510,o),
(456,426,o),
(456,350,qs),
(456,276,o),
(414,190,o),
(336,152,o),
(266,152,qs),
(246,152,l)
);
}
);
width = 680;
},
{
anchors = (
{
name = top;
pos = (320,700);
}
);
layerId = m004;
shapes = (
{
closed = 1;
nodes = (
(260,0,ls),
(392,0,o),
(546,80,o),
(628,236,o),
(628,350,qs),
(628,464,o),
(546,620,o),
(392,700,o),
(260,700,qs),
(84,700,l),
(84,0,l)
);
},
{
closed = 1;
nodes = (
(184,608,l),
(256,608,ls),
(366,608,o),
(474,550,o),
(528,440,o),
(528,350,qs),
(528,262,o),
(474,150,o),
(366,92,o),
(256,92,qs),
(184,92,l)
);
}
);
width = 680;
},
{
anchors = (
{
name = top;
pos = (320,700);
}
);
layerId = m007;
shapes = (
{
closed = 1;
nodes = (
(252,0,ls),
(400,0,o),
(544.286,84.286,o),
(619,242,o),
(620,350,qs),
(619,458,o),
(544.286,615.714,o),
(400,700,o),
(252,700,qs),
(100,700,l),
(100,0,l)
);
},
{
closed = 1;
nodes = (
(140,660,l),
(250,660,ls),
(390,660,o),
(512,588,o),
(579,447,o),
(580,350,qs),
(579,253,o),
(512,112,o),
(390,40,o),
(250,40,qs),
(140,40,l)
);
}
);
width = 680;
}
);
metricLeft = N;
metricRight = O;
unicode = 68;
},
{
glyphname = E;
kernLeft = I;
kernRight = E;
lastChange = "2025-11-21 12:56:31 +0000";
layers = (
{
anchors = (
{
name = bottom;
pos = (320,0);
},
{
name = ogonek;
pos = (432,0);
},
{
name = top;
pos = (320,700);
}
);
layerId = m003;
shapes = (
{
closed = 1;
nodes = (
(564,0,l),
(564,152,l),
(246,152,l),
(246,274,l),
(540,274,l),
(540,426,l),
(246,426,l),
(246,548,l),
(564,548,l),
(564,700,l),
(52,700,l),
(52,0,l)
);
}
);
width = 600;
},
{
anchors = (
{
name = bottom;
pos = (320,0);
},
{
name = ogonek;
pos = (450,0);
},
{
name = top;
pos = (320,700);
}
);
layerId = m004;
shapes = (
{
closed = 1;
nodes = (
(542,0,l),
(542,88,l),
(184,88,l),
(184,306,l),
(516,306,l),
(516,394,l),
(184,394,l),
(184,612,l),
(542,612,l),
(542,700,l),
(84,700,l),
(84,0,l)
);
}
);
width = 600;
},
{
anchors = (
{
name = bottom;
pos = (320,0);
},
{
name = ogonek;
pos = (494,0);
},
{
name = top;
pos = (320,700);
}
);
layerId = m007;
shapes = (
{
closed = 1;
nodes = (
(534,0,l),
(534,40,l),
(140,40,l),
(140,330,l),
(512,330,l),
(512,370,l),
(140,370,l),
(140,660,l),
(534,660,l),
(534,700,l),
(100,700,l),
(100,0,l)
);
}
);
width = 600;
}
);
metricLeft = N;
unicode = 69;
userData = {
KernOnName = E;
};
},
{
glyphname = Schwa;
kernLeft = O;
kernRight = O;
lastChange = "2025-11-19 08:27:43 +0000";
layers = (
{
anchors = (
{
name = bottom;
pos = (340,0);
},
{
name = top;
pos = (340,700);
}
);
guides = (
{
pos = (-8,480);
}
);
layerId = m003;
shapes = (
{
closed = 1;
nodes = (
(446,-12,o),
(592,76,o),
(672,236,o),
(672,354,qs),
(672,472,o),
(590,630,o),
(442,712,o),
(340,712,qs),
(250,712,o),
(120,652,o),
(44,540,o),
(40,480,q),
(230,480,l),
(232,502,o),
(258,538,o),
(304,560,o),
(342,560,qs),
(392,560,o),
(450,520,o),
(482,446,o),
(482,354,qs),
(482,262,o),
(450,178,o),
(392,140,o),
(344,140,qs),
(296,140,o),
(244,176,o),
(220,234,o),
(220,274,q),
(556,274,l),
(556,426,l),
(28,426,l),
(28,338,ls),
(28,232,o),
(102,74,o),
(246,-12,o),
(344,-12,qs)
);
}
);
width = 700;
},
{
anchors = (
{
name = bottom;
pos = (340,0);
},
{
name = top;
pos = (340,700);
}
);
guides = (
{
pos = (-8,510);
}
);
layerId = m004;
shapes = (
{
closed = 1;
nodes = (
(442,-12,o),
(576,80,o),
(648,238,o),
(648,356,qs),
(648,474,o),
(564,634,o),
(428,712,o),
(342,712,qs),
(254,712,o),
(136,656,o),
(68,558,o),
(64,510,q),
(164,510,l),
(168,538,o),
(210,592,o),
(284,624,o),
(342,624,qs),
(404,624,o),
(492,566,o),
(548,454,o),
(548,356,qs),
(548,256,o),
(500,140,o),
(412,76,o),
(344,76,qs),
(278,76,o),
(194,132,o),
(152,236,o),
(152,306,q),
(582,306,l),
(582,394,l),
(52,394,l),
(52,348,ls),
(52,226,o),
(116,76,o),
(246,-12,o),
(344,-12,qs)
);
}
);
width = 700;
},
{
anchors = (
{
name = bottom;
pos = (340,0);
},
{
name = top;
pos = (340,700);
}
);
guides = (
{
pos = (-8,520);
}
);
layerId = m007;
shapes = (
{
closed = 1;
nodes = (
(446,-12,o),
(580,86,o),
(640,240,o),
(640,350,qs),
(640,460,o),
(566,630,o),
(430,712,o),
(340,712,qs),
(254,712,o),
(146,658,o),
(82,564,o),
(78,520,q),
(118,520,l),
(122,554,o),
(178,630,o),
(266,672,o),
(340,672,qs),
(420,672,o),
(534,602,o),
(600,450,o),
(600,350,qs),
(600,250,o),
(544,110,o),
(434,28,o),
(346,28,qs),
(260,28,o),
(158,98,o),
(100,224,o),
(100,330,q),
(616,330,l),
(616,370,l),
(60,370,l),
(60,342,ls),
(60,220,o),
(126,74,o),
(248,-12,o),
(346,-12,qs)
);
}
);
width = 700;
}
);
metricLeft = O;
metricRight = O;
unicode = 399;
},
{
glyphname = Ezh;
kernLeft = C;
kernRight = U;
lastChange = "2025-11-19 08:33:46 +0000";
layers = (
{
anchors = (
{
name = bottom;
pos = (310,0);
},
{
name = top;
pos = (310,700);
}
);
guides = (
{
pos = (-8,220);
}
);
layerId = m003;
shapes = (
{
closed = 1;
nodes = (
(408,-12,o),
(524,38,o),
(596,144,o),
(596,218,qs),
(596,282,o),
(546,374,o),
(458,426,o),
(398,434,q),
(582,584,l),
(582,700,l),
(40,700,l),
(40,550,l),
(350,550,l),
(170,398,l),
(170,300,l),
(266,300,ls),
(320,300,o),
(374,284,o),
(402,246,o),
(402,218,qs),
(402,188,o),
(380,152,o),
(344,136,o),
(316,136,qs),
(282,136,o),
(240,150,o),
(210,188,o),
(208,220,q),
(20,220,l),
(22,158,o),
(88,46,o),
(220,-12,o),
(314,-12,qs)
);
}
);
width = 620;
},
{
anchors = (
{
name = bottom;
pos = (310,0);
},
{
name = top;
pos = (310,700);
}
);
guides = (
{
pos = (-8,190);
}
);
layerId = m004;
shapes = (
{
closed = 1;
nodes = (
(398,-10,o),
(504,38,o),
(572,136,o),
(572,204,qs),
(572,276,o),
(508,368,o),
(404,412,o),
(328,414,q),
(556,634,l),
(556,700,l),
(60,700,l),
(60,612,l),
(424,612,l),
(196,392,l),
(196,336,l),
(264,336,ls),
(348,336,o),
(428,310,o),
(472,250,o),
(472,204,qs),
(472,162,o),
(430,102,o),
(362,78,o),
(312,78,qs),
(258,78,o),
(188,104,o),
(144,154,o),
(142,190,q),
(42,190,l),
(44,128,o),
(110,40,o),
(224,-10,o),
(312,-10,qs)
);
}
);
width = 620;
},
{
anchors = (
{
name = bottom;
pos = (310,0);
},
{
name = top;
pos = (310,700);
}
);
guides = (
{
pos = (-8,180);
}
);
layerId = m007;
shapes = (
{
closed = 1;
nodes = (
(384,-8,o),
(488,34,o),
(558,128,o),
(558,194,qs),
(558,262,o),
(488,356,o),
(380,400,o),
(282,400,q),
(544,668,l),
(544,700,l),
(72,700,l),
(72,660,l),
(486,660,l),
(222,390,l),
(222,362,l),
(260,362,ls),
(358,362,o),
(458,330,o),
(518,252,o),
(518,194,qs),
(518,138,o),
(456,64,o),
(372,32,o),
(306,32,qs),
(240,32,o),
(150,62,o),
(94,134,o),
(92,180,q),
(52,180,l),
(54,124,o),
(120,32,o),
(228,-8,o),
(306,-8,qs)
);
}
);
width = 620;
}
);
metricLeft = "Ereversed-cy";
metricRight = B;
unicode = 439;
},
{
glyphname = F;
kernLeft = I;
kernRight = Psi;
lastChange = "2025-11-18 18:49:17 +0000";
layers = (
{
anchors = (
{
name = top;
pos = (290,700);
}
);
layerId = m003;
shapes = (
{
closed = 1;
nodes = (
(246,0,l),
(246,548,l),
(550,548,l),
(550,700,l),
(52,700,l),
(52,0,l)
);
},
{
closed = 1;
nodes = (
(530,274,l),
(530,426,l),
(190,426,l),
(190,274,l)
);
}
);
width = 580;
},
{
anchors = (
{
name = top;
pos = (290,700);
}
);
layerId = m004;
shapes = (
{
closed = 1;
nodes = (
(184,0,l),
(184,612,l),
(532,612,l),
(532,700,l),
(84,700,l),
(84,0,l)
);
},
{
closed = 1;
nodes = (
(492,306,l),
(492,394,l),
(144,394,l),
(144,306,l)
);
}
);
width = 580;
},
{
anchors = (
{
name = top;
pos = (290,700);
}
);
layerId = m007;
shapes = (
{
closed = 1;
nodes = (
(140,0,l),
(140,660,l),
(524,660,l),
(524,700,l),
(100,700,l),
(100,0,l)
);
},
{
closed = 1;
nodes = (
(484,330,l),
(484,370,l),
(130,370,l),
(130,330,l)
);
}
);
width = 580;
}
);
metricLeft = N;
unicode = 70;
userData = {
KernOnName = F;
};
},
{
glyphname = G;
kernLeft = O;
kernRight = O;
lastChange = "2025-11-19 08:27:56 +0000";
layers = (
{
anchors = (
{
name = bottom;
pos = (360,0);
},
{
name = top;
pos = (360,700);
}
);
guides = (
{
pos = (-8,480);
}
);
layerId = m003;
shapes = (
{
closed = 1;
nodes = (
(474,-12,o),
(610,74,o),
(672,224,o),
(672,344,qs),
(672,376,o),
(668,400,q),
(350,400,l),
(350,262,l),
(492,262,l),
(492,232,o),
(468,176,o),
(416,142,o),
(370,142,qs),
(326,142,o),
(258,184,o),
(224,278,o),
(224,350,qs),
(224,424,o),
(258,516,o),
(324,560,o),
(372,560,qs),
(406,560,o),
(446,540,o),
(472,500,o),
(474,480,q),
(658,480,l),
(656,544,o),
(582,654,o),
(458,712,o),
(368,712,qs),
(264,712,o),
(112,628,o),
(28,466,o),
(28,350,qs),
(28,234,o),
(110,72,o),
(262,-12,o),
(366,-12,qs)
);
}
);
width = 700;
},
{
anchors = (
{
name = bottom;
pos = (360,0);
},
{
name = top;
pos = (360,700);
}
);
guides = (
{
pos = (-8,510);
}
);
layerId = m004;
shapes = (
{
closed = 1;
nodes = (
(462,-12,o),
(586,70,o),
(648,218,o),
(648,336,qs),
(648,364,o),
(646,384,q),
(350,384,l),
(350,296,l),
(550,296,l),
(550,236,o),
(514,134,o),
(434,76,o),
(368,76,qs),
(300,76,o),
(210,128,o),
(152,250,o),
(152,350,qs),
(152,452,o),
(212,574,o),
(304,624,o),
(368,624,qs),
(418,624,o),
(482,598,o),
(528,540,o),
(532,510,q),
(628,510,l),
(624,560,o),
(560,656,o),
(446,712,o),
(366,712,qs),
(274,712,o),
(138,636,o),
(52,476,o),
(52,350,qs),
(52,226,o),
(134,64,o),
(274,-12,o),
(364,-12,qs)
);
}
);
width = 700;
},
{
anchors = (
{
name = bottom;
pos = (360,0);
},
{
name = top;
pos = (360,700);
}
);
guides = (
{
pos = (-8,520);
}
);
layerId = m007;
shapes = (
{
closed = 1;
nodes = (
(460,-12,o),
(586,78,o),
(640,240,o),
(640,342,qs),
(640,358,o),
(638,370,q),
(350,370,l),
(350,330,l),
(600,330,l),
(600,246,o),
(554,104,o),
(450,28,o),
(364,28,qs),
(282,28,o),
(176,90,o),
(100,230,o),
(100,350,qs),
(100,470,o),
(178,610,o),
(286,672,o),
(364,672,qs),
(428,672,o),
(518,632,o),
(572,552,o),
(574,520,q),
(616,520,l),
(614,562,o),
(546,660,o),
(440,712,o),
(364,712,qs),
(274,712,o),
(146,640,o),
(60,480,o),
(60,350,qs),
(60,220,o),
(144,60,o),
(270,-12,o),
(364,-12,qs)
);
}
);
width = 700;
}
);
metricLeft = O;
metricRight = O;
unicode = 71;
},
{
glyphname = G.cv06;
kernLeft = O;
kernRight = Omega;
lastChange = "2025-11-19 08:27:58 +0000";
layers = (
{
anchors = (
{
name = bottom;
pos = (360,0);
},
{
name = top;
pos = (360,700);
}
);
guides = (
{
pos = (-8,480);
}
);
layerId = m003;
shapes = (
{
closed = 1;
nodes = (
(392,-12,o),
(456,10,o),
(496,42,o),
(508,62,q),
(508,0,l),
(672,0,l),
(672,400,l),
(350,400,l),
(350,262,l),
(494,262,l),
(494,232,o),
(466,174,o),
(414,142,o),
(370,142,qs),
(322,142,o),
(258,184,o),
(224,278,o),
(224,350,qs),
(224,424,o),
(260,516,o),
(324,560,o),
(372,560,qs),
(406,560,o),
(446,540,o),
(472,500,o),
(474,480,q),
(658,480,l),
(656,544,o),
(582,654,o),
(458,712,o),
(368,712,qs),
(264,712,o),
(114,628,o),
(28,466,o),
(28,350,qs),
(28,234,o),
(108,72,o),
(242,-12,o),
(340,-12,qs)
);
}
);
width = 720;
},
{
anchors = (
{
name = bottom;
pos = (360,0);
},
{
name = top;
pos = (360,700);
}
);
guides = (
{
pos = (-8,510);
}
);
layerId = m004;
shapes = (
{
closed = 1;
nodes = (
(418,-12,o),
(498,20,o),
(544,66,o),
(552,90,q),
(552,0,l),
(642,0,l),
(642,384,l),
(350,384,l),
(350,296,l),
(552,296,l),
(552,238,o),
(518,136,o),
(436,76,o),
(364,76,qs),
(300,76,o),
(208,128,o),
(152,250,o),
(152,350,qs),
(152,452,o),
(210,574,o),
(304,624,o),
(368,624,qs),
(418,624,o),
(484,598,o),
(528,540,o),
(532,510,q),
(628,510,l),
(624,560,o),
(560,660,o),
(446,712,o),
(366,712,qs),
(270,712,o),
(136,636,o),
(52,476,o),
(52,350,qs),
(52,226,o),
(136,64,o),
(266,-12,o),
(354,-12,qs)
);
}
);
width = 720;
},
{
anchors = (
{
name = bottom;
pos = (360,0);
},
{
name = top;
pos = (360,700);
}
);
guides = (
{
pos = (-8,520);
}
);
layerId = m007;
shapes = (
{
closed = 1;
nodes = (
(436,-12,o),
(526,30,o),
(580,98,o),
(590,130,q),
(590,0,l),
(630,0,l),
(630,370,l),
(350,370,l),
(350,330,l),
(592,330,l),
(592,244,o),
(556,118,o),
(456,28,o),
(364,28,qs),
(288,28,o),
(176,90,o),
(100,230,o),
(100,350,qs),
(100,470,o),
(178,610,o),
(286,672,o),
(364,672,qs),
(428,672,o),
(518,632,o),
(574,552,o),
(576,520,q),
(616,520,l),
(614,562,o),
(546,660,o),
(440,712,o),
(364,712,qs),
(274,712,o),
(146,640,o),
(60,480,o),
(60,350,qs),
(60,220,o),
(144,60,o),
(274,-12,o),
(360,-12,qs)
);
}
);
width = 720;
}
);
metricLeft = O;
metricRight = U;
},
{
glyphname = Gstroke;
kernLeft = O;
kernRight = O;
lastChange = "2025-11-18 19:01:57 +0000";
layers = (
{
layerId = m003;
shapes = (
{
ref = G;
},
{
closed = 1;
nodes = (
(700,166,l),
(700,234,l),
(350,234,l),
(350,166,l)
);
}
);
width = 700;
},
{
layerId = m004;
shapes = (
{
ref = G;
},
{
closed = 1;
nodes = (
(700,174,l),
(700,246,l),
(350,246,l),
(350,174,l)
);
}
);
width = 700;
},
{
layerId = m007;
shapes = (
{
ref = G;
},
{
closed = 1;
nodes = (
(700,180,l),
(700,220,l),
(350,220,l),
(350,180,l)
);
}
);
width = 700;
}
);
metricLeft = O;
unicode = 484;
},
{
glyphname = Gstroke.cv06;
kernLeft = O;
kernRight = Omega;
lastChange = "2025-11-19 08:03:35 +0000";
layers = (
{
layerId = m003;
shapes = (
{
ref = G.cv06;
},
{
closed = 1;
nodes = (
(720,166,l),
(720,234,l),
(350,234,l),
(350,166,l)
);
}
);
width = 720;
},
{
layerId = m004;
shapes = (
{
ref = G.cv06;
},
{
closed = 1;
nodes = (
(720,174,l),
(720,246,l),
(350,246,l),
(350,174,l)
);
}
);
width = 720;
},
{
layerId = m007;
shapes = (
{
ref = G.cv06;
},
{
closed = 1;
nodes = (
(720,180,l),
(720,220,l),
(348,220,l),
(348,180,l)
);
}
);
width = 720;
}
);
metricLeft = O;
metricWidth = G.cv06;
},
{
glyphname = H;
kernLeft = I;
kernRight = I;
lastChange = "2025-11-18 18:45:54 +0000";
layers = (
{
anchors = (
{
name = bottom;
pos = (360,0);
},
{
name = top;
pos = (360,700);
}
);
layerId = m003;
shapes = (
{
closed = 1;
nodes = (
(244,0,l),
(244,270,l),
(476,270,l),
(476,0,l),
(668,0,l),
(668,700,l),
(476,700,l),
(476,430,l),
(244,430,l),
(244,700,l),
(52,700,l),
(52,0,l)
);
}
);
width = 720;
},
{
anchors = (
{
name = bottom;
pos = (360,0);
},
{
name = top;
pos = (360,700);
}
);
layerId = m004;
shapes = (
{
closed = 1;
nodes = (
(184,0,l),
(184,304,l),
(536,304,l),
(536,0,l),
(636,0,l),
(636,700,l),
(536,700,l),
(536,396,l),
(184,396,l),
(184,700,l),
(84,700,l),
(84,0,l)
);
}
);
width = 720;
},
{
anchors = (
{
name = bottom;
pos = (360,0);
},
{
name = top;
pos = (360,702);
}
);
layerId = m007;
shapes = (
{
closed = 1;
nodes = (
(140,0,l),
(140,330,l),
(580,330,l),
(580,0,l),
(620,0,l),
(620,700,l),
(580,700,l),
(580,370,l),
(140,370,l),
(140,700,l),
(100,700,l),
(100,0,l)
);
}
);
width = 720;
}
);
metricLeft = N;
metricRight = N;
unicode = 72;
userData = {
KernOnName = H;
};
},
{
glyphname = Hbar;
kernLeft = I;
kernRight = I;
lastChange = "2025-11-17 08:05:17 +0000";
layers = (
{
layerId = m003;
shapes = (
{
ref = H;
},
{
closed = 1;
nodes = (
(720,540,l),
(720,620,l),
(0,620,l),
(0,540,l)
);
}
);
width = 720;
},
{
layerId = m004;
shapes = (
{
ref = H;
},
{
closed = 1;
nodes = (
(720,544,l),
(720,616,l),
(0,616,l),
(0,544,l)
);
}
);
width = 720;
},
{
layerId = m007;
shapes = (
{
ref = H;
},
{
closed = 1;
nodes = (
(720,560,l),
(720,600,l),
(0,600,l),
(0,560,l)
);
}
);
width = 720;
}
);
unicode = 294;
},
{
glyphname = Hhook;
kernLeft = T;
kernRight = I;
lastChange = "2025-11-18 18:46:02 +0000";
layers = (
{
layerId = m003;
shapes = (
{
pos = (160,0);
ref = "En-cy";
},
{
closed = 1;
nodes = (
(160,484,l),
(160,548,ls),
(160,558,o),
(170,568,o),
(180,568,qs),
(360,568,l),
(406,700,l),
(114,700,ls),
(64,700,o),
(14,650,o),
(14,600,qs),
(14,484,l)
);
}
);
width = 880;
},
{
layerId = m004;
shapes = (
{
pos = (160,0);
ref = "En-cy";
},
{
closed = 1;
nodes = (
(120,508,l),
(120,574,ls),
(120,596,o),
(142,620,o),
(166,620,qs),
(324,620,l),
(344,700,l),
(130,700,ls),
(80,700,o),
(30,650,o),
(30,600,qs),
(30,508,l)
);
}
);
width = 880;
},
{
layerId = m007;
shapes = (
{
pos = (160,0);
ref = "En-cy";
},
{
closed = 1;
nodes = (
(78,524,l),
(78,588,ls),
(78,624,o),
(114,660,o),
(150,660,qs),
(286,660,l),
(300,700,l),
(150,700,ls),
(94,700,o),
(38,644,o),
(38,588,qs),
(38,524,l)
);
}
);
width = 880;
}
);
metricRight = H;
unicode = 42922;
},
{
glyphname = I;
kernLeft = I;
kernRight = I;
lastChange = "2025-11-21 12:56:24 +0000";
layers = (
{
anchors = (
{
name = bottom;
pos = (140,0);
},
{
name = ogonek;
pos = (106,0);
},
{
name = top;
pos = (140,700);
}
);
layerId = m003;
shapes = (
{
closed = 1;
nodes = (
(238,0,l),
(238,700,l),
(42,700,l),
(42,0,l)
);
}
);
width = 280;
},
{
anchors = (
{
name = bottom;
pos = (140,0);
},
{
name = ogonek;
pos = (98,0);
},
{
name = top;
pos = (140,700);
}
);
layerId = m004;
shapes = (
{
closed = 1;
nodes = (
(190,0,l),
(190,700,l),
(90,700,l),
(90,0,l)
);
}
);
width = 280;
},
{
anchors = (
{
name = bottom;
pos = (140,0);
},
{
name = ogonek;
pos = (120,0);
},
{
name = top;
pos = (140,700);
}
);
layerId = m007;
shapes = (
{
closed = 1;
nodes = (
(160,0,l),
(160,700,l),
(120,700,l),
(120,0,l)
);
}
);
width = 280;
}
);
unicode = 73;
},
{
glyphname = I.cv05;
kernLeft = "Zhe-royal";
kernRight = "Zhe-royal";
lastChange = "2025-11-21 12:57:45 +0000";
layers = (
{
anchors = (
{
name = bottom;
pos = (240,0);
},
{
name = ogonek;
pos = (336,0);
},
{
name = top;
pos = (240,700);
}
);
layerId = m003;
shapes = (
{
pos = (100,0);
ref = I;
},
{
closed = 1;
nodes = (
(12,556,l),
(468,556,l),
(468,700,l),
(12,700,l)
);
},
{
closed = 1;
nodes = (
(12,0,l),
(468,0,l),
(468,146,l),
(12,146,l)
);
}
);
width = 480;
},
{
anchors = (
{
name = bottom;
pos = (240,0);
},
{
name = ogonek;
pos = (358,0);
},
{
name = top;
pos = (240,700);
}
);
layerId = m004;
shapes = (
{
pos = (100,0);
ref = I;
},
{
closed = 1;
nodes = (
(30,608,l),
(450,608,l),
(450,700,l),
(29,700,l)
);
},
{
closed = 1;
nodes = (
(29,0,l),
(450,0,l),
(450,92,l),
(30,92,l)
);
}
);
width = 480;
},
{
anchors = (
{
name = bottom;
pos = (240,0);
},
{
name = ogonek;
pos = (404,0);
},
{
name = top;
pos = (240,700);
}
);
layerId = m007;
shapes = (
{
pos = (100,0);
ref = I;
},
{
closed = 1;
nodes = (
(36,660,l),
(444,660,l),
(444,700,l),
(36,700,l)
);
},
{
closed = 1;
nodes = (
(36,0,l),
(444,0,l),
(444,40,l),
(36,40,l)
);
}
);
width = 480;
}
);
metricLeft = T;
metricRight = T;
},
{
glyphname = J;
kernLeft = L;
kernRight = I;
lastChange = "2025-11-18 18:50:25 +0000";
layers = (
{
anchors = (
{
name = bottom;
pos = (200,0);
},
{
name = top;
pos = (352,700);
}
);
layerId = m003;
shapes = (
{
closed = 1;
nodes = (
(368,0,o),
(448,80,o),
(448,150,qs),
(448,700,l),
(256,700,l),
(256,210,ls),
(256,184,o),
(232,160,o),
(206,160,qs),
(12,160,l),
(12,0,l),
(298,0,ls)
);
}
);
width = 500;
},
{
anchors = (
{
name = bottom;
pos = (200,0);
},
{
name = top;
pos = (367,700);
}
);
layerId = m004;
shapes = (
{
closed = 1;
nodes = (
(336,0,o),
(416,80,o),
(416,150,qs),
(416,700,l),
(316,700,l),
(316,176,ls),
(316,134,o),
(274,92,o),
(230,92,qs),
(30,92,l),
(30,0,l),
(266,0,ls)
);
}
);
width = 500;
},
{
anchors = (
{
name = bottom;
pos = (200,0);
},
{
name = top;
pos = (381,700);
}
);
layerId = m007;
shapes = (
{
closed = 1;
nodes = (
(322,0,o),
(400,78,o),
(400,150,qs),
(400,700,l),
(360,700,l),
(360,158,ls),
(360,100,o),
(300,40,o),
(242,40,qs),
(36,40,l),
(36,0,l),
(250,0,ls)
);
}
);
width = 500;
}
);
metricLeft = T;
metricRight = N;
unicode = 74;
},
{
glyphname = K;
kernLeft = I;
kernRight = X;
lastChange = "2025-11-18 19:02:41 +0000";
layers = (
{
anchors = (
{
name = bottom;
pos = (340,0);
},
{
name = top;
pos = (340,700);
}
);
layerId = m003;
shapes = (
{
closed = 1;
nodes = (
(246,0,l),
(246,214,l),
(298,280,l),
(456,0,l),
(682,0,l),
(448,402,l),
(688,700,l),
(478,700,l),
(246,414,l),
(246,700,l),
(52,700,l),
(52,0,l)
);
}
);
width = 700;
},
{
anchors = (
{
name = bottom;
pos = (340,0);
},
{
name = top;
pos = (340,700);
}
);
layerId = m004;
shapes = (
{
closed = 1;
nodes = (
(184,0,l),
(184,232,l),
(294,340,l),
(544,0,l),
(670,0,l),
(376,404,l),
(670,700,l),
(542,700,l),
(184,350,l),
(184,700,l),
(84,700,l),
(84,0,l)
);
}
);
width = 700;
},
{
anchors = (
{
name = bottom;
pos = (340,0);
},
{
name = top;
pos = (340,700);
}
);
layerId = m007;
shapes = (
{
closed = 1;
nodes = (
(140,0,l),
(140,252,l),
(292,384,l),
(614,0,l),
(664,0,l),
(324,410,l),
(652,700,l),
(598,700,l),
(140,300,l),
(140,700,l),
(100,700,l),
(100,0,l)
);
}
);
width = 700;
}
);
metricLeft = N;
metricRight = X;
unicode = 75;
userData = {
KernOnName = K;
};
},
{
glyphname = L;
kernLeft = I;
kernRight = L;
lastChange = "2025-11-18 18:49:49 +0000";
layers = (
{
anchors = (
{
name = bottom;
pos = (300,0);
},
{
name = top;
pos = (150,700);
}
);
layerId = m003;
shapes = (
{
closed = 1;
nodes = (
(548,0,l),
(548,160,l),
(248,160,l),
(248,700,l),
(52,700,l),
(52,0,l)
);
}
);
width = 560;
},
{
anchors = (
{
name = bottom;
pos = (300,0);
},
{
name = top;
pos = (135,700);
}
);
layerId = m004;
shapes = (
{
closed = 1;
nodes = (
(530,0,l),
(530,92,l),
(184,92,l),
(184,700,l),
(84,700,l),
(84,0,l)
);
}
);
width = 560;
},
{
anchors = (
{
name = bottom;
pos = (300,0);
},
{
name = top;
pos = (119,700);
}
);
layerId = m007;
shapes = (
{
closed = 1;
nodes = (
(524,0,l),
(524,40,l),
(140,40,l),
(140,700,l),
(100,700,l),
(100,0,l)
);
}
);
width = 560;
}
);
metricLeft = N;
metricRight = T;
unicode = 76;
userData = {
KernOnName = L;
};
},
{
glyphname = L.ss05;
kernLeft = I;
kernRight = L;
lastChange = "2025-11-18 18:50:13 +0000";
layers = (
{
anchors = (
{
name = bottom;
pos = (300,0);
},
{
name = top;
pos = (150,700);
}
);
layerId = m003;
shapes = (
{
closed = 1;
nodes = (
(548,0,l),
(548,160,l),
(288,160,ls),
(268,160,o),
(248,180,o),
(248,200,qs),
(248,700,l),
(52,700,l),
(52,140,ls),
(52,70,o),
(122,0,o),
(192,0,qs)
);
}
);
width = 560;
},
{
anchors = (
{
name = bottom;
pos = (300,0);
},
{
name = top;
pos = (135,700);
}
);
layerId = m004;
shapes = (
{
closed = 1;
nodes = (
(530,0,l),
(530,92,l),
(262,92,ls),
(224,90,o),
(184,130,o),
(184,170,qs),
(184,700,l),
(84,700,l),
(84,144,ls),
(84,74,o),
(156,0,o),
(228,0,qs)
);
}
);
width = 560;
},
{
anchors = (
{
name = bottom;
pos = (300,0);
},
{
name = top;
pos = (119,700);
}
);
layerId = m007;
shapes = (
{
closed = 1;
nodes = (
(524,0,l),
(524,40,l),
(256,40,ls),
(198,40,o),
(140,100,o),
(140,158,qs),
(139,700,l),
(99,700,l),
(100,150,ls),
(99,76,o),
(174,0,o),
(248,0,qs)
);
}
);
width = 560;
}
);
metricLeft = N;
metricRight = T;
userData = {
KernOnName = L;
};
},
{
glyphname = Lslash;
kernLeft = I;
kernRight = L;
lastChange = "2025-11-17 07:58:52 +0000";
layers = (
{
anchors = (
{
name = top;
pos = (150,700);
}
);
layerId = m003;
shapes = (
{
closed = 1;
nodes = (
(400,367,l),
(400,487,l),
(0,333,l),
(0,213,l)
);
},
{
alignment = -1;
ref = L;
}
);
width = 560;
},
{
anchors = (
{
name = top;
pos = (135,700);
}
);
layerId = m004;
shapes = (
{
closed = 1;
nodes = (
(400,392,l),
(400,470,l),
(0,310,l),
(0,232,l)
);
},
{
alignment = -1;
ref = L;
}
);
width = 560;
},
{
anchors = (
{
name = top;
pos = (119,700);
}
);
layerId = m007;
shapes = (
{
closed = 1;
nodes = (
(400,410,l),
(400,452,l),
(0,290,l),
(0,248,l)
);
},
{
alignment = -1;
ref = L;
}
);
width = 560;
}
);
metricRight = L;
unicode = 321;
},
{
glyphname = Lslash.ss05;
kernLeft = I;
kernRight = L;
lastChange = "2025-11-17 07:58:49 +0000";
layers = (
{
anchors = (
{
name = top;
pos = (150,700);
}
);
layerId = m003;
shapes = (
{
closed = 1;
nodes = (
(400,367,l),
(400,487,l),
(0,333,l),
(0,213,l)
);
},
{
alignment = -1;
ref = L.ss05;
}
);
width = 560;
},
{
anchors = (
{
name = top;
pos = (135,700);
}
);
layerId = m004;
shapes = (
{
closed = 1;
nodes = (
(400,392,l),
(400,470,l),
(0,310,l),
(0,232,l)
);
},
{
alignment = -1;
ref = L.ss05;
}
);
width = 560;
},
{
anchors = (
{
name = top;
pos = (119,700);
}
);
layerId = m007;
shapes = (
{
closed = 1;
nodes = (
(400,410,l),
(400,452,l),
(0,290,l),
(0,248,l)
);
},
{
alignment = -1;
ref = L.ss05;
}
);
width = 560;
}
);
metricRight = L;
},
{
glyphname = M;
kernLeft = I;
kernRight = I;
lastChange = "2025-11-18 18:49:11 +0000";
layers = (
{
anchors = (
{
name = bottom;
pos = (460,0);
},
{
name = top;
pos = (460,700);
}
);
layerId = m003;
shapes = (
{
closed = 1;
nodes = (
(226,0,l),
(226,482,l),
(370,0,l),
(538,0,l),
(678,466,l),
(678,0,l),
(868,0,l),
(868,700,l),
(600,700,l),
(468,220,l),
(330,700,l),
(52,700,l),
(52,0,l)
);
}
);
width = 920;
},
{
anchors = (
{
name = bottom;
pos = (461,0);
},
{
name = top;
pos = (460,700);
}
);
layerId = m004;
shapes = (
{
closed = 1;
nodes = (
(180,0,l),
(180,586,l),
(414,0,l),
(506,0,l),
(736,580,l),
(736,0,l),
(836,0,l),
(836,700,l),
(690,700,l),
(464,130,l),
(234,700,l),
(84,700,l),
(84,0,l)
);
}
);
width = 920;
},
{
anchors = (
{
name = bottom;
pos = (462,0);
},
{
name = top;
pos = (460,700);
}
);
layerId = m007;
shapes = (
{
closed = 1;
nodes = (
(140,0,l),
(140,654,l),
(440,0,l),
(480,0,l),
(780,652,l),
(780,0,l),
(820,0,l),
(820,700,l),
(760,700,l),
(462,46,l),
(162,700,l),
(100,700,l),
(100,0,l)
);
}
);
width = 920;
}
);
metricLeft = N;
metricRight = N;
unicode = 77;
},
{
glyphname = N;
kernLeft = I;
kernRight = I;
lastChange = "2025-11-18 18:45:38 +0000";
layers = (
{
anchors = (
{
name = bottom;
pos = (360,0);
},
{
name = top;
pos = (360,700);
}
);
layerId = m003;
shapes = (
{
closed = 1;
nodes = (
(228,0,l),
(228,450,l),
(452,0,l),
(668,0,l),
(668,700,l),
(494,700,l),
(494,238,l),
(270,700,l),
(52,700,l),
(52,0,l)
);
}
);
width = 720;
},
{
anchors = (
{
name = bottom;
pos = (360,0);
},
{
name = top;
pos = (360,700);
}
);
layerId = m004;
shapes = (
{
closed = 1;
nodes = (
(182,0,l),
(182,550,l),
(524,0,l),
(636,0,l),
(636,700,l),
(538,700,l),
(538,150,l),
(196,700,l),
(84,700,l),
(84,0,l)
);
}
);
width = 720;
},
{
anchors = (
{
name = bottom;
pos = (360,0);
},
{
name = top;
pos = (360,700);
}
);
layerId = m007;
shapes = (
{
closed = 1;
nodes = (
(140,0,l),
(140,646,l),
(572,0,l),
(620,0,l),
(620,700,l),
(580,700,l),
(580,56,l),
(148,700,l),
(100,700,l),
(100,0,l)
);
}
);
width = 720;
}
);
unicode = 78;
},
{
glyphname = Eng;
kernLeft = I;
kernRight = "I-des";
lastChange = "2025-11-18 18:45:41 +0000";
layers = (
{
layerId = m003;
shapes = (
{
closed = 1;
nodes = (
(228,0,l),
(228,450,l),
(476,0,l),
(668,0,l),
(668,700,l),
(492,700,l),
(492,278,l),
(258,700,l),
(52,700,l),
(52,0,l)
);
},
{
alignment = -1;
pos = (374,0);
ref = "hook-2";
}
);
width = 720;
},
{
layerId = m004;
shapes = (
{
closed = 1;
nodes = (
(180,0,l),
(180,546,l),
(536,0,l),
(636,0,l),
(636,700,l),
(538,700,l),
(538,160,l),
(188,700,l),
(84,700,l),
(84,0,l)
);
},
{
alignment = -1;
pos = (382,0);
ref = "hook-2";
}
);
width = 720;
},
{
layerId = m007;
shapes = (
{
closed = 1;
nodes = (
(140,0,l),
(140,642,l),
(580,0,l),
(620,0,l),
(620,700,l),
(580,700,l),
(580,68,l),
(148,700,l),
(100,700,l),
(100,0,l)
);
},
{
alignment = -1;
pos = (390,0);
ref = "hook-2";
}
);
width = 720;
}
);
metricLeft = N;
metricRight = N;
unicode = 330;
},
{
glyphname = O;
kernLeft = O;
kernRight = O;
lastChange = "2025-11-19 08:25:56 +0000";
layers = (
{
anchors = (
{
name = bottom;
pos = (360,0);
},
{
name = top;
pos = (360,700);
}
);
layerId = m003;
shapes = (
{
closed = 1;
nodes = (
(468,-12,o),
(618,76,o),
(692,236,o),
(692,350,qs),
(692,464,o),
(618,626,o),
(468,712,o),
(360,712,qs),
(254,712,o),
(104,626,o),
(28,464,o),
(28,350,qs),
(28,236,o),
(104,76,o),
(254,-12,o),
(360,-12,qs)
);
},
{
closed = 1;
nodes = (
(310,148,o),
(252,198,o),
(224,284,o),
(224,350,qs),
(224,418,o),
(252,504,o),
(310,552,o),
(360,552,qs),
(412,552,o),
(468,504,o),
(496,418,o),
(496,350,qs),
(496,284,o),
(468,198,o),
(412,148,o),
(360,148,qs)
);
}
);
width = 720;
},
{
anchors = (
{
name = bottom;
pos = (360,0);
},
{
name = top;
pos = (360,700);
}
);
layerId = m004;
shapes = (
{
closed = 1;
nodes = (
(458,-12,o),
(594,80,o),
(668,238,o),
(668,350,qs),
(668,464,o),
(594,624,o),
(458,712,o),
(360,712,qs),
(262,712,o),
(126,624,o),
(52,464,o),
(52,350,qs),
(52,238,o),
(126,80,o),
(262,-12,o),
(360,-12,qs)
);
},
{
closed = 1;
nodes = (
(286,80,o),
(200,148,o),
(152,262,o),
(152,350,qs),
(152,438,o),
(200,554,o),
(286,620,o),
(360,620,qs),
(436,620,o),
(520,554,o),
(568,438,o),
(568,350,qs),
(568,262,o),
(520,148,o),
(436,80,o),
(360,80,qs)
);
}
);
width = 720;
},
{
anchors = (
{
name = bottom;
pos = (360,0);
},
{
name = top;
pos = (360,700);
}
);
layerId = m007;
shapes = (
{
closed = 1;
nodes = (
(458,-12,o),
(588,78,o),
(660,238,o),
(660,350,qs),
(660,462,o),
(588,626,o),
(458,712,o),
(360,712,qs),
(264,712,o),
(134,626,o),
(60,462,o),
(60,350,qs),
(60,238,o),
(134,78,o),
(264,-12,o),
(360,-12,qs)
);
},
{
closed = 1;
nodes = (
(276,28,o),
(164,106,o),
(100,250,o),
(100,350,qs),
(100,452,o),
(164,598,o),
(276,672,o),
(360,672,qs),
(446,672,o),
(558,598,o),
(620,452,o),
(620,350,qs),
(620,250,o),
(558,106,o),
(446,28,o),
(360,28,qs)
);
}
);
width = 720;
}
);
unicode = 79;
userData = {
KernOnName = O;
};
},
{
glyphname = Ohorn;
kernLeft = O;
kernRight = "O-horn";
lastChange = "2025-11-19 08:28:08 +0000";
layers = (
{
anchors = (
{
name = bottom;
pos = (360,0);
},
{
name = top;
pos = (360,700);
}
);
layerId = m003;
shapes = (
{
alignment = -1;
ref = O;
},
{
pos = (480,0);
ref = horncomb;
},
{
closed = 1;
nodes = (
(382,700,l),
(382,588,l),
(486,588,l),
(486,700,l)
);
}
);
width = 780;
},
{
anchors = (
{
name = bottom;
pos = (360,0);
},
{
name = top;
pos = (360,700);
}
);
layerId = m004;
shapes = (
{
alignment = -1;
ref = O;
},
{
pos = (532,0);
ref = horncomb;
},
{
closed = 1;
nodes = (
(412,700,l),
(412,634,l),
(546,634,l),
(546,700,l)
);
}
);
width = 780;
},
{
anchors = (
{
name = bottom;
pos = (360,0);
},
{
name = top;
pos = (360,700);
}
);
layerId = m007;
shapes = (
{
alignment = -1;
ref = O;
},
{
pos = (570,0);
ref = horncomb;
},
{
closed = 1;
nodes = (
(448,700,l),
(448,660,l),
(582,660,l),
(582,700,l)
);
}
);
width = 780;
}
);
metricLeft = O;
metricRight = T;
unicode = 416;
},
{
glyphname = Oslash;
kernLeft = O;
kernRight = O;
lastChange = "2025-11-19 08:28:25 +0000";
layers = (
{
anchors = (
{
name = top;
pos = (360,700);
}
);
layerId = m003;
shapes = (
{
closed = 1;
nodes = (
(193,0,l),
(679,700,l),
(527,700,l),
(41,0,l)
);
},
{
ref = O;
}
);
width = 720;
},
{
anchors = (
{
name = top;
pos = (360,700);
}
);
layerId = m004;
shapes = (
{
closed = 1;
nodes = (
(152,0,l),
(660,700,l),
(568,700,l),
(60,0,l)
);
},
{
ref = O;
}
);
width = 720;
},
{
anchors = (
{
name = top;
pos = (360,700);
}
);
layerId = m007;
shapes = (
{
closed = 1;
nodes = (
(110,0,l),
(660,700,l),
(610,700,l),
(60,0,l)
);
},
{
ref = O;
}
);
width = 720;
}
);
metricLeft = O;
metricRight = O;
unicode = 216;
},
{
glyphname = OE;
kernLeft = O;
kernRight = E;
lastChange = "2025-11-19 08:28:30 +0000";
layers = (
{
anchors = (
{
name = top;
pos = (520,700);
}
);
layerId = m003;
shapes = (
{
alignment = -1;
pos = (400,0);
ref = E;
},
{
closed = 1;
nodes = (
(646,700,l),
(400,700,ls),
(286,700,o),
(128,628,o),
(28,470,o),
(28,350,qs),
(28,230,o),
(128,72,o),
(286,0,o),
(400,0,qs),
(646,0,l),
(646,152,l),
(416,152,ls),
(344,152,o),
(268,190,o),
(224,276,o),
(224,350,qs),
(224,426,o),
(268,510,o),
(344,548,o),
(416,548,qs),
(646,548,l)
);
}
);
width = 1000;
},
{
anchors = (
{
name = top;
pos = (520,700);
}
);
layerId = m004;
shapes = (
{
alignment = -1;
pos = (400,0);
ref = E;
},
{
closed = 1;
nodes = (
(584,700,l),
(422,700,ls),
(288,700,o),
(138,620,o),
(52,464,o),
(52,350,qs),
(52,236,o),
(138,80,o),
(288,0,o),
(422,0,qs),
(584,0,l),
(584,92,l),
(426,92,ls),
(314,92,o),
(210,146,o),
(152,262,o),
(152,350,qs),
(152,440,o),
(210,554,o),
(314,608,o),
(426,608,qs),
(584,608,l)
);
}
);
width = 1000;
},
{
anchors = (
{
name = top;
pos = (520,700);
}
);
layerId = m007;
shapes = (
{
alignment = -1;
pos = (400,0);
ref = E;
},
{
closed = 1;
nodes = (
(538,700,l),
(428,700,ls),
(280,700,o),
(134,616,o),
(60,458,o),
(60,350,qs),
(60,242,o),
(134,84,o),
(280,0,o),
(428,0,qs),
(538,0,l),
(538,42,l),
(428,42,ls),
(290,42,o),
(168,110,o),
(100,254,o),
(100,350,qs),
(100,448,o),
(168,590,o),
(290,660,o),
(428,660,qs),
(538,660,l)
);
}
);
width = 1000;
}
);
metricLeft = O;
metricRight = E;
unicode = 338;
},
{
glyphname = P;
kernLeft = I;
kernRight = P;
lastChange = "2025-11-18 18:50:39 +0000";
layers = (
{
anchors = (
{
name = top;
pos = (320,700);
}
);
layerId = m003;
shapes = (
{
closed = 1;
nodes = (
(246,0,l),
(246,244,l),
(376,244,ls),
(456,244,o),
(568,290,o),
(640,396,o),
(640,472,qs),
(640,548,o),
(568,656,o),
(456,700,o),
(376,700,qs),
(52,700,l),
(52,0,l)
);
},
{
closed = 1;
nodes = (
(246,552,l),
(332,552,ls),
(380,552,o),
(422,538,o),
(446,502,o),
(446,472,qs),
(446,444,o),
(422,406,o),
(380,392,o),
(332,392,qs),
(246,392,l)
);
}
);
width = 660;
},
{
anchors = (
{
name = top;
pos = (320,700);
}
);
layerId = m004;
shapes = (
{
closed = 1;
nodes = (
(184,0,l),
(184,258,l),
(364,258,ls),
(444,258,o),
(554,306,o),
(620,408,o),
(620,480,qs),
(620,552,o),
(554,654,o),
(444,700,o),
(364,700,qs),
(84,700,l),
(84,0,l)
);
},
{
closed = 1;
nodes = (
(184,608,l),
(354,608,ls),
(412,608,o),
(480,584,o),
(520,524,o),
(520,480,qs),
(520,436,o),
(480,374,o),
(412,350,o),
(354,350,qs),
(184,350,l)
);
}
);
width = 660;
},
{
anchors = (
{
name = top;
pos = (320,700);
}
);
layerId = m007;
shapes = (
{
closed = 1;
nodes = (
(140,0,l),
(140,272,l),
(364,272,ls),
(439,272,o),
(546.572,320.857,o),
(610,418,o),
(610,486,qs),
(610,553,o),
(546.572,650.857,o),
(439,700,o),
(364,700,qs),
(100,700,l),
(100,0,l)
);
},
{
closed = 1;
nodes = (
(140,660,l),
(358,660,ls),
(426,660,o),
(516,622.857,o),
(570,542,o),
(570,486,qs),
(570,430,o),
(516,348.572,o),
(426,312,o),
(358,312,qs),
(140,312,l)
);
}
);
width = 660;
}
);
metricLeft = N;
unicode = 80;
},
{
glyphname = Thorn;
kernLeft = I;
kernRight = Phi;
lastChange = "2025-11-18 18:50:41 +0000";
layers = (
{
layerId = m003;
shapes = (
{
closed = 1;
nodes = (
(246,0,l),
(246,700,l),
(52,700,l),
(52,0,l)
);
},
{
closed = 1;
nodes = (
(82,122,l),
(376,122,ls),
(456,122,o),
(568,168,o),
(640,274,o),
(640,350,qs),
(640,426,o),
(568,534,o),
(456,578,o),
(376,578,qs),
(82,578,l)
);
},
{
closed = 1;
nodes = (
(242,430,l),
(330,430,ls),
(378,430,o),
(418,416,o),
(444,380,o),
(444,350,qs),
(444,322,o),
(418,284,o),
(378,270,o),
(330,270,qs),
(242,270,l)
);
}
);
width = 660;
},
{
layerId = m004;
shapes = (
{
closed = 1;
nodes = (
(184,0,l),
(184,700,l),
(84,700,l),
(84,0,l)
);
},
{
closed = 1;
nodes = (
(116,130,l),
(364,130,ls),
(444,130,o),
(554,176,o),
(620,278,o),
(620,350,qs),
(620,422,o),
(554,524,o),
(444,572,o),
(364,572,qs),
(116,572,l)
);
},
{
closed = 1;
nodes = (
(178,484,l),
(354,484,ls),
(412,484,o),
(480,454,o),
(520,394,o),
(520,350,qs),
(520,306,o),
(480,246,o),
(412,218,o),
(354,218,qs),
(178,218,l)
);
}
);
width = 660;
},
{
layerId = m007;
shapes = (
{
closed = 1;
nodes = (
(140,0,l),
(140,700,l),
(100,700,l),
(100,0,l)
);
},
{
closed = 1;
nodes = (
(116,136,l),
(364,136,ls),
(439,136,o),
(546.572,185.143,o),
(610,283,o),
(610,350,qs),
(610,418,o),
(546.572,515.143,o),
(439,564,o),
(364,564,qs),
(116,564,l)
);
},
{
closed = 1;
nodes = (
(140,524,l),
(358,524,ls),
(426,524,o),
(516,487.143,o),
(570,406,o),
(570,350,qs),
(570,294,o),
(516,212.857,o),
(426,176,o),
(358,176,qs),
(140,176,l)
);
}
);
width = 660;
}
);
metricLeft = N;
metricRight = P;
unicode = 222;
},
{
glyphname = Q;
kernLeft = O;
kernRight = Q;
lastChange = "2025-11-19 08:28:35 +0000";
layers = (
{
layerId = m003;
shapes = (
{
closed = 1;
nodes = (
(688,-150,l),
(559,70,l),
(395,8,l),
(485,-150,l)
);
},
{
ref = O;
}
);
width = 720;
},
{
layerId = m004;
shapes = (
{
closed = 1;
nodes = (
(650,-150,l),
(520,56,l),
(428,16,l),
(532,-150,l)
);
},
{
ref = O;
}
);
width = 720;
},
{
layerId = m007;
shapes = (
{
closed = 1;
nodes = (
(624,-150,l),
(500,42,l),
(460,24,l),
(570,-150,l)
);
},
{
ref = O;
}
);
width = 720;
}
);
metricLeft = O;
metricRight = O;
unicode = 81;
},
{
glyphname = Q.ss02;
kernLeft = O;
kernRight = Q;
lastChange = "2025-11-19 08:28:38 +0000";
layers = (
{
layerId = m003;
shapes = (
{
ref = O;
},
{
closed = 1;
nodes = (
(640,-7,l),
(545,-7,ls),
(531,-7,o),
(518,0,o),
(514,12,qs),
(493,87,l),
(293,87,l),
(347,-74,ls),
(359,-111,o),
(421,-150,o),
(481,-150,qs),
(640,-150,l)
);
}
);
width = 720;
},
{
layerId = m004;
shapes = (
{
ref = O;
},
{
closed = 1;
nodes = (
(640,-58,l),
(524,-58,ls),
(500,-58,o),
(476,-42,o),
(470,-22,qs),
(454,34,l),
(340,34,l),
(374,-78,ls),
(386,-114,o),
(442,-150,o),
(496,-150,qs),
(640,-150,l)
);
}
);
width = 720;
},
{
layerId = m007;
shapes = (
{
ref = O;
},
{
closed = 1;
nodes = (
(640,-110,l),
(518,-110,ls),
(480,-110,o),
(444,-82,o),
(438,-58,qs),
(418,10,l),
(372,10,l),
(398,-80,ls),
(408,-114,o),
(460,-150,o),
(510,-150,qs),
(640,-150,l)
);
}
);
width = 720;
}
);
metricLeft = O;
metricRight = O;
},
{
glyphname = R;
kernLeft = I;
kernRight = R;
lastChange = "2025-11-18 18:50:58 +0000";
layers = (
{
anchors = (
{
name = bottom;
pos = (340,0);
},
{
name = top;
pos = (340,700);
}
);
layerId = m003;
shapes = (
{
closed = 1;
nodes = (
(246,0,l),
(246,256,l),
(286,256,l),
(438,0,l),
(656,0,l),
(482,276,l),
(524,288,o),
(588,336,o),
(634,418,o),
(634,480,qs),
(634,546,o),
(572,648,o),
(456,700,o),
(370,700,qs),
(52,700,l),
(52,0,l)
);
},
{
closed = 1;
nodes = (
(246,556,l),
(338,556,ls),
(376,556,o),
(414,542,o),
(440,504,o),
(440,476,qs),
(440,448,o),
(414,410,o),
(376,398,o),
(338,398,qs),
(246,398,l)
);
}
);
width = 680;
},
{
anchors = (
{
name = bottom;
pos = (340,0);
},
{
name = top;
pos = (340,700);
}
);
layerId = m004;
shapes = (
{
closed = 1;
nodes = (
(184,0,l),
(184,282,l),
(324,282,l),
(514,0,l),
(632,0,l),
(434,290,l),
(486,294,o),
(562,342,o),
(612,430,o),
(612,492,qs),
(612,558,o),
(556,650,o),
(454,700,o),
(378,700,qs),
(84,700,l),
(84,0,l)
);
},
{
closed = 1;
nodes = (
(184,608,l),
(362,608,ls),
(414,608,o),
(474,584,o),
(512,532,o),
(512,492,qs),
(512,456,o),
(474,400,o),
(414,376,o),
(362,376,qs),
(184,376,l)
);
}
);
width = 680;
},
{
anchors = (
{
name = bottom;
pos = (340,0);
},
{
name = top;
pos = (340,700);
}
);
layerId = m007;
shapes = (
{
closed = 1;
nodes = (
(140,0,l),
(140,306,l),
(350,306,l),
(568,0,l),
(618,0,l),
(398,306,l),
(464,307,o),
(550,354,o),
(601,447,o),
(602,502,qs),
(601,566,o),
(548.286,653.143,o),
(457,700,o),
(384,700,qs),
(100,700,l),
(100,0,l)
);
},
{
closed = 1;
nodes = (
(140,660,l),
(380,660,ls),
(442,660,o),
(516,627.143,o),
(561,554,o),
(562,502,qs),
(561,457,o),
(516,377.714,o),
(442,346,o),
(380,346,qs),
(140,346,l)
);
}
);
width = 680;
}
);
metricLeft = N;
unicode = 82;
userData = {
KernOnName = R;
};
},
{
glyphname = R.ss01;
kernLeft = I;
kernRight = R;
lastChange = "2025-11-18 18:51:00 +0000";
layers = (
{
anchors = (
{
name = bottom;
pos = (340,0);
},
{
name = top;
pos = (340,700);
}
);
layerId = m003;
shapes = (
{
closed = 1;
nodes = (
(246,0,l),
(246,256,l),
(342,256,ls),
(376,256,o),
(406,226,o),
(406,192,qs),
(406,114,ls),
(406,76,o),
(414,34,o),
(434,8,o),
(448,0,q),
(656,0,l),
(638,20,o),
(614,48,o),
(598,86,o),
(598,118,qs),
(598,222,ls),
(598,260,o),
(564,308,o),
(534,320,q),
(558,330,o),
(602,364,o),
(634,428,o),
(634,486,qs),
(634,550,o),
(572,648,o),
(456,700,o),
(370,700,qs),
(52,700,l),
(52,0,l)
);
},
{
closed = 1;
nodes = (
(246,556,l),
(338,556,ls),
(376,556,o),
(414,542,o),
(440,504,o),
(440,476,qs),
(440,448,o),
(414,410,o),
(376,398,o),
(338,398,qs),
(246,398,l)
);
}
);
width = 680;
},
{
anchors = (
{
name = bottom;
pos = (340,0);
},
{
name = top;
pos = (340,700);
}
);
layerId = m004;
shapes = (
{
closed = 1;
nodes = (
(184,0,l),
(184,282,l),
(392,282,ls),
(436,282,o),
(472,246,o),
(472,202,qs),
(472,114,ls),
(472,76,o),
(482,34,o),
(504,8,o),
(516,0,q),
(632,0,l),
(614,14,o),
(584,48,o),
(572,86,o),
(572,114,qs),
(572,226,ls),
(572,268,o),
(538,318,o),
(514,326,q),
(538,338,o),
(580,378,o),
(612,440,o),
(612,492,qs),
(612,558,o),
(556,650,o),
(454,700,o),
(378,700,qs),
(84,700,l),
(84,0,l)
);
},
{
closed = 1;
nodes = (
(184,608,l),
(362,608,ls),
(414,608,o),
(474,582,o),
(512,532,o),
(512,492,qs),
(512,456,o),
(474,400,o),
(414,376,o),
(362,376,qs),
(184,376,l)
);
}
);
width = 680;
},
{
anchors = (
{
name = bottom;
pos = (340,0);
},
{
name = top;
pos = (340,700);
}
);
layerId = m007;
shapes = (
{
closed = 1;
nodes = (
(140,0,l),
(140,306,l),
(432,306,ls),
(476,306,o),
(512,268,o),
(512,224,qs),
(512,122,ls),
(512,82,o),
(528,36,o),
(546,8,o),
(558,0,q),
(618,0,l),
(598,14,o),
(568,44,o),
(552,86,o),
(552,122,qs),
(552,230,ls),
(552,276,o),
(520,324,o),
(494,330,q),
(520,340,o),
(570,384,o),
(602,452,o),
(602,502,qs),
(602,566,o),
(548,654,o),
(458,700,o),
(384,700,qs),
(100,700,l),
(100,0,l)
);
},
{
closed = 1;
nodes = (
(140,660,l),
(380,660,ls),
(442,660,o),
(516,628,o),
(562,554,o),
(562,502,qs),
(562,458,o),
(516,378,o),
(442,346,o),
(380,346,qs),
(140,346,l)
);
}
);
width = 680;
}
);
metricLeft = N;
metricRight = R;
userData = {
KernOnName = R;
};
},
{
glyphname = S;
kernLeft = S;
kernRight = S;
lastChange = "2025-11-18 18:50:27 +0000";
layers = (
{
anchors = (
{
name = bottom;
pos = (330,0);
},
{
name = top;
pos = (330,700);
}
);
guides = (
{
pos = (-8,480);
},
{
pos = (-8,220);
}
);
layerId = m003;
shapes = (
{
closed = 1;
nodes = (
(430,-12,o),
(550,32,o),
(628,136,o),
(628,216,qs),
(628,278,o),
(580,366,o),
(490,416,o),
(426,426,qs),
(308,444,ls),
(266,450,o),
(242,462,o),
(228,486,o),
(228,504,qs),
(228,522,o),
(248,550,o),
(290,564,o),
(326,564,qs),
(362,564,o),
(402,548,o),
(426,510,o),
(426,480,q),
(614,480,l),
(612,558,o),
(534,668,o),
(410,712,o),
(326,712,qs),
(236,712,o),
(106,656,o),
(36,556,o),
(36,484,qs),
(36,418,o),
(76,340,o),
(154,292,o),
(222,280,qs),
(360,258,ls),
(392,254,o),
(422,238,o),
(436,214,o),
(436,194,qs),
(436,174,o),
(412,148,o),
(372,136,o),
(330,136,qs),
(290,136,o),
(246,154,o),
(226,188,o),
(224,220,q),
(36,220,l),
(38,138,o),
(110,36,o),
(238,-12,o),
(334,-12,qs)
);
}
);
width = 660;
},
{
anchors = (
{
name = bottom;
pos = (330,0);
},
{
name = top;
pos = (330,700);
}
);
guides = (
{
pos = (-8,510);
},
{
pos = (-8,190);
}
);
layerId = m004;
shapes = (
{
closed = 1;
nodes = (
(414,-12,o),
(529.714,27.429,o),
(602,123,o),
(602,195,qs),
(602,253,o),
(550,336,o),
(448,382,o),
(380,394,qs),
(287,410,ls),
(240,418,o),
(192,442,o),
(165,483,o),
(165,516,qs),
(165,552,o),
(208,602,o),
(278,624,o),
(330,624,qs),
(380,624,o),
(448,600,o),
(490,548,o),
(492,510,q),
(588,510,l),
(586,578,o),
(517.714,668.571,o),
(405,712,o),
(330,712,qs),
(250,712,o),
(136,668,o),
(65,571,o),
(65,507,qs),
(65,445,o),
(110,374,o),
(198,328,o),
(264,316,qs),
(356,300,ls),
(408,290,o),
(472,264,o),
(502,221,o),
(502,186,qs),
(502,145,o),
(460.857,94.857,o),
(390,76,o),
(334,76,qs),
(276,76,o),
(202,96,o),
(158,144,o),
(156,190,q),
(58,190,l),
(60,112,o),
(134.857,25.714,o),
(251,-12,o),
(333,-12,qs)
);
}
);
width = 660;
},
{
anchors = (
{
name = bottom;
pos = (330,0);
},
{
name = top;
pos = (330,700);
}
);
guides = (
{
pos = (-8,520);
},
{
pos = (-8,180);
}
);
layerId = m007;
shapes = (
{
closed = 1;
nodes = (
(410,-12,o),
(519.428,24.857,o),
(586,112,o),
(586,180,qs),
(586,236,o),
(542,308,o),
(464,350,o),
(378,366,qs),
(294,380,ls),
(222,392,o),
(156,424,o),
(122,479,o),
(122,524,qs),
(122,572,o),
(176,642,o),
(270,672,o),
(330,672,qs),
(390,672,o),
(480,642,o),
(532,570,o),
(534,520,q),
(574,520,l),
(572,582,o),
(507.428,671.143,o),
(400,712,o),
(330,712,qs),
(258,712,o),
(147.143,670,o),
(82,584,o),
(82,524,qs),
(82,466,o),
(124,396,o),
(198,358,o),
(282,342,qs),
(370,326,ls),
(446,312,o),
(510,280,o),
(546,225,o),
(546,180,qs),
(546,123,o),
(492,56,o),
(400,28,o),
(336,28,qs),
(272,28,o),
(178,54,o),
(118,120,o),
(116,180,q),
(76,180,l),
(78,108,o),
(148,24,o),
(261,-12,o),
(336,-12,qs)
);
}
);
width = 660;
}
);
unicode = 83;
userData = {
KernOnName = S;
};
},
{
glyphname = Germandbls;
kernLeft = I;
kernRight = S;
lastChange = "2025-11-18 18:50:35 +0000";
layers = (
{
layerId = m003;
shapes = (
{
closed = 1;
nodes = (
(530,0,o),
(614,42,o),
(660,122,o),
(660,180,qs),
(660,234,o),
(610,316,o),
(560,346,qs),
(510,376,ls),
(494,384,o),
(480,404,o),
(480,422,qs),
(480,438,o),
(496,466,o),
(514,484,qs),
(614,590,l),
(614,700,l),
(52,700,l),
(52,0,l),
(246,0,l),
(246,558,l),
(388,558,l),
(346,512,ls),
(320,482,o),
(294,420,o),
(294,384,qs),
(294,340,o),
(330,276,o),
(366,256,qs),
(426,220,ls),
(448,208,o),
(462,188,o),
(462,176,qs),
(462,162,o),
(450,148,o),
(432,142,o),
(414,142,qs),
(296,142,l),
(296,0,l),
(450,0,ls)
);
}
);
width = 680;
},
{
layerId = m004;
shapes = (
{
closed = 1;
nodes = (
(524,0,o),
(600,38,o),
(640,110,o),
(640,160,qs),
(640,218,o),
(586,298,o),
(528,332,qs),
(478,362,ls),
(452,376,o),
(430,408,o),
(430,430,qs),
(430,454,o),
(456,494,o),
(470,510,qs),
(590,634,l),
(590,700,l),
(84,700,l),
(84,0,l),
(184,0,l),
(184,608,l),
(446,608,l),
(374,532,ls),
(348,506,o),
(324,446,o),
(324,412,qs),
(324,376,o),
(368,308,o),
(410,282,qs),
(470,246,ls),
(506,224,o),
(540,180,o),
(540,156,qs),
(540,132,o),
(516,102,o),
(474,92,o),
(442,92,qs),
(310,92,l),
(310,0,l),
(448,0,ls)
);
}
);
width = 680;
},
{
layerId = m007;
shapes = (
{
closed = 1;
nodes = (
(501,0,o),
(584,30,o),
(630,99,o),
(630,154,qs),
(630,211,o),
(569,286,o),
(506,314,qs),
(460,336,ls),
(421,351,o),
(390,392,o),
(390,420,qs),
(390,452,o),
(426,510,o),
(446,534,qs),
(574,678,l),
(574,700,l),
(100,700,l),
(100,0,l),
(140,0,l),
(140,660,l),
(508,660,l),
(408,550,ls),
(382,520,o),
(350,457,o),
(350,420,qs),
(350,384,o),
(390,322,o),
(436,302,qs),
(484,280,ls),
(544,256,o),
(590,198,o),
(590,154,qs),
(590,110,o),
(550,60,o),
(484,40,o),
(438,40,qs),
(320,40,l),
(320,0,l),
(440,0,ls)
);
}
);
width = 680;
}
);
metricLeft = N;
metricRight = P;
unicode = 7838;
},
{
glyphname = T;
kernLeft = T;
kernRight = T;
lastChange = "2025-11-21 13:02:32 +0000";
layers = (
{
anchors = (
{
name = bottom;
pos = (330,0);
},
{
name = top;
pos = (330,700);
}
);
layerId = m003;
shapes = (
{
closed = 1;
nodes = (
(426,0,l),
(426,540,l),
(648,540,l),
(648,700,l),
(12,700,l),
(12,540,l),
(234,540,l),
(234,0,l)
);
}
);
width = 660;
},
{
anchors = (
{
name = bottom;
pos = (330,0);
},
{
name = top;
pos = (330,700);
}
);
layerId = m004;
shapes = (
{
closed = 1;
nodes = (
(380,0,l),
(380,608,l),
(630,608,l),
(630,700,l),
(30,700,l),
(30,608,l),
(280,608,l),
(280,0,l)
);
}
);
width = 660;
},
{
anchors = (
{
name = bottom;
pos = (330,0);
},
{
name = top;
pos = (330,700);
}
);
layerId = m007;
shapes = (
{
closed = 1;
nodes = (
(350,0,l),
(350,660,l),
(624,660,l),
(624,700,l),
(36,700,l),
(36,660,l),
(310,660,l),
(310,0,l)
);
}
);
width = 660;
}
);
unicode = 84;
userData = {
KernOnName = T;
};
},
{
glyphname = U;
kernLeft = U;
kernRight = U;
lastChange = "2025-11-18 18:46:48 +0000";
layers = (
{
anchors = (
{
name = bottom;
pos = (360,0);
},
{
name = ogonek;
pos = (327,0);
},
{
name = top;
pos = (360,700);
}
);
layerId = m003;
shapes = (
{
closed = 1;
nodes = (
(450,-12,o),
(584,40,o),
(672,170,o),
(672,284,qs),
(672,700,l),
(480,700,l),
(480,298,ls),
(480,230,o),
(448,174,o),
(400,148,o),
(360,148,qs),
(322,148,o),
(274,174,o),
(242,230,o),
(242,298,qs),
(242,700,l),
(48,700,l),
(48,284,ls),
(48,170,o),
(138,40,o),
(272,-12,o),
(360,-12,qs)
);
}
);
width = 720;
},
{
anchors = (
{
name = bottom;
pos = (360,0);
},
{
name = ogonek;
pos = (370,0);
},
{
name = top;
pos = (360,700);
}
);
layerId = m004;
shapes = (
{
closed = 1;
nodes = (
(446,-12,o),
(568,44,o),
(642,166,o),
(642,268,qs),
(642,700,l),
(542,700,l),
(542,270,ls),
(542,200,o),
(500,120,o),
(422,80,o),
(360,80,qs),
(298,80,o),
(222,120,o),
(178,200,o),
(178,270,qs),
(178,700,l),
(78,700,l),
(78,268,ls),
(78,166,o),
(152,44,o),
(274,-12,o),
(360,-12,qs)
);
}
);
width = 720;
},
{
anchors = (
{
name = bottom;
pos = (360,0);
},
{
name = ogonek;
pos = (400,0);
},
{
name = top;
pos = (360,700);
}
);
layerId = m007;
shapes = (
{
closed = 1;
nodes = (
(451,-12,o),
(565.143,48.572,o),
(629,165,o),
(630,254,qs),
(630,700,l),
(590,700,l),
(590,258,ls),
(590,180,o),
(538,80,o),
(440,28,o),
(360,28,qs),
(280,28,o),
(184,80,o),
(132,180,o),
(132,258,qs),
(132,700,l),
(92,700,l),
(92,254,ls),
(92,165,o),
(156.572,48.572,o),
(270,-12,o),
(360,-12,qs)
);
}
);
width = 720;
}
);
unicode = 85;
},
{
glyphname = V;
kernLeft = V;
kernRight = V;
lastChange = "2025-11-18 20:44:33 +0000";
layers = (
{
anchors = (
{
name = bottom;
pos = (350,0);
},
{
name = top;
pos = (350,700);
}
);
layerId = m003;
shapes = (
{
closed = 1;
nodes = (
(476,0,l),
(688,700,l),
(498,700,l),
(354,188,l),
(210,700,l),
(12,700,l),
(224,0,l)
);
}
);
width = 700;
},
{
anchors = (
{
name = bottom;
pos = (350,0);
},
{
name = top;
pos = (350,700);
}
);
layerId = m004;
shapes = (
{
closed = 1;
nodes = (
(418,0,l),
(670,700,l),
(566,700,l),
(352,102,l),
(140,700,l),
(30,700,l),
(284,0,l)
);
}
);
width = 700;
},
{
anchors = (
{
name = bottom;
pos = (350,0);
},
{
name = top;
pos = (350,700);
}
);
layerId = m007;
shapes = (
{
closed = 1;
nodes = (
(378,0,l),
(664,700,l),
(618,700,l),
(352,46,l),
(82,700,l),
(36,700,l),
(326,0,l)
);
}
);
width = 700;
}
);
metricLeft = X;
metricRight = X;
unicode = 86;
userData = {
KernOnName = V;
};
},
{
glyphname = W;
kernLeft = W;
kernRight = W;
lastChange = "2025-11-18 18:42:50 +0000";
layers = (
{
anchors = (
{
name = bottom;
pos = (500,0);
},
{
name = top;
pos = (500,700);
}
);
layerId = m003;
shapes = (
{
closed = 1;
nodes = (
(416,0,l),
(500,414,l),
(584,0,l),
(828,0,l),
(988,700,l),
(812,700,l),
(706,208,l),
(600,700,l),
(400,700,l),
(308,208,l),
(204,700,l),
(12,700,l),
(172,0,l)
);
}
);
width = 1000;
},
{
anchors = (
{
name = bottom;
pos = (500,0);
},
{
name = top;
pos = (500,700);
}
);
layerId = m004;
shapes = (
{
closed = 1;
nodes = (
(354,0,l),
(500,538,l),
(644,0,l),
(778,0,l),
(970,700,l),
(872,700,l),
(714,102,l),
(556,700,l),
(452,700,l),
(296,102,l),
(136,700,l),
(30,700,l),
(222,0,l)
);
}
);
width = 1000;
},
{
anchors = (
{
name = bottom;
pos = (500,0);
},
{
name = top;
pos = (500,700);
}
);
layerId = m007;
shapes = (
{
closed = 1;
nodes = (
(304,0,l),
(500,640,l),
(696,0,l),
(748,0,l),
(964,700,l),
(918,700,l),
(722,60,l),
(526,700,l),
(474,700,l),
(278,60,l),
(82,700,l),
(36,700,l),
(252,0,l)
);
}
);
width = 1000;
}
);
metricLeft = X;
metricRight = X;
unicode = 87;
},
{
glyphname = X;
kernLeft = X;
kernRight = X;
lastChange = "2025-11-19 19:44:12 +0000";
layers = (
{
anchors = (
{
name = bottom;
pos = (340,0);
},
{
name = top;
pos = (340,700);
}
);
layerId = m003;
shapes = (
{
closed = 1;
nodes = (
(220,0,l),
(340,206,l),
(468,0,l),
(688,0,l),
(478,354,l),
(680,700,l),
(472,700,l),
(352,494,l),
(236,700,l),
(16,700,l),
(222,342,l),
(12,0,l)
);
}
);
width = 700;
},
{
anchors = (
{
name = bottom;
pos = (340,0);
},
{
name = top;
pos = (340,700);
}
);
layerId = m004;
shapes = (
{
closed = 1;
nodes = (
(144,0,l),
(348,282,l),
(550,0,l),
(670,0,l),
(418,352,l),
(660,700,l),
(546,700,l),
(350,418,l),
(158,700,l),
(38,700,l),
(282,346,l),
(30,0,l)
);
}
);
width = 700;
},
{
anchors = (
{
name = bottom;
pos = (340,0);
},
{
name = top;
pos = (340,700);
}
);
layerId = m007;
shapes = (
{
closed = 1;
nodes = (
(86,0,l),
(350,320,l),
(614,0,l),
(664,0,l),
(378,350,l),
(650,700,l),
(600,700,l),
(350,380,l),
(100,700,l),
(50,700,l),
(322,350,l),
(36,0,l)
);
}
);
width = 700;
}
);
unicode = 88;
userData = {
KernOnName = X;
};
},
{
glyphname = Y;
kernLeft = Y;
kernRight = Y;
lastChange = "2025-11-18 18:44:03 +0000";
layers = (
{
anchors = (
{
name = bottom;
pos = (340,0);
},
{
name = top;
pos = (340,700);
}
);
layerId = m003;
shapes = (
{
closed = 1;
nodes = (
(438,0,l),
(438,276,l),
(668,700,l),
(472,700,l),
(350,460,l),
(230,700,l),
(12,700,l),
(242,276,l),
(242,0,l)
);
}
);
width = 680;
},
{
anchors = (
{
name = bottom;
pos = (340,0);
},
{
name = top;
pos = (340,700);
}
);
layerId = m004;
shapes = (
{
closed = 1;
nodes = (
(390,0,l),
(390,280,l),
(650,700,l),
(538,700,l),
(344,376,l),
(146,700,l),
(30,700,l),
(290,280,l),
(290,0,l)
);
}
);
width = 680;
},
{
anchors = (
{
name = bottom;
pos = (340,0);
},
{
name = top;
pos = (340,700);
}
);
layerId = m007;
shapes = (
{
closed = 1;
nodes = (
(360,0,l),
(360,272,l),
(644,700,l),
(596,700,l),
(340,312,l),
(84,700,l),
(36,700,l),
(320,272,l),
(320,0,l)
);
}
);
width = 680;
}
);
metricLeft = X;
metricRight = X;
unicode = 89;
},
{
glyphname = Z;
kernLeft = Sigma;
kernRight = Sigma;
lastChange = "2025-11-18 18:44:12 +0000";
layers = (
{
anchors = (
{
name = bottom;
pos = (320,0);
},
{
name = top;
pos = (320,700);
}
);
layerId = m003;
shapes = (
{
closed = 1;
nodes = (
(614,0,l),
(614,160,l),
(274,160,l),
(614,576,l),
(614,700,l),
(28,700,l),
(28,542,l),
(368,542,l),
(28,126,l),
(28,0,l)
);
}
);
width = 640;
},
{
anchors = (
{
name = bottom;
pos = (320,0);
},
{
name = top;
pos = (320,700);
}
);
layerId = m004;
shapes = (
{
closed = 1;
nodes = (
(592,0,l),
(592,92,l),
(176,92,l),
(588,620,l),
(588,700,l),
(54,700,l),
(54,608,l),
(462,608,l),
(50,80,l),
(50,0,l)
);
}
);
width = 640;
},
{
anchors = (
{
name = bottom;
pos = (320,0);
},
{
name = top;
pos = (320,700);
}
);
layerId = m007;
shapes = (
{
closed = 1;
nodes = (
(584,0,l),
(584,40,l),
(110,40,l),
(574,664,l),
(574,700,l),
(66,700,l),
(66,660,l),
(522,660,l),
(58,34,l),
(58,0,l)
);
}
);
width = 640;
}
);
metricLeft = Sigma;
metricRight = Sigma;
unicode = 90;
},
{
glyphname = Saltillo;
kernLeft = I;
kernRight = I;
lastChange = "2025-11-18 18:45:20 +0000";
layers = (
{
layerId = m003;
shapes = (
{
closed = 1;
nodes = (
(238,240,l),
(238,580,l),
(238,700,l),
(44,700,l),
(44,580,l),
(44,240,l)
);
}
);
width = 280;
},
{
layerId = m004;
shapes = (
{
closed = 1;
nodes = (
(190,240,l),
(190,580,l),
(190,700,l),
(90,700,l),
(90,580,l),
(90,240,l)
);
}
);
width = 280;
},
{
layerId = m007;
shapes = (
{
closed = 1;
nodes = (
(160,240,l),
(160,580,l),
(160,700,l),
(120,700,l),
(120,580,l),
(120,240,l)
);
}
);
width = 280;
}
);
unicode = 42891;
},
{
glyphname = a;
kernLeft = a;
kernRight = a;
lastChange = "2025-11-19 07:13:44 +0000";
layers = (
{
anchors = (
{
name = bottom;
pos = (260,0);
},
{
name = ogonek;
pos = (357,0);
},
{
name = top;
pos = (260,500);
}
);
layerId = m003;
shapes = (
{
closed = 1;
nodes = (
(336,200,l),
(336,0,l),
(490,0,l),
(490,200,l)
);
},
{
pos = (-14,0);
ref = "a-part";
}
);
width = 520;
},
{
anchors = (
{
name = bottom;
pos = (260,0);
},
{
name = ogonek;
pos = (366,0);
},
{
name = top;
pos = (260,500);
}
);
layerId = m004;
shapes = (
{
closed = 1;
nodes = (
(368,200,l),
(368,0,l),
(458,0,l),
(458,200,l)
);
},
{
ref = "a-part";
}
);
width = 520;
},
{
anchors = (
{
name = bottom;
pos = (260,0);
},
{
name = ogonek;
pos = (400,0);
},
{
name = top;
pos = (260,500);
}
);
layerId = m007;
shapes = (
{
closed = 1;
nodes = (
(400,200,l),
(400,0,l),
(440,0,l),
(440,200,l)
);
},
{
ref = "a-part";
}
);
width = 520;
}
);
metricRight = upsilon;
unicode = 97;
userData = {
KernOnName = a;
};
},
{
glyphname = a.cv01;
kernLeft = o;
kernRight = n;
lastChange = "2025-11-19 07:47:42 +0000";
layers = (
{
anchors = (
{
name = bottom;
pos = (280,0);
},
{
name = ogonek;
pos = (388,0);
},
{
name = top;
pos = (280,500);
}
);
layerId = m003;
shapes = (
{
closed = 1;
nodes = (
(336,0,l),
(520,0,l),
(520,500,l),
(336,500,l)
);
},
{
pos = (434,0);
ref = "puzo-b";
scale = (-1,1);
}
);
width = 560;
},
{
anchors = (
{
name = bottom;
pos = (280,0);
},
{
name = ogonek;
pos = (398,0);
},
{
name = top;
pos = (280,500);
}
);
layerId = m004;
shapes = (
{
closed = 1;
nodes = (
(394,0,l),
(490,0,l),
(490,500,l),
(394,500,l)
);
},
{
pos = (478,0);
ref = "puzo-b";
scale = (-1,1);
}
);
width = 560;
},
{
anchors = (
{
name = bottom;
pos = (280,0);
},
{
name = ogonek;
pos = (434,0);
},
{
name = top;
pos = (280,500);
}
);
layerId = m007;
shapes = (
{
closed = 1;
nodes = (
(434,0,l),
(474,0,l),
(474,500,l),
(434,500,l)
);
},
{
pos = (498,0);
ref = "puzo-b";
scale = (-1,1);
}
);
width = 560;
}
);
metricLeft = o;
metricRight = u;
},
{
glyphname = ae;
kernLeft = a;
kernRight = o;
lastChange = "2025-11-18 19:10:14 +0000";
layers = (
{
anchors = (
{
name = bottom;
pos = (410,0);
},
{
name = ogonek;
pos = (519,0);
},
{
name = top;
pos = (410,500);
}
);
guides = (
{
pos = (-8,170);
},
{
pos = (-8,330);
}
);
layerId = m003;
shapes = (
{
closed = 1;
nodes = (
(246,-12,o),
(320,16,o),
(372,72,o),
(380,140,q),
(474,140,l),
(474,308,ls),
(474,384,o),
(424,470,o),
(330,512,o),
(260,512,qs),
(190,512,o),
(88,462,o),
(38,376,o),
(38,330,q),
(198,330,l),
(200,348,o),
(214,372,o),
(236,384,o),
(256,384,qs),
(274,384,o),
(298,372,o),
(310,348,o),
(310,320,qs),
(310,196,ls),
(310,170,o),
(292,134,o),
(262,118,o),
(238,118,qs),
(218,118,o),
(200,126,o),
(190,142,o),
(190,156,qs),
(190,170,o),
(204,186,o),
(228,194,o),
(262,194,qs),
(366,194,l),
(366,306,l),
(244,306,ls),
(174,306,o),
(78,274,o),
(22,200,o),
(22,142,qs),
(22,90,o),
(66,20,o),
(144,-12,o),
(196,-12,qs)
);
},
{
closed = 1;
nodes = (
(636,-12,o),
(734,38,o),
(792,126,o),
(796,170,q),
(628,170,l),
(626,154,o),
(612,130,o),
(586,118,o),
(562,118,qs),
(536,118,o),
(500,142,o),
(482,190,o),
(482,242,qs),
(482,262,ls),
(482,314,o),
(496,358,o),
(530,386,o),
(558,386,qs),
(582,386,o),
(610,366,o),
(626,332,o),
(626,306,q),
(410,306,l),
(410,194,l),
(798,194,l),
(798,252,ls),
(798,334,o),
(744,444,o),
(638,512,o),
(556,512,qs),
(476,512,o),
(364,444,o),
(306,332,o),
(306,250,qs),
(306,170,o),
(366,52,o),
(478,-12,o),
(562,-12,qs)
);
}
);
width = 820;
},
{
anchors = (
{
name = bottom;
pos = (410,0);
},
{
name = ogonek;
pos = (561,0);
},
{
name = top;
pos = (410,500);
}
);
guides = (
{
pos = (-8,150);
},
{
pos = (-8,350);
}
);
layerId = m004;
shapes = (
{
closed = 1;
nodes = (
(272,-12,o),
(348,26,o),
(394,90,o),
(404,138,q),
(438,138,l),
(438,316,ls),
(438,390,o),
(392,472,o),
(314,512,o),
(252,512,qs),
(194,512,o),
(108,472,o),
(62,396,o),
(62,350,q),
(158,350,l),
(158,374,o),
(180,410,o),
(218,428,o),
(254,428,qs),
(288,428,o),
(326,410,o),
(352,372,o),
(352,328,qs),
(352,210,ls),
(352,166,o),
(316,100,o),
(260,72,o),
(224,72,qs),
(192,72,o),
(154,84,o),
(132,114,o),
(132,136,qs),
(132,166,o),
(164,198,o),
(216,210,o),
(294,210,qs),
(374,210,l),
(374,290,l),
(282,290,ls),
(186,290,o),
(92,258,o),
(40,190,o),
(40,130,qs),
(40,86,o),
(86,20,o),
(162,-12,o),
(212,-12,qs)
);
},
{
closed = 1;
nodes = (
(632,-12,o),
(716,32,o),
(766,114,o),
(768,150,q),
(674,150,l),
(670,126,o),
(642,90,o),
(604,72,o),
(564,72,qs),
(522,72,o),
(470,112,o),
(444,180,o),
(444,242,qs),
(444,258,ls),
(444,324,o),
(472,392,o),
(522,428,o),
(564,428,qs),
(602,428,o),
(652,402,o),
(684,342,o),
(684,290,q),
(406,290,l),
(406,210,l),
(776,210,l),
(776,256,ls),
(776,344,o),
(728,452,o),
(634,512,o),
(562,512,qs),
(494,512,o),
(394,446,o),
(352,336,o),
(352,250,qs),
(352,166,o),
(396,52,o),
(494,-12,o),
(566,-12,qs)
);
}
);
width = 820;
},
{
anchors = (
{
name = bottom;
pos = (410,0);
},
{
name = ogonek;
pos = (590,0);
},
{
name = top;
pos = (410,500);
}
);
guides = (
{
pos = (-8,360);
},
{
pos = (-8,140);
}
);
layerId = m007;
shapes = (
{
closed = 1;
nodes = (
(266,-12,o),
(342,24,o),
(394,92,o),
(402,142,q),
(414,142,l),
(414,334,ls),
(414,400,o),
(372,474,o),
(298,512,o),
(246,512,qs),
(194,512,o),
(116,476,o),
(72,404,o),
(72,360,q),
(112,360,l),
(112,396,o),
(146,450,o),
(202,472,o),
(246,472,qs),
(288,472,o),
(342,446,o),
(378,392,o),
(378,336,qs),
(378,218,ls),
(378,164,o),
(332,66,o),
(260,28,o),
(214,28,qs),
(174,28,o),
(120,50,o),
(90,94,o),
(90,124,qs),
(90,170,o),
(132,214,o),
(204,230,o),
(290,230,qs),
(390,230,l),
(390,270,l),
(288,270,ls),
(192,270,o),
(100,244,o),
(50,180,o),
(50,124,qs),
(50,82,o),
(90,22,o),
(162,-12,o),
(210,-12,qs)
);
},
{
closed = 1;
nodes = (
(634,-12,o),
(708,26,o),
(754,102,o),
(758,140,q),
(716,140,l),
(712,110,o),
(678,56,o),
(622,28,o),
(572,28,qs),
(522,28,o),
(448,78,o),
(416,168,o),
(416,244,qs),
(416,258,ls),
(416,334,o),
(450,424,o),
(524,472,o),
(572,472,qs),
(624,472,o),
(686,428,o),
(724,342,o),
(724,270,q),
(400,270,l),
(400,230,l),
(764,230,l),
(764,256,ls),
(764,346,o),
(720,454,o),
(636,512,o),
(572,512,qs),
(510,512,o),
(416,448,o),
(378,342,o),
(378,250,qs),
(378,160,o),
(416,50,o),
(510,-12,o),
(572,-12,qs)
);
}
);
width = 820;
}
);
metricLeft = a;
metricRight = o;
unicode = 230;
},
{
glyphname = b;
kernLeft = I;
kernRight = o;
lastChange = "2025-11-18 19:05:44 +0000";
layers = (
{
anchors = (
{
name = bottom;
pos = (280,0);
},
{
name = top;
pos = (127,700);
}
);
layerId = m003;
shapes = (
{
closed = 1;
nodes = (
(224,700,l),
(40,700,l),
(40,0,l),
(224,0,l)
);
},
{
pos = (126,0);
ref = "puzo-b";
}
);
width = 560;
},
{
anchors = (
{
name = bottom;
pos = (280,0);
},
{
name = top;
pos = (112,700);
}
);
layerId = m004;
shapes = (
{
closed = 1;
nodes = (
(166,700,l),
(70,700,l),
(70,0,l),
(166,0,l)
);
},
{
pos = (82,0);
ref = "puzo-b";
}
);
width = 560;
},
{
anchors = (
{
name = bottom;
pos = (280,0);
},
{
name = top;
pos = (102,700);
}
);
layerId = m007;
shapes = (
{
closed = 1;
nodes = (
(126,700,l),
(86,700,l),
(86,0,l),
(126,0,l)
);
},
{
pos = (62,0);
ref = "puzo-b";
}
);
width = 560;
}
);
metricLeft = n;
metricRight = o;
unicode = 98;
},
{
glyphname = c;
kernLeft = o;
kernRight = c;
lastChange = "2025-11-18 20:34:22 +0000";
layers = (
{
anchors = (
{
name = bottom;
pos = (270,0);
},
{
name = top;
pos = (270,500);
}
);
guides = (
{
pos = (-8,330);
},
{
pos = (-8,170);
}
);
layerId = m003;
shapes = (
{
closed = 1;
nodes = (
(344,-12,o),
(436,40,o),
(482,120,o),
(484,170,q),
(314,170,l),
(314,158,o),
(302,136,o),
(284,128,o),
(268,128,qs),
(248,128,o),
(220,152,o),
(204,210,o),
(204,252,qs),
(204,294,o),
(220,348,o),
(248,372,o),
(268,372,qs),
(284,372,o),
(302,364,o),
(314,342,o),
(314,330,q),
(484,330,l),
(482,378,o),
(436,460,o),
(344,512,o),
(268,512,qs),
(190,512,o),
(82,450,o),
(22,336,o),
(22,252,qs),
(22,168,o),
(82,50,o),
(190,-12,o),
(268,-12,qs)
);
}
);
width = 500;
},
{
anchors = (
{
name = bottom;
pos = (270,0);
},
{
name = top;
pos = (270,500);
}
);
guides = (
{
pos = (-8,350);
},
{
pos = (-8,150);
}
);
layerId = m004;
shapes = (
{
closed = 1;
nodes = (
(336,-12,o),
(420,32,o),
(466,106,o),
(468,150,q),
(376,150,l),
(374,130,o),
(350,96,o),
(308,76,o),
(272,76,qs),
(232,76,o),
(174,114,o),
(140,190,o),
(140,250,qs),
(140,312,o),
(174,386,o),
(232,424,o),
(272,424,qs),
(308,424,o),
(350,404,o),
(374,370,o),
(376,350,q),
(468,350,l),
(466,394,o),
(420,468,o),
(336,512,o),
(272,512,qs),
(204,512,o),
(98,444,o),
(44,328,o),
(44,250,qs),
(44,172,o),
(98,56,o),
(204,-12,o),
(272,-12,qs)
);
}
);
width = 500;
},
{
anchors = (
{
name = bottom;
pos = (270,0);
},
{
name = top;
pos = (270,500);
}
);
guides = (
{
pos = (-8,360);
},
{
pos = (-8,140);
}
);
layerId = m007;
shapes = (
{
closed = 1;
nodes = (
(334,-12,o),
(412,28,o),
(458,104,o),
(460,140,q),
(420,140,l),
(418,116,o),
(382,56,o),
(322,28,o),
(272,28,qs),
(222,28,o),
(146,76,o),
(96,176,o),
(96,250,qs),
(96,326,o),
(146,424,o),
(222,472,o),
(272,472,qs),
(322,472,o),
(382,444,o),
(418,384,o),
(420,360,q),
(460,360,l),
(458,396,o),
(412,472,o),
(334,512,o),
(272,512,qs),
(210,512,o),
(110,448,o),
(56,334,o),
(56,250,qs),
(56,166,o),
(110,52,o),
(210,-12,o),
(272,-12,qs)
);
}
);
width = 500;
}
);
metricLeft = o;
unicode = 99;
userData = {
KernOnName = c;
};
},
{
glyphname = eth;
kernLeft = delta;
kernRight = delta;
lastChange = "2025-11-18 19:08:41 +0000";
layers = (
{
layerId = m003;
shapes = (
{
closed = 1;
nodes = (
(264,510,l),
(478,750,l),
(358,750,l),
(146,510,l)
);
},
{
ref = partialdiff;
}
);
width = 560;
},
{
layerId = m004;
shapes = (
{
closed = 1;
nodes = (
(256,540,l),
(454,750,l),
(358,750,l),
(158,540,l)
);
},
{
ref = partialdiff;
}
);
width = 560;
},
{
layerId = m007;
shapes = (
{
closed = 1;
nodes = (
(232,540,l),
(430,750,l),
(378,750,l),
(180,540,l)
);
},
{
ref = partialdiff;
}
);
width = 560;
}
);
metricLeft = o;
metricRight = upsilon;
unicode = 240;
},
{
glyphname = e;
kernLeft = o;
kernRight = o;
lastChange = "2025-11-21 12:56:04 +0000";
layers = (
{
anchors = (
{
name = bottom;
pos = (276,0);
},
{
name = ogonek;
pos = (239,0);
},
{
name = top;
pos = (276,500);
}
);
guides = (
{
pos = (-8,170);
}
);
layerId = m003;
shapes = (
{
closed = 1;
nodes = (
(356,-12,o),
(454,38,o),
(512,126,o),
(516,170,q),
(348,170,l),
(346,154,o),
(330,130,o),
(306,118,o),
(282,118,qs),
(256,118,o),
(220,142,o),
(196,190,o),
(196,242,qs),
(196,262,ls),
(196,314,o),
(216,358,o),
(250,386,o),
(278,386,qs),
(302,386,o),
(330,366,o),
(346,332,o),
(346,306,q),
(130,306,l),
(130,194,l),
(518,194,l),
(518,252,ls),
(518,332,o),
(464,446,o),
(358,512,o),
(276,512,qs),
(196,512,o),
(84,446,o),
(22,332,o),
(22,250,qs),
(22,170,o),
(84,52,o),
(198,-12,o),
(282,-12,qs)
);
}
);
width = 540;
},
{
anchors = (
{
name = bottom;
pos = (276,0);
},
{
name = ogonek;
pos = (272,0);
},
{
name = top;
pos = (276,500);
}
);
guides = (
{
pos = (-8,150);
}
);
layerId = m004;
shapes = (
{
closed = 1;
nodes = (
(344,-12,o),
(434,32,o),
(488,114,o),
(490,150,q),
(396,150,l),
(392,130,o),
(364,92,o),
(316,72,o),
(278,72,qs),
(234,72,o),
(170,110,o),
(140,180,o),
(140,242,qs),
(140,258,ls),
(140,324,o),
(174,392,o),
(232,428,o),
(278,428,qs),
(316,428,o),
(372,396,o),
(402,336,o),
(402,290,q),
(104,290,l),
(104,210,l),
(496,210,l),
(496,256,ls),
(496,338,o),
(446,448,o),
(348,512,o),
(276,512,qs),
(202,512,o),
(102,448,o),
(44,336,o),
(44,250,qs),
(44,166,o),
(102,52,o),
(206,-12,o),
(280,-12,qs)
);
}
);
width = 540;
},
{
anchors = (
{
name = bottom;
pos = (276,0);
},
{
name = ogonek;
pos = (306,0);
},
{
name = top;
pos = (276,500);
}
);
guides = (
{
pos = (-8,140);
}
);
layerId = m007;
shapes = (
{
closed = 1;
nodes = (
(336,-12,o),
(420,28,o),
(472,104,o),
(476,140,q),
(436,140,l),
(432,112,o),
(388,56,o),
(324,28,o),
(278,28,qs),
(222,28,o),
(142,74,o),
(96,168,o),
(96,244,qs),
(96,258,ls),
(96,336,o),
(142,428,o),
(220,472,o),
(276,472,qs),
(328,472,o),
(402,430,o),
(444,342,o),
(444,270,q),
(80,270,l),
(80,230,l),
(484,230,l),
(484,256,ls),
(484,348,o),
(432,454,o),
(340,512,o),
(276,512,qs),
(208,512,o),
(112,452,o),
(56,342,o),
(56,250,qs),
(56,160,o),
(110,46,o),
(212,-12,o),
(278,-12,qs)
);
}
);
width = 540;
}
);
metricLeft = o;
metricRight = o;
unicode = 101;
userData = {
KernOnName = e;
};
},
{
glyphname = ezh;
kernLeft = tau;
kernRight = "n-des";
lastChange = "2025-11-18 19:11:47 +0000";
layers = (
{
anchors = (
{
name = bottom;
pos = (250,-200);
},
{
name = top;
pos = (250,500);
}
);
guides = (
{
pos = (-8,-20);
}
);
layerId = m003;
shapes = (
{
closed = 1;
nodes = (
(334,-212,o),
(442,-162,o),
(502,-62,o),
(502,8,qs),
(502,74,o),
(460,168,o),
(372,226,o),
(312,230,q),
(486,390,l),
(486,500,l),
(22,500,l),
(22,362,l),
(278,362,l),
(100,196,l),
(100,108,l),
(206,108,ls),
(258,108,o),
(298,86,o),
(318,46,o),
(318,10,qs),
(318,-16,o),
(306,-56,o),
(276,-74,o),
(254,-74,qs),
(230,-74,o),
(204,-64,o),
(190,-38,o),
(188,-20,q),
(12,-20,l),
(14,-76,o),
(74,-170,o),
(174,-212,o),
(252,-212,qs)
);
}
);
width = 520;
},
{
anchors = (
{
name = bottom;
pos = (250,-200);
},
{
name = top;
pos = (250,500);
}
);
guides = (
{
pos = (-8,-50);
}
);
layerId = m004;
shapes = (
{
closed = 1;
nodes = (
(328,-212,o),
(432,-162,o),
(482,-64,o),
(482,0,qs),
(482,72,o),
(430,168,o),
(334,214,o),
(270,216,q),
(476,428,l),
(476,500,l),
(32,500,l),
(32,412,l),
(350,412,l),
(150,204,l),
(150,130,l),
(210,130,ls),
(282,130,o),
(346,106,o),
(386,54,o),
(386,0,qs),
(386,-42,o),
(356,-98,o),
(300,-124,o),
(256,-124,qs),
(210,-124,o),
(164,-108,o),
(132,-78,o),
(128,-50,q),
(30,-50,l),
(32,-106,o),
(96,-178,o),
(190,-212,o),
(256,-212,qs)
);
}
);
width = 520;
},
{
anchors = (
{
name = bottom;
pos = (250,-200);
},
{
name = top;
pos = (250,500);
}
);
guides = (
{
pos = (-8,-60);
}
);
layerId = m007;
shapes = (
{
closed = 1;
nodes = (
(320,-212,o),
(412,-162,o),
(466,-70,o),
(466,0,q),
(466,72,o),
(412,162,o),
(310,216,o),
(232,218,q),
(464,464,l),
(464,500,l),
(38,500,l),
(38,460,l),
(412,460,l),
(180,212,l),
(180,180,l),
(212,180,ls),
(291,180,o),
(380,140,o),
(426,62,o),
(426,0,qs),
(426,-58,o),
(380,-132,o),
(312,-172,o),
(254,-172,qs),
(196,-172,o),
(130,-152,o),
(80,-98,o),
(78,-60,q),
(38,-60,l),
(40,-108,o),
(94,-180,o),
(186,-212,o),
(254,-212,qs)
);
}
);
width = 520;
}
);
unicode = 658;
},
{
glyphname = f;
kernLeft = t;
kernRight = f;
lastChange = "2025-11-18 19:16:28 +0000";
layers = (
{
anchors = (
{
name = top;
pos = (240,700);
}
);
layerId = m003;
shapes = (
{
closed = 1;
nodes = (
(394,358,l),
(394,500,l),
(12,500,l),
(12,358,l)
);
},
{
closed = 1;
nodes = (
(280,0,l),
(280,536,ls),
(280,550,o),
(294,566,o),
(308,566,qs),
(420,566,l),
(420,700,l),
(230,700,ls),
(164,700,o),
(96,634,o),
(96,568,qs),
(96,0,l)
);
}
);
width = 420;
},
{
anchors = (
{
name = top;
pos = (240,700);
}
);
layerId = m004;
shapes = (
{
closed = 1;
nodes = (
(372,412,l),
(372,500,l),
(30,500,l),
(30,412,l)
);
},
{
closed = 1;
nodes = (
(226,0,l),
(226,544,ls),
(226,580,o),
(260,612,o),
(298,612,qs),
(412,612,l),
(412,700,l),
(268,700,ls),
(198,700,o),
(130,636,o),
(130,570,qs),
(130,0,l)
);
}
);
width = 420;
},
{
anchors = (
{
name = top;
pos = (240,700);
}
);
layerId = m007;
shapes = (
{
closed = 1;
nodes = (
(364,460,l),
(364,500,l),
(36,500,l),
(36,460,l)
);
},
{
closed = 1;
nodes = (
(192,0,l),
(192,572,ls),
(192,616,o),
(236,660,o),
(280,660,qs),
(404,660,l),
(404,700,l),
(280,700,ls),
(214,700,o),
(152,638,o),
(152,572,qs),
(152,0,l)
);
}
);
width = 420;
}
);
metricLeft = tau;
unicode = 102;
userData = {
KernOnName = f;
};
},
{
glyphname = g;
kernLeft = o;
kernRight = "n-des";
lastChange = "2025-11-18 19:11:09 +0000";
layers = (
{
anchors = (
{
name = bottom;
pos = (280,-200);
},
{
name = top;
pos = (280,500);
}
);
guides = (
{
pos = (-8,-20);
}
);
layerId = m003;
shapes = (
{
closed = 1;
nodes = (
(344,-212,o),
(456,-168,o),
(520,-66,o),
(520,28,qs),
(520,500,l),
(338,500,l),
(338,20,ls),
(338,-28,o),
(322,-62,o),
(292,-80,o),
(266,-80,qs),
(244,-80,o),
(218,-70,o),
(200,-42,o),
(198,-20,q),
(26,-20,l),
(28,-74,o),
(88,-166,o),
(188,-212,o),
(268,-212,qs)
);
},
{
pos = (434,0);
ref = "puzo-g";
scale = (-1,1);
}
);
width = 560;
},
{
anchors = (
{
name = bottom;
pos = (280,-200);
},
{
name = top;
pos = (280,500);
}
);
guides = (
{
pos = (-8,-50);
}
);
layerId = m004;
shapes = (
{
closed = 1;
nodes = (
(338,-212,o),
(434,-170,o),
(490,-70,o),
(490,24,qs),
(490,500,l),
(394,500,l),
(394,12,ls),
(394,-46,o),
(362,-102,o),
(308,-124,o),
(262,-124,qs),
(224,-124,o),
(180,-106,o),
(152,-74,o),
(148,-50,q),
(52,-50,l),
(54,-98,o),
(104,-172,o),
(194,-212,o),
(264,-212,qs)
);
},
{
pos = (476,0);
ref = "puzo-g";
scale = (-1,1);
}
);
width = 560;
},
{
anchors = (
{
name = bottom;
pos = (280,-200);
},
{
name = top;
pos = (280,500);
}
);
guides = (
{
pos = (-8,-60);
},
{
pos = (-8,-60);
}
);
layerId = m007;
shapes = (
{
closed = 1;
nodes = (
(336,-212,o),
(422,-168,o),
(474,-76,o),
(474,6,qs),
(474,500,l),
(434,500,l),
(434,4,ls),
(434,-64,o),
(392,-138,o),
(324,-172,o),
(266,-172,qs),
(214,-172,o),
(148,-148,o),
(108,-102,o),
(104,-60,q),
(64,-60,l),
(68,-112,o),
(120,-180,o),
(202,-212,o),
(266,-212,qs)
);
},
{
pos = (498,0);
ref = "puzo-g";
scale = (-1,1);
}
);
width = 560;
}
);
metricLeft = o;
metricRight = u;
unicode = 103;
userData = {
KernOnName = g;
};
},
{
glyphname = g.cv02;
kernLeft = o;
kernRight = t;
lastChange = "2025-11-18 19:11:40 +0000";
layers = (
{
anchors = (
{
name = bottom;
pos = (280,-200);
},
{
name = top;
pos = (270,500);
}
);
layerId = m003;
shapes = (
{
closed = 1;
nodes = (
(412,-200,o),
(490,-168,o),
(540,-98,o),
(540,-40,qs),
(540,18,o),
(490,86,o),
(412,120,o),
(332,120,qs),
(254,120,ls),
(238,120,o),
(220,132,o),
(220,144,qs),
(220,156,o),
(238,168,o),
(254,168,qs),
(272,168,ls),
(356,168,o),
(452,204,o),
(502,272,o),
(502,318,qs),
(502,340,o),
(492,372,o),
(486,386,q),
(548,386,l),
(548,500,l),
(364,500,l),
(322,500,o),
(270,500,qs),
(186,500,o),
(88,462,o),
(34,388,o),
(34,334,qs),
(34,300,o),
(60,242,o),
(100,208,o),
(112,204,q),
(98,198,o),
(74,178,o),
(62,152,o),
(62,132,qs),
(62,102,o),
(100,58,o),
(186,42,o),
(254,42,qs),
(348,42,l),
(348,-10,l),
(362,-10,o),
(380,-16,o),
(392,-30,o),
(392,-40,qs),
(392,-50,o),
(380,-66,o),
(362,-70,o),
(348,-70,qs),
(226,-70,qs),
(210,-70,o),
(192,-66,o),
(182,-50,o),
(182,-40,qs),
(182,-30,o),
(192,-16,o),
(210,-10,o),
(226,-10,qs),
(348,-10,q),
(348,88,l),
(250,88,o),
(98,84,o),
(32,14,o),
(32,-40,qs),
(32,-98,o),
(80,-168,o),
(162,-200,o),
(242,-200,qs),
(332,-200,qs)
);
},
{
closed = 1;
nodes = (
(254,286,o),
(228,296,o),
(214,318,o),
(214,334,qs),
(214,350,o),
(228,372,o),
(254,384,o),
(270,384,qs),
(288,384,o),
(312,372,o),
(328,350,o),
(328,334,qs),
(328,318,o),
(312,296,o),
(288,286,o),
(270,286,qs)
);
}
);
width = 568;
},
{
anchors = (
{
name = bottom;
pos = (280,-200);
},
{
name = top;
pos = (270,500);
}
);
layerId = m004;
shapes = (
{
closed = 1;
nodes = (
(384,-200,o),
(462,-170,o),
(510,-104,o),
(510,-52,qs),
(510,0,o),
(462,66,o),
(384,96,o),
(312,96,qs),
(214,96,ls),
(190,96,o),
(166,114,o),
(166,130,qs),
(166,146,o),
(190,164,o),
(214,164,qs),
(270,164,ls),
(344,164,o),
(432,204,o),
(480,274,o),
(480,324,qs),
(480,360,o),
(458,406,o),
(444,420,q),
(520,420,l),
(520,500,l),
(358,500,ls),
(322,500,o),
(268,500,qs),
(198,500,o),
(108,462,o),
(56,386,o),
(56,332,qs),
(56,292,o),
(82,236,o),
(110,208,o),
(126,200,q),
(108,192,o),
(88,170,o),
(78,146,o),
(78,128,qs),
(78,100,o),
(110,60,o),
(166,46,o),
(210,46,qs),
(324,46,l),
(324,12,l),
(364,12,o),
(400,0,o),
(424,-26,o),
(424,-52,qs),
(424,-78,o),
(400,-104,o),
(364,-116,o),
(324,-116,qs),
(222,-116,qs),
(182,-116,o),
(146,-104,o),
(122,-78,o),
(122,-52,qs),
(122,-26,o),
(146,0,o),
(182,12,o),
(222,12,qs),
(324,12,q),
(324,84,l),
(222,84,o),
(92,66,o),
(36,0,o),
(36,-52,qs),
(36,-104,o),
(82,-170,o),
(164,-200,o),
(234,-200,qs),
(312,-200,qs)
);
},
{
closed = 1;
nodes = (
(234,244,o),
(182,262,o),
(152,300,o),
(152,332,qs),
(152,364,o),
(182,402,o),
(234,420,o),
(268,420,qs),
(304,420,o),
(354,404,o),
(386,364,o),
(386,332,qs),
(386,300,o),
(354,262,o),
(304,244,o),
(268,244,qs)
);
}
);
width = 560;
},
{
anchors = (
{
name = bottom;
pos = (280,-200);
},
{
name = top;
pos = (270,500);
}
);
layerId = m007;
shapes = (
{
closed = 1;
nodes = (
(368,-200,o),
(442,-172,o),
(490,-110,o),
(490,-58,qs),
(490,-6,o),
(442,58,o),
(368,84,o),
(306,84,qs),
(188,84,ls),
(158,84,o),
(130,108,o),
(130,126,qs),
(130,146,o),
(158,168,o),
(188,168,qs),
(268,168,ls),
(334,168,o),
(418,208,o),
(468,280,o),
(468,332,qs),
(468,378,o),
(428,444,o),
(404,460,q),
(520,460,l),
(520,500,l),
(354,500,ls),
(322,500,o),
(268,500,qs),
(202,500,o),
(118,460,o),
(70,386,o),
(70,334,qs),
(70,292,o),
(98,234,o),
(136,200,o),
(154,194,q),
(130,190,o),
(102,168,o),
(90,140,o),
(90,124,qs),
(90,100,o),
(114,70,o),
(150,58,o),
(184,58,qs),
(310,58,l),
(310,44,l),
(356,44,o),
(414,26,o),
(450,-18,o),
(450,-58,qs),
(450,-96,o),
(414,-142,o),
(356,-160,o),
(310,-160,qs),
(228,-160,qs),
(182,-160,o),
(120,-142,o),
(88,-96,o),
(88,-58,qs),
(88,-18,o),
(120,26,o),
(180,44,o),
(228,44,qs),
(310,44,q),
(310,80,l),
(210,80,o),
(96,58,o),
(48,-6,o),
(48,-58,qs),
(48,-110,o),
(94,-172,o),
(170,-200,o),
(230,-200,qs),
(306,-200,qs)
);
},
{
closed = 1;
nodes = (
(216,208,o),
(146,234,o),
(110,294,o),
(110,334,qs),
(110,376,o),
(146,436,o),
(216,460,o),
(268,460,qs),
(318,460,o),
(388,438,o),
(428,376,o),
(428,334,qs),
(428,294,o),
(390,234,o),
(318,208,o),
(268,208,qs)
);
}
);
width = 560;
}
);
userData = {
KernOnName = g;
};
},
{
glyphname = g.ss05;
kernLeft = o;
kernRight = "a-des";
lastChange = "2025-11-18 19:11:29 +0000";
layers = (
{
anchors = (
{
name = bottom;
pos = (278,-200);
},
{
name = top;
pos = (278,500);
}
);
guides = (
{
pos = (-10,-20);
}
);
layerId = m003;
shapes = (
{
pos = (560,0);
ref = "puzo-full-small";
scale = (-1,1);
},
{
closed = 1;
nodes = (
(354,-212,o),
(466,-168,o),
(530,-66,o),
(530,28,qs),
(530,222,l),
(346,222,l),
(346,20,ls),
(346,-28,o),
(332,-62,o),
(302,-78,o),
(276,-78,qs),
(254,-78,o),
(228,-70,o),
(210,-42,o),
(208,-20,q),
(34,-20,l),
(38,-72,o),
(96,-166,o),
(198,-212,o),
(278,-212,qs)
);
}
);
width = 560;
},
{
anchors = (
{
name = bottom;
pos = (280,-200);
},
{
name = top;
pos = (280,500);
}
);
guides = (
{
pos = (-8,-50);
}
);
layerId = m004;
shapes = (
{
pos = (560,0);
ref = "puzo-full-small";
scale = (-1,1);
},
{
closed = 1;
nodes = (
(348,-212,o),
(444,-170,o),
(498,-70,o),
(498,24,qs),
(498,252,l),
(404,252,l),
(404,12,ls),
(404,-46,o),
(374,-100,o),
(318,-124,o),
(272,-124,qs),
(234,-124,o),
(188,-106,o),
(162,-74,o),
(158,-50,q),
(62,-50,l),
(66,-98,o),
(116,-172,o),
(204,-212,o),
(276,-212,qs)
);
}
);
width = 560;
},
{
anchors = (
{
name = bottom;
pos = (280,-200);
},
{
name = top;
pos = (280,500);
}
);
guides = (
{
pos = (-8,-60);
}
);
layerId = m007;
shapes = (
{
pos = (560,0);
ref = "puzo-full-small";
scale = (-1,1);
},
{
closed = 1;
nodes = (
(342,-212,o),
(428,-168,o),
(480,-76,o),
(480,6,qs),
(480,260,l),
(440,260,l),
(440,4,ls),
(440,-64,o),
(398,-138,o),
(330,-172,o),
(272,-172,qs),
(220,-172,o),
(154,-148,o),
(114,-102,o),
(110,-60,q),
(70,-60,l),
(74,-112,o),
(126,-180,o),
(208,-212,o),
(272,-212,qs)
);
}
);
width = 560;
}
);
metricLeft = o;
metricRight = a;
userData = {
KernOnName = g;
};
},
{
glyphname = gstroke.cv02;
kernLeft = o;
kernRight = t;
lastChange = "2025-11-17 08:09:04 +0000";
layers = (
{
layerId = m003;
shapes = (
{
ref = g.cv02;
},
{
closed = 1;
nodes = (
(547,299,l),
(547,359,l),
(250,359,l),
(250,299,l)
);
}
);
width = 560;
},
{
layerId = m004;
shapes = (
{
ref = g.cv02;
},
{
closed = 1;
nodes = (
(520,294,l),
(520,366,l),
(250,366,l),
(250,294,l)
);
}
);
width = 560;
},
{
layerId = m007;
shapes = (
{
ref = g.cv02;
},
{
closed = 1;
nodes = (
(524,310,l),
(524,348,l),
(250,348,l),
(250,310,l)
);
}
);
width = 560;
}
);
},
{
glyphname = h;
kernLeft = I;
kernRight = n;
lastChange = "2025-11-18 19:12:19 +0000";
layers = (
{
anchors = (
{
name = bottom;
pos = (284,0);
},
{
name = top;
pos = (134,700);
}
);
hints = (
{
horizontal = 1;
place = (0,21);
target = up;
type = BottomGhost;
},
{
horizontal = 1;
place = (52,142);
type = Stem;
},
{
horizontal = 1;
place = (0,-20);
target = down;
type = TopGhost;
},
{
place = (0,0);
type = Stem;
},
{
place = (0,0);
type = Stem;
}
);
layerId = m003;
shapes = (
{
closed = 1;
nodes = (
(224,0,l),
(224,700,l),
(40,700,l),
(40,0,l)
);
},
{
pos = (122,0);
ref = "puzo-n";
}
);
width = 560;
},
{
anchors = (
{
name = bottom;
pos = (284,0);
},
{
name = top;
pos = (120,700);
}
);
hints = (
{
horizontal = 1;
place = (0,21);
target = up;
type = BottomGhost;
},
{
horizontal = 1;
place = (249,90);
type = Stem;
},
{
horizontal = 1;
place = (309,-20);
target = down;
type = TopGhost;
},
{
place = (42,9);
type = Stem;
},
{
place = (195,9);
type = Stem;
}
);
layerId = m004;
shapes = (
{
closed = 1;
nodes = (
(166,0,l),
(166,700,l),
(70,700,l),
(70,0,l)
);
},
{
pos = (76,0);
ref = "puzo-n";
}
);
width = 560;
},
{
anchors = (
{
name = bottom;
pos = (281,0);
},
{
name = top;
pos = (105,700);
}
);
hints = (
{
horizontal = 1;
place = (0,21);
target = up;
type = BottomGhost;
},
{
horizontal = 1;
place = (446,38);
type = Stem;
},
{
horizontal = 1;
place = (617,-20);
target = down;
type = TopGhost;
},
{
place = (83,17);
type = Stem;
},
{
place = (390,17);
type = Stem;
}
);
layerId = m007;
shapes = (
{
closed = 1;
nodes = (
(126,0,l),
(126,700,l),
(86,700,l),
(86,0,l)
);
},
{
pos = (52,0);
ref = "puzo-n";
}
);
width = 560;
}
);
metricLeft = n;
metricRight = n;
unicode = 104;
},
{
glyphname = idotless;
kernLeft = n;
kernRight = n;
lastChange = "2025-11-21 12:58:15 +0000";
layers = (
{
anchors = (
{
name = bottom;
pos = (130,0);
},
{
name = ogonek;
pos = (90,0);
},
{
name = top;
pos = (130,500);
}
);
layerId = m003;
shapes = (
{
closed = 1;
nodes = (
(222,0,l),
(222,500,l),
(38,500,l),
(38,0,l)
);
}
);
width = 260;
},
{
anchors = (
{
name = bottom;
pos = (130,0);
},
{
name = ogonek;
pos = (86,0);
},
{
name = top;
pos = (130,500);
}
);
layerId = m004;
shapes = (
{
closed = 1;
nodes = (
(178,0,l),
(178,500,l),
(82,500,l),
(82,0,l)
);
}
);
width = 260;
},
{
anchors = (
{
name = bottom;
pos = (130,0);
},
{
name = ogonek;
pos = (110,0);
},
{
name = top;
pos = (130,500);
}
);
layerId = m007;
shapes = (
{
closed = 1;
nodes = (
(150,0,l),
(150,500,l),
(110,500,l),
(110,0,l)
);
}
);
width = 260;
}
);
unicode = 305;
},
{
glyphname = jdotless;
kernLeft = "j-n";
kernRight = "n-des";
lastChange = "2025-11-18 19:18:15 +0000";
layers = (
{
anchors = (
{
name = bottom;
pos = (80,-200);
},
{
name = top;
pos = (130,500);
}
);
layerId = m003;
shapes = (
{
closed = 1;
nodes = (
(38,500,l),
(38,-28,ls),
(38,-42,o),
(22,-58,o),
(8,-58,qs),
(-60,-58,l),
(-60,-200,l),
(90,-200,ls),
(156,-200,o),
(222,-132,o),
(222,-66,qs),
(222,500,l)
);
}
);
width = 260;
},
{
anchors = (
{
name = bottom;
pos = (80,-200);
},
{
name = top;
pos = (130,500);
}
);
layerId = m004;
shapes = (
{
closed = 1;
nodes = (
(82,500,l),
(82,-48,ls),
(82,-80,o),
(50,-112,o),
(16,-112,qs),
(-60,-112,l),
(-60,-200,l),
(46,-200,ls),
(112,-200,o),
(178,-134,o),
(178,-68,qs),
(178,500,l)
);
}
);
width = 260;
},
{
anchors = (
{
name = bottom;
pos = (80,-200);
},
{
name = top;
pos = (130,500);
}
);
layerId = m007;
shapes = (
{
closed = 1;
nodes = (
(110,500,l),
(110,-72,ls),
(110,-116,o),
(66,-160,o),
(22,-160,qs),
(-60,-160,l),
(-60,-200,l),
(22,-200,ls),
(88,-200,o),
(150,-138,o),
(150,-72,qs),
(150,500,l)
);
}
);
width = 260;
}
);
metricRight = idotless;
unicode = 567;
},
{
glyphname = jdotless.ss03;
kernLeft = n;
kernRight = "n-des";
lastChange = "2025-11-18 19:18:22 +0000";
layers = (
{
anchors = (
{
name = bottom;
pos = (130,-200);
},
{
name = top;
pos = (130,500);
}
);
layerId = m003;
shapes = (
{
closed = 1;
nodes = (
(222,-200,l),
(222,500,l),
(38,500,l),
(38,-200,l)
);
}
);
width = 260;
},
{
anchors = (
{
name = bottom;
pos = (130,-200);
},
{
name = top;
pos = (130,500);
}
);
layerId = m004;
shapes = (
{
closed = 1;
nodes = (
(178,-200,l),
(178,500,l),
(82,500,l),
(82,-200,l)
);
}
);
width = 260;
},
{
anchors = (
{
name = bottom;
pos = (130,-200);
},
{
name = top;
pos = (130,500);
}
);
layerId = m007;
shapes = (
{
closed = 1;
nodes = (
(150,-200,l),
(150,500,l),
(110,500,l),
(110,-200,l)
);
}
);
width = 260;
}
);
metricLeft = idotless;
metricRight = idotless;
},
{
glyphname = k;
kernLeft = I;
kernRight = x;
lastChange = "2025-11-18 19:24:30 +0000";
layers = (
{
anchors = (
{
name = bottom;
pos = (280,0);
},
{
name = top;
pos = (135,700);
}
);
layerId = m003;
shapes = (
{
closed = 1;
nodes = (
(224,0,l),
(224,700,l),
(40,700,l),
(40,0,l)
);
},
{
ref = kgreenlandic;
}
);
width = 580;
},
{
anchors = (
{
name = bottom;
pos = (280,0);
},
{
name = top;
pos = (121,700);
}
);
layerId = m004;
shapes = (
{
closed = 1;
nodes = (
(166,0,l),
(166,700,l),
(70,700,l),
(70,0,l)
);
},
{
ref = kgreenlandic;
}
);
width = 580;
},
{
anchors = (
{
name = bottom;
pos = (280,0);
},
{
name = top;
pos = (105,700);
}
);
layerId = m007;
shapes = (
{
closed = 1;
nodes = (
(126,0,l),
(126,700,l),
(86,700,l),
(86,0,l)
);
},
{
ref = kgreenlandic;
}
);
width = 580;
}
);
metricLeft = n;
unicode = 107;
userData = {
KernOnName = k;
};
},
{
glyphname = k.cv07;
kernLeft = I;
kernRight = x;
lastChange = "2025-11-18 14:33:10 +0000";
layers = (
{
anchors = (
{
name = bottom;
pos = (280,0);
},
{
name = top;
pos = (135,700);
}
);
layerId = m003;
shapes = (
{
closed = 1;
nodes = (
(223,0,l),
(223,700,l),
(40,700,l),
(40,0,l)
);
},
{
ref = kappa.cv07;
}
);
width = 580;
},
{
anchors = (
{
name = bottom;
pos = (280,0);
},
{
name = top;
pos = (121,700);
}
);
layerId = m004;
shapes = (
{
closed = 1;
nodes = (
(166,0,l),
(166,700,l),
(70,700,l),
(70,0,l)
);
},
{
ref = kappa.cv07;
}
);
width = 580;
},
{
anchors = (
{
name = bottom;
pos = (280,0);
},
{
name = top;
pos = (105,700);
}
);
layerId = m007;
shapes = (
{
closed = 1;
nodes = (
(126,0,l),
(126,700,l),
(86,700,l),
(86,0,l)
);
},
{
ref = kappa.cv07;
}
);
width = 580;
}
);
metricLeft = n;
userData = {
KernOnName = k;
};
},
{
glyphname = kgreenlandic;
kernLeft = n;
kernRight = x;
lastChange = "2025-11-18 19:25:16 +0000";
layers = (
{
layerId = m003;
shapes = (
{
closed = 1;
nodes = (
(224,0,l),
(224,144,l),
(262,192,l),
(360,0,l),
(568,0,l),
(408,304,l),
(568,500,l),
(380,500,l),
(224,318,l),
(224,500,l),
(40,500,l),
(40,0,l)
);
}
);
width = 580;
},
{
layerId = m004;
shapes = (
{
closed = 1;
nodes = (
(166,0,l),
(166,156,l),
(270,250,l),
(436,0,l),
(554,0,l),
(348,308,l),
(554,500,l),
(428,500,l),
(166,266,l),
(166,500,l),
(70,500,l),
(70,0,l)
);
}
);
width = 580;
},
{
layerId = m007;
shapes = (
{
closed = 1;
nodes = (
(126,0,l),
(126,160,l),
(274,276,l),
(492,0,l),
(542,0,l),
(306,304,l),
(544,500,l),
(486,500,l),
(126,208,l),
(126,500,l),
(86,500,l),
(86,0,l)
);
}
);
width = 580;
}
);
metricLeft = n;
metricRight = x;
unicode = 312;
},
{
glyphname = l;
kernLeft = I;
kernRight = I;
lastChange = "2025-11-18 19:22:22 +0000";
layers = (
{
anchors = (
{
name = bottom;
pos = (130,0);
},
{
name = top;
pos = (130,700);
}
);
layerId = m003;
shapes = (
{
closed = 1;
nodes = (
(222,0,l),
(222,700,l),
(38,700,l),
(38,0,l)
);
}
);
width = 260;
},
{
anchors = (
{
name = bottom;
pos = (130,0);
},
{
name = top;
pos = (130,700);
}
);
layerId = m004;
shapes = (
{
closed = 1;
nodes = (
(178,0,l),
(178,700,l),
(82,700,l),
(82,0,l)
);
}
);
width = 260;
},
{
anchors = (
{
name = bottom;
pos = (130,0);
},
{
name = top;
pos = (130,700);
}
);
layerId = m007;
shapes = (
{
closed = 1;
nodes = (
(150,0,l),
(150,700,l),
(110,700,l),
(110,0,l)
);
}
);
width = 260;
}
);
metricLeft = idotless;
metricRight = idotless;
unicode = 108;
},
{
glyphname = l.ss02;
kernLeft = I;
kernRight = "l-tail";
lastChange = "2025-11-19 08:04:34 +0000";
layers = (
{
anchors = (
{
name = bottom;
pos = (183,0);
},
{
name = top;
pos = (130,700);
}
);
layerId = m003;
shapes = (
{
closed = 1;
nodes = (
(38,134,ls),
(38,68,o),
(106,0,o),
(172,0,qs),
(288,0,l),
(288,150,l),
(252,150,ls),
(236,150,o),
(222,164,o),
(222,178,qs),
(222,700,l),
(38,700,l)
);
}
);
width = 300;
},
{
anchors = (
{
name = bottom;
pos = (191,0);
},
{
name = top;
pos = (121,700);
}
);
layerId = m004;
shapes = (
{
closed = 1;
nodes = (
(72,132,ls),
(72,66,o),
(138,0,o),
(204,0,qs),
(270,0,l),
(270,88,l),
(234,88,ls),
(202,88,o),
(168,120,o),
(168,152,qs),
(168,700,l),
(72,700,l)
);
}
);
width = 300;
},
{
anchors = (
{
name = bottom;
pos = (193,0);
},
{
name = top;
pos = (113,700);
}
);
layerId = m007;
shapes = (
{
closed = 1;
nodes = (
(94,128,ls),
(94,62,o),
(156,0,o),
(222,0,qs),
(264,0,l),
(264,40,l),
(222,40,ls),
(178,40,o),
(134,84,o),
(134,128,qs),
(134,700,l),
(94,700,l)
);
}
);
width = 300;
}
);
metricRight = tau;
},
{
glyphname = ldot;
kernLeft = I;
kernRight = O;
lastChange = "2025-11-17 08:20:12 +0000";
layers = (
{
layerId = m003;
shapes = (
{
alignment = -1;
ref = l;
},
{
closed = 1;
nodes = (
(242,313,o),
(279,255,o),
(312,255,qs),
(320,255,ls),
(353,255,o),
(387,315,o),
(387,362,qs),
(387,408,o),
(350,465,o),
(316,465,qs),
(308,465,ls),
(275,465,o),
(242,406,o),
(242,360,qs)
);
}
);
width = 400;
},
{
layerId = m004;
shapes = (
{
alignment = -1;
ref = l;
},
{
closed = 1;
nodes = (
(214,332,o),
(242,296,o),
(268,296,qs),
(274,296,ls),
(300,296,o),
(328,332,o),
(328,362,qs),
(328,390,o),
(298,426,o),
(272,426,qs),
(266,426,ls),
(240,426,o),
(214,388,o),
(214,360,qs)
);
}
);
width = 400;
},
{
layerId = m007;
shapes = (
{
alignment = -1;
ref = l;
},
{
closed = 1;
nodes = (
(205,342,o),
(224,321,o),
(240,322,qs),
(244,322,ls),
(260,321,o),
(278,343,o),
(278,360,qs),
(278,378,o),
(259,399,o),
(244,400,qs),
(240,400,ls),
(224,399,o),
(205,378,o),
(206,360,qs)
);
}
);
width = 400;
}
);
metricLeft = l;
unicode = 320;
},
{
glyphname = ldot.ss02;
kernLeft = I;
kernRight = O;
lastChange = "2025-11-19 08:07:38 +0000";
layers = (
{
layerId = m003;
shapes = (
{
alignment = -1;
ref = l.ss02;
},
{
closed = 1;
nodes = (
(242,304,o),
(280,244,o),
(312,244,qs),
(318,244,ls),
(350,244,o),
(388,304,o),
(388,350,qs),
(388,396,o),
(350,456,o),
(318,456,qs),
(312,456,ls),
(280,456,o),
(242,396,o),
(242,350,qs)
);
}
);
width = 400;
},
{
layerId = m004;
shapes = (
{
alignment = -1;
ref = l.ss02;
},
{
closed = 1;
nodes = (
(214,322,o),
(242,286,o),
(268,286,qs),
(274,286,ls),
(300,286,o),
(328,320,o),
(328,350,qs),
(328,378,o),
(300,414,o),
(274,414,qs),
(268,414,ls),
(242,414,o),
(214,378,o),
(214,350,qs)
);
}
);
width = 400;
},
{
layerId = m007;
shapes = (
{
alignment = -1;
ref = l.ss02;
},
{
closed = 1;
nodes = (
(208,332,o),
(226,312,o),
(242,312,qs),
(246,312,ls),
(262,312,o),
(280,334,o),
(280,350,qs),
(280,368,o),
(262,388,o),
(246,388,qs),
(242,388,ls),
(226,388,o),
(208,368,o),
(208,350,qs)
);
}
);
width = 400;
}
);
metricLeft = l.ss02;
},
{
glyphname = lslash;
kernLeft = I;
kernRight = I;
lastChange = "2025-11-17 07:59:02 +0000";
layers = (
{
layerId = m003;
shapes = (
{
closed = 1;
nodes = (
(300,349,l),
(300,477,l),
(0,351,l),
(0,223,l)
);
},
{
alignment = -1;
pos = (21,0);
ref = l;
}
);
width = 300;
},
{
layerId = m004;
shapes = (
{
closed = 1;
nodes = (
(292,364,l),
(292,450,l),
(10,336,l),
(10,250,l)
);
},
{
alignment = -1;
pos = (21,0);
ref = l;
}
);
width = 300;
},
{
layerId = m007;
shapes = (
{
closed = 1;
nodes = (
(284,378,l),
(284,424,l),
(18,322,l),
(18,276,l)
);
},
{
alignment = -1;
pos = (22,0);
ref = l;
}
);
width = 300;
}
);
unicode = 322;
},
{
glyphname = lslash.ss02;
kernLeft = I;
kernRight = "l-tail";
lastChange = "2025-11-19 08:08:14 +0000";
layers = (
{
layerId = m003;
shapes = (
{
closed = 1;
nodes = (
(307,349,l),
(307,477,l),
(0,351,l),
(0,223,l)
);
},
{
alignment = -1;
pos = (20,0);
ref = l.ss02;
}
);
width = 320;
},
{
layerId = m004;
shapes = (
{
closed = 1;
nodes = (
(290,364,l),
(290,450,l),
(10,336,l),
(10,250,l)
);
},
{
alignment = -1;
pos = (20,0);
ref = l.ss02;
}
);
width = 320;
},
{
layerId = m007;
shapes = (
{
closed = 1;
nodes = (
(284,380,l),
(284,422,l),
(18,320,l),
(18,278,l)
);
},
{
alignment = -1;
pos = (20,0);
ref = l.ss02;
}
);
width = 320;
}
);
metricRight = tau;
},
{
glyphname = m;
kernLeft = n;
kernRight = n;
lastChange = "2025-11-18 19:12:11 +0000";
layers = (
{
anchors = (
{
name = bottom;
pos = (433,0);
},
{
name = top;
pos = (433,500);
}
);
layerId = m003;
shapes = (
{
closed = 1;
nodes = (
(224,0,l),
(224,500,l),
(40,500,l),
(40,0,l)
);
},
{
pos = (154,0);
ref = "puzo-m";
}
);
width = 840;
},
{
anchors = (
{
name = bottom;
pos = (423,0);
},
{
name = top;
pos = (423,500);
}
);
layerId = m004;
shapes = (
{
closed = 1;
nodes = (
(166,0,l),
(166,500,l),
(70,500,l),
(70,0,l)
);
},
{
pos = (116,0);
ref = "puzo-m";
}
);
width = 840;
},
{
anchors = (
{
name = bottom;
pos = (422,0);
},
{
name = top;
pos = (422,500);
}
);
layerId = m007;
shapes = (
{
closed = 1;
nodes = (
(126,0,l),
(126,500,l),
(86,500,l),
(86,0,l)
);
},
{
pos = (90,0);
ref = "puzo-m";
}
);
width = 840;
}
);
metricLeft = n;
metricRight = n;
unicode = 109;
},
{
glyphname = m.ss05;
kernLeft = rho;
kernRight = a;
lastChange = "2025-11-18 19:12:14 +0000";
layers = (
{
anchors = (
{
name = bottom;
pos = (420,0);
},
{
name = top;
pos = (411,500);
}
);
layerId = m003;
shapes = (
{
closed = 1;
nodes = (
(214,0,l),
(214,300,ls),
(214,320,o),
(226,344,o),
(250,358,o),
(268,358,qs),
(286,358,o),
(308,344,o),
(320,320,o),
(320,300,qs),
(320,0,l),
(504,0,l),
(504,300,ls),
(504,320,o),
(514,344,o),
(538,358,o),
(556,358,qs),
(574,358,o),
(598,344,o),
(610,320,o),
(610,300,qs),
(610,0,l),
(794,0,l),
(794,304,ls),
(794,378,o),
(740,464,o),
(648,512,o),
(584,512,qs),
(544,512,o),
(480,492,o),
(430,456,o),
(414,428,q),
(396,456,o),
(346,492,o),
(280,512,o),
(240,512,qs),
(176,512,o),
(84,464,o),
(30,378,o),
(30,304,qs),
(30,0,l)
);
}
);
width = 824;
},
{
anchors = (
{
name = bottom;
pos = (411,0);
},
{
name = top;
pos = (410,500);
}
);
layerId = m004;
shapes = (
{
closed = 1;
nodes = (
(158,0,l),
(158,312,ls),
(158,352,o),
(182,400,o),
(228,424,o),
(260,424,qs),
(292,424,o),
(338,400,o),
(362,352,o),
(362,312,qs),
(362,0,l),
(458,0,l),
(458,312,ls),
(458,352,o),
(482,400,o),
(528,424,o),
(560,424,qs),
(592,424,o),
(640,400,o),
(662,352,o),
(662,312,qs),
(662,0,l),
(758,0,l),
(758,326,ls),
(758,392,o),
(710,472,o),
(626,512,o),
(572,512,qs),
(524,512,o),
(456,484,o),
(420,444,o),
(410,424,q),
(402,444,o),
(366,484,o),
(298,512,o),
(250,512,qs),
(196,512,o),
(112,472,o),
(62,392,o),
(62,326,qs),
(62,0,l)
);
}
);
width = 820;
},
{
anchors = (
{
name = bottom;
pos = (410,0);
},
{
name = top;
pos = (410,500);
}
);
layerId = m007;
shapes = (
{
closed = 1;
nodes = (
(120,0,l),
(120,332,ls),
(120,386,o),
(156,444,o),
(218,472,o),
(256,472,qs),
(294,472,o),
(354,444,o),
(390,386,o),
(390,332,qs),
(390,0,l),
(430,0,l),
(430,332,ls),
(430,386,o),
(466,444,o),
(528,472,o),
(566,472,qs),
(604,472,o),
(666,444,o),
(700,386,o),
(700,332,qs),
(700,0,l),
(740,0,l),
(740,338,ls),
(740,404,o),
(696,476,o),
(618,512,o),
(568,512,qs),
(520,512,o),
(454,482,o),
(418,444,o),
(410,426,q),
(404,444,o),
(368,482,o),
(302,512,o),
(254,512,qs),
(204,512,o),
(128,476,o),
(80,404,o),
(80,338,qs),
(80,0,l)
);
}
);
width = 820;
}
);
metricLeft = upsilon;
metricRight = upsilon;
},
{
glyphname = n;
kernLeft = n;
kernRight = n;
lastChange = "2025-11-18 19:12:16 +0000";
layers = (
{
anchors = (
{
name = bottom;
pos = (280,0);
},
{
name = top;
pos = (280,500);
}
);
hints = (
{
origin = (0,2);
target = (0,1);
type = Stem;
},
{
place = (0,0);
type = Stem;
},
{
horizontal = 1;
origin = (0,1);
target = (0,1);
type = Stem;
}
);
layerId = m003;
shapes = (
{
closed = 1;
nodes = (
(224,0,l),
(224,500,l),
(40,500,l),
(40,0,l)
);
},
{
pos = (122,0);
ref = "puzo-n";
}
);
width = 560;
},
{
anchors = (
{
name = bottom;
pos = (280,0);
},
{
name = top;
pos = (280,500);
}
);
hints = (
{
origin = (0,2);
target = (0,1);
type = Stem;
},
{
place = (189,9);
type = Stem;
},
{
horizontal = 1;
origin = (0,1);
target = (0,1);
type = Stem;
}
);
layerId = m004;
shapes = (
{
closed = 1;
nodes = (
(166,0,l),
(166,500,l),
(70,500,l),
(70,0,l)
);
},
{
pos = (76,0);
ref = "puzo-n";
}
);
width = 560;
},
{
anchors = (
{
name = bottom;
pos = (280,0);
},
{
name = top;
pos = (280,500);
}
);
hints = (
{
origin = (0,2);
target = (0,1);
type = Stem;
},
{
place = (377,17);
type = Stem;
},
{
horizontal = 1;
origin = (0,1);
target = (0,1);
type = Stem;
}
);
layerId = m007;
shapes = (
{
closed = 1;
nodes = (
(126,0,l),
(126,500,l),
(86,500,l),
(86,0,l)
);
},
{
pos = (52,0);
ref = "puzo-n";
}
);
width = 560;
}
);
unicode = 110;
userData = {
KernOnName = n;
};
},
{
glyphname = n.small;
lastChange = "2025-11-18 19:44:50 +0000";
layers = (
{
guides = (
{
},
{
pos = (0,400);
},
{
pos = (0,300);
},
{
pos = (0,-100);
}
);
layerId = m003;
shapes = (
{
closed = 1;
nodes = (
(178,0,l),
(178,144,ls),
(178,158,o),
(182,172,o),
(194,182,o),
(204,182,qs),
(212,182,o),
(220,176,o),
(224,166,o),
(224,158,qs),
(224,0,l),
(378,0,l),
(378,194,ls),
(378,238,o),
(352,284,o),
(310,308,o),
(280,308,qs),
(250,308,o),
(206,290,o),
(180,266,o),
(170,250,q),
(170,300,l),
(24,300,l),
(24,0,l)
);
}
);
width = 400;
},
{
guides = (
{
pos = (-22,0);
},
{
pos = (-22,400);
},
{
pos = (-22,300);
},
{
pos = (-22,-100);
}
);
layerId = m004;
shapes = (
{
closed = 1;
nodes = (
(128,0,l),
(128,156,ls),
(128,186,o),
(150,218,o),
(184,232,o),
(204,232,qs),
(226,232,o),
(254,222,o),
(274,196,o),
(274,174,qs),
(274,0,l),
(354,0,l),
(354,192,ls),
(354,236,o),
(312,288,o),
(258,308,o),
(226,308,qs),
(204,308,o),
(168,298,o),
(138,278,o),
(128,266,q),
(128,300,l),
(48,300,l),
(48,0,l)
);
}
);
width = 400;
},
{
guides = (
{
pos = (-22,0);
},
{
pos = (-22,400);
},
{
pos = (-22,300);
},
{
pos = (-22,-100);
}
);
layerId = m007;
shapes = (
{
closed = 1;
nodes = (
(104,0,l),
(104,160,ls),
(104,202,o),
(134,248,o),
(180,268,o),
(208,268,qs),
(236,268,o),
(274,252,o),
(300,214,o),
(300,180,qs),
(300,0,l),
(340,0,l),
(340,192,ls),
(340,234,o),
(306,284,o),
(250,308,o),
(214,308,qs),
(182,308,o),
(138,292,o),
(110,266,o),
(104,256,q),
(104,300,l),
(64,300,l),
(64,0,l)
);
}
);
width = 400;
}
);
userData = {
KernOnName = n;
};
},
{
glyphname = o;
kernLeft = o;
kernRight = o;
lastChange = "2025-11-18 19:08:17 +0000";
layers = (
{
anchors = (
{
name = bottom;
pos = (280,0);
},
{
name = top;
pos = (280,500);
}
);
layerId = m003;
shapes = (
{
closed = 1;
nodes = (
(360,-12,o),
(474,52,o),
(538,168,o),
(538,250,qs),
(538,334,o),
(474,448,o),
(362,512,o),
(280,512,qs),
(200,512,o),
(86,448,o),
(22,334,o),
(22,250,qs),
(22,168,o),
(86,52,o),
(200,-12,o),
(280,-12,qs)
);
},
{
closed = 1;
nodes = (
(254,138,o),
(224,162,o),
(206,210,o),
(206,250,qs),
(206,290,o),
(224,338,o),
(254,362,o),
(280,362,qs),
(306,362,o),
(336,338,o),
(354,290,o),
(354,250,qs),
(354,210,o),
(336,162,o),
(306,138,o),
(280,138,qs)
);
}
);
width = 560;
},
{
anchors = (
{
name = bottom;
pos = (280,0);
},
{
name = top;
pos = (280,500);
}
);
layerId = m004;
shapes = (
{
closed = 1;
nodes = (
(354,-12,o),
(460,54,o),
(516,170,o),
(516,250,qs),
(516,332,o),
(460,446,o),
(356,512,o),
(280,512,qs),
(204,512,o),
(100,446,o),
(44,332,o),
(44,250,qs),
(44,170,o),
(100,54,o),
(204,-12,o),
(280,-12,qs)
);
},
{
closed = 1;
nodes = (
(236,76,o),
(176,114,o),
(140,188,o),
(140,250,qs),
(140,312,o),
(176,386,o),
(236,424,o),
(280,424,qs),
(326,424,o),
(384,386,o),
(420,312,o),
(420,250,qs),
(420,188,o),
(384,114,o),
(326,76,o),
(280,76,qs)
);
}
);
width = 560;
},
{
anchors = (
{
name = bottom;
pos = (280,0);
},
{
name = top;
pos = (280,500);
}
);
layerId = m007;
shapes = (
{
closed = 1;
nodes = (
(348,-12,o),
(450,52,o),
(504,166,o),
(504,250,qs),
(504,336,o),
(450,450,o),
(350,512,o),
(280,512,qs),
(212,512,o),
(110,450,o),
(56,336,o),
(56,250,qs),
(56,166,o),
(110,52,o),
(212,-12,o),
(280,-12,qs)
);
},
{
closed = 1;
nodes = (
(224,28,o),
(144,76,o),
(96,176,o),
(96,250,qs),
(96,326,o),
(144,424,o),
(224,472,o),
(280,472,qs),
(338,472,o),
(416,424,o),
(464,326,o),
(464,250,qs),
(464,176,o),
(416,76,o),
(338,28,o),
(280,28,qs)
);
}
);
width = 560;
}
);
unicode = 111;
userData = {
KernOnName = o;
};
},
{
glyphname = ohorn;
kernLeft = o;
kernRight = "o-horn";
lastChange = "2025-11-19 08:09:47 +0000";
layers = (
{
anchors = (
{
name = top;
pos = (280,500);
}
);
layerId = m003;
shapes = (
{
alignment = -1;
ref = o;
},
{
pos = (340,-200);
ref = horncomb;
},
{
closed = 1;
nodes = (
(272,500,l),
(272,388,l),
(356,388,l),
(356,500,l)
);
}
);
width = 640;
},
{
anchors = (
{
name = top;
pos = (280,500);
}
);
layerId = m004;
shapes = (
{
alignment = -1;
ref = o;
},
{
pos = (392,-200);
ref = horncomb;
},
{
closed = 1;
nodes = (
(296,500,l),
(296,434,l),
(406,434,l),
(406,500,l)
);
}
);
width = 640;
},
{
anchors = (
{
name = top;
pos = (280,500);
}
);
layerId = m007;
shapes = (
{
alignment = -1;
ref = o;
},
{
pos = (430,-200);
ref = horncomb;
},
{
closed = 1;
nodes = (
(350,500,l),
(350,460,l),
(448,460,l),
(448,500,l)
);
}
);
width = 640;
}
);
metricLeft = o;
metricRight = tau;
unicode = 417;
},
{
glyphname = oslash;
kernLeft = o;
kernRight = o;
lastChange = "2025-11-17 08:00:06 +0000";
layers = (
{
anchors = (
{
name = top;
pos = (280,500);
}
);
layerId = m003;
shapes = (
{
closed = 1;
nodes = (
(135,0,l),
(536,500,l),
(428,500,l),
(27,0,l)
);
},
{
ref = o;
}
);
width = 560;
},
{
anchors = (
{
name = top;
pos = (280,500);
}
);
layerId = m004;
shapes = (
{
closed = 1;
nodes = (
(144,0,l),
(511,500,l),
(424,500,l),
(54,0,l)
);
},
{
ref = o;
}
);
width = 560;
},
{
anchors = (
{
name = top;
pos = (280,500);
}
);
layerId = m007;
shapes = (
{
closed = 1;
nodes = (
(110,0,l),
(504,500,l),
(454,500,l),
(60,0,l)
);
},
{
ref = o;
}
);
width = 560;
}
);
metricLeft = o;
metricRight = o;
unicode = 248;
},
{
glyphname = oe;
kernLeft = o;
kernRight = o;
lastChange = "2025-11-18 19:10:22 +0000";
layers = (
{
anchors = (
{
name = bottom;
pos = (420,0);
},
{
name = top;
pos = (420,500);
}
);
guides = (
{
pos = (-8,170);
}
);
layerId = m003;
shapes = (
{
closed = 1;
nodes = (
(302,-12,o),
(366,12,o),
(404,42,o),
(416,60,q),
(430,42,o),
(476,10,o),
(542,-12,o),
(592,-12,qs),
(664,-12,o),
(760,38,o),
(816,130,o),
(816,170,q),
(650,170,l),
(648,156,o),
(632,132,o),
(608,118,o),
(588,118,q),
(560,118,o),
(526,136,o),
(506,166,o),
(506,194,q),
(818,194,l),
(818,258,ls),
(818,340,o),
(762,452,o),
(662,512,o),
(592,512,qs),
(542,512,o),
(476,488,o),
(432,456,o),
(418,436,q),
(404,456,o),
(362,488,o),
(300,512,o),
(252,512,qs),
(182,512,o),
(80,450,o),
(22,332,o),
(22,250,qs),
(22,170,o),
(80,50,o),
(182,-12,o),
(252,-12,qs)
);
},
{
closed = 1;
nodes = (
(238,138,o),
(208,162,o),
(192,212,o),
(192,250,qs),
(192,290,o),
(208,338,o),
(238,364,o),
(262,364,qs),
(288,364,o),
(316,338,o),
(332,290,o),
(332,250,qs),
(332,212,o),
(316,162,o),
(288,138,o),
(262,138,qs)
);
},
{
closed = 1;
nodes = (
(510,332,o),
(528,368,o),
(558,386,o),
(582,386,qs),
(606,386,o),
(634,364,o),
(648,326,o),
(648,306,q),
(508,306,l)
);
}
);
width = 840;
},
{
anchors = (
{
name = bottom;
pos = (420,0);
},
{
name = top;
pos = (420,500);
}
);
guides = (
{
pos = (-8,150);
}
);
layerId = m004;
shapes = (
{
closed = 1;
nodes = (
(304,-12,o),
(370,18,o),
(404,58,o),
(420,92,q),
(436,58,o),
(478,16,o),
(546,-12,o),
(596,-12,qs),
(660,-12,o),
(742,34,o),
(788,110,o),
(790,150,q),
(696,150,l),
(694,128,o),
(670,92,o),
(628,72,o),
(594,72,qs),
(554,72,o),
(500,108,o),
(472,172,o),
(472,210,q),
(796,210,l),
(796,256,ls),
(796,344,o),
(750,452,o),
(660,512,o),
(596,512,qs),
(548,512,o),
(480,484,o),
(434,438,o),
(422,410,q),
(410,438,o),
(370,484,o),
(304,512,o),
(254,512,qs),
(190,512,o),
(96,450,o),
(44,334,o),
(44,250,qs),
(44,168,o),
(96,50,o),
(190,-12,o),
(254,-12,qs)
);
},
{
closed = 1;
nodes = (
(214,76,o),
(166,118,o),
(140,194,o),
(140,250,qs),
(140,308,o),
(166,382,o),
(214,424,o),
(258,424,qs),
(302,424,o),
(350,382,o),
(376,308,o),
(376,250,qs),
(376,194,o),
(350,118,o),
(302,76,o),
(258,76,qs)
);
},
{
closed = 1;
nodes = (
(474,330,o),
(504,396,o),
(552,428,o),
(592,428,qs),
(628,428,o),
(678,396,o),
(700,334,o),
(700,290,q),
(474,290,l)
);
}
);
width = 840;
},
{
anchors = (
{
name = bottom;
pos = (420,0);
},
{
name = top;
pos = (420,500);
}
);
guides = (
{
pos = (-8,140);
}
);
layerId = m007;
shapes = (
{
closed = 1;
nodes = (
(306,-12,o),
(376,26,o),
(416,84,o),
(424,112,q),
(432,82,o),
(478,24,o),
(550,-12,o),
(602,-12,qs),
(656,-12,o),
(730,30,o),
(774,102,o),
(778,140,q),
(738,140,l),
(734,112,o),
(698,58,o),
(644,28,o),
(602,28,qs),
(550,28,o),
(478,78,o),
(444,172,o),
(444,230,q),
(784,230,l),
(784,260,ls),
(784,340,o),
(748,450,o),
(666,512,o),
(600,512,qs),
(552,512,o),
(478,478,o),
(432,418,o),
(424,388,q),
(416,418,o),
(372,478,o),
(302,512,o),
(254,512,qs),
(190,512,o),
(104,450,o),
(56,336,o),
(56,250,qs),
(56,166,o),
(104,50,o),
(190,-12,o),
(254,-12,qs)
);
},
{
closed = 1;
nodes = (
(202,28,o),
(136,78,o),
(96,176,o),
(96,250,qs),
(96,326,o),
(136,422,o),
(202,472,o),
(254,472,qs),
(308,472,o),
(374,422,o),
(406,324,o),
(406,250,qs),
(406,176,o),
(374,78,o),
(308,28,o),
(254,28,qs)
);
},
{
closed = 1;
nodes = (
(444,330,o),
(478,422,o),
(546,472,o),
(600,472,qs),
(650,472,o),
(712,428,o),
(744,342,o),
(744,270,q),
(444,270,l)
);
}
);
width = 840;
}
);
metricLeft = o;
metricRight = o;
unicode = 339;
},
{
glyphname = thorn;
kernLeft = I;
kernRight = o;
lastChange = "2025-11-18 19:09:06 +0000";
layers = (
{
layerId = m003;
shapes = (
{
closed = 1;
nodes = (
(224,-200,l),
(224,140,l),
(40,140,l),
(40,-200,l)
);
},
{
alignment = -1;
ref = b;
}
);
width = 560;
},
{
layerId = m004;
shapes = (
{
closed = 1;
nodes = (
(166,-200,l),
(166,140,l),
(70,140,l),
(70,-200,l)
);
},
{
alignment = -1;
ref = b;
}
);
width = 560;
},
{
layerId = m007;
shapes = (
{
closed = 1;
nodes = (
(126,-200,l),
(126,140,l),
(86,140,l),
(86,-200,l)
);
},
{
alignment = -1;
ref = b;
}
);
width = 560;
}
);
metricLeft = n;
metricRight = o;
unicode = 254;
},
{
glyphname = r;
kernLeft = n;
kernRight = tau;
lastChange = "2025-11-18 19:14:57 +0000";
layers = (
{
anchors = (
{
name = bottom;
pos = (130,0);
},
{
name = top;
pos = (220,500);
}
);
layerId = m003;
shapes = (
{
closed = 1;
nodes = (
(224,0,l),
(224,242,ls),
(224,288,o),
(270,334,o),
(316,334,qs),
(388,334,l),
(388,500,l),
(344,500,ls),
(294,500,o),
(234,464,o),
(224,440,q),
(224,500,l),
(40,500,l),
(40,0,l)
);
}
);
width = 400;
},
{
anchors = (
{
name = bottom;
pos = (117,0);
},
{
name = top;
pos = (220,500);
}
);
layerId = m004;
shapes = (
{
closed = 1;
nodes = (
(166,0,l),
(166,252,ls),
(166,330,o),
(240,412,o),
(308,412,qs),
(370,412,l),
(370,500,l),
(316,500,ls),
(254,500,o),
(180,456,o),
(166,424,q),
(166,500,l),
(70,500,l),
(70,0,l)
);
}
);
width = 400;
},
{
anchors = (
{
name = bottom;
pos = (112,0);
},
{
name = top;
pos = (220,500);
}
);
layerId = m007;
shapes = (
{
closed = 1;
nodes = (
(126,0,l),
(126,258,ls),
(126,358,o),
(214,460,o),
(294,460,qs),
(364,460,l),
(364,500,l),
(298,500,ls),
(224,500,o),
(140,440,o),
(126,402,q),
(126,500,l),
(86,500,l),
(86,0,l)
);
}
);
width = 400;
}
);
metricLeft = n;
metricRight = tau;
unicode = 114;
userData = {
KernOnName = r;
};
},
{
glyphname = r.ss05;
kernLeft = n;
kernRight = tau;
lastChange = "2025-11-18 19:14:59 +0000";
layers = (
{
anchors = (
{
name = bottom;
pos = (130,0);
},
{
name = top;
pos = (220,500);
}
);
layerId = m003;
shapes = (
{
closed = 1;
nodes = (
(224,0,l),
(224,330,ls),
(224,340,o),
(234,350,o),
(244,350,qs),
(388,350,l),
(388,500,l),
(140,500,ls),
(90,500,o),
(40,450,o),
(40,400,qs),
(40,0,l)
);
}
);
width = 400;
},
{
anchors = (
{
name = bottom;
pos = (117,0);
},
{
name = top;
pos = (220,500);
}
);
layerId = m004;
shapes = (
{
closed = 1;
nodes = (
(166,0,l),
(166,358,ls),
(166,386,o),
(190,412,o),
(220,412,qs),
(370,412,l),
(370,500,l),
(178,500,ls),
(122,500,o),
(70,448,o),
(70,392,qs),
(70,0,l)
);
}
);
width = 400;
},
{
anchors = (
{
name = bottom;
pos = (112,0);
},
{
name = top;
pos = (220,500);
}
);
layerId = m007;
shapes = (
{
closed = 1;
nodes = (
(126,0,l),
(126,372,ls),
(126,416,o),
(170,460,o),
(214,460,qs),
(364,460,l),
(364,500,l),
(214,500,ls),
(148,500,o),
(86,438,o),
(86,372,qs),
(86,0,l)
);
}
);
width = 400;
}
);
metricLeft = n;
metricRight = tau;
userData = {
KernOnName = r;
};
},
{
glyphname = rlongleg;
kernLeft = n;
kernRight = tau;
lastChange = "2025-11-18 15:21:25 +0000";
layers = (
{
layerId = m003;
shapes = (
{
closed = 1;
nodes = (
(223,-200,l),
(223,500,l),
(40,500,l),
(40,-200,l)
);
},
{
ref = r;
}
);
width = 400;
},
{
layerId = m004;
shapes = (
{
closed = 1;
nodes = (
(166,-200,l),
(166,500,l),
(70,500,l),
(70,-200,l)
);
},
{
ref = r;
}
);
width = 400;
},
{
layerId = m007;
shapes = (
{
closed = 1;
nodes = (
(126,-200,l),
(126,500,l),
(86,500,l),
(86,-200,l)
);
},
{
ref = r;
}
);
width = 400;
}
);
metricLeft = n;
metricRight = tau;
unicode = 636;
},
{
glyphname = rlongleg.ss05;
kernLeft = n;
kernRight = tau;
lastChange = "2025-11-18 15:21:32 +0000";
layers = (
{
layerId = m003;
shapes = (
{
closed = 1;
nodes = (
(223,-200,l),
(223,100,l),
(40,100,l),
(40,-200,l)
);
},
{
ref = r.ss05;
}
);
width = 400;
},
{
layerId = m004;
shapes = (
{
closed = 1;
nodes = (
(166,-200,l),
(166,100,l),
(70,100,l),
(70,-200,l)
);
},
{
ref = r.ss05;
}
);
width = 400;
},
{
layerId = m007;
shapes = (
{
closed = 1;
nodes = (
(126,-200,l),
(126,100,l),
(86,100,l),
(86,-200,l)
);
},
{
ref = r.ss05;
}
);
width = 400;
}
);
metricLeft = n;
metricRight = tau;
},
{
glyphname = s;
kernLeft = s;
kernRight = s;
lastChange = "2025-11-18 19:10:45 +0000";
layers = (
{
anchors = (
{
name = bottom;
pos = (250,0);
},
{
name = top;
pos = (250,500);
}
);
guides = (
{
pos = (-8,330);
},
{
pos = (-8,170);
}
);
layerId = m003;
shapes = (
{
closed = 1;
nodes = (
(336,-12,o),
(424,24,o),
(476,98,o),
(476,154,qs),
(476,200,o),
(448,256,o),
(388,298,o),
(326,308,qs),
(252,320,ls),
(220,326,o),
(202,332,o),
(192,344,o),
(192,356,qs),
(192,366,o),
(204,380,o),
(228,388,o),
(246,388,qs),
(268,388,o),
(292,378,o),
(306,352,o),
(306,330,q),
(472,330,l),
(470,388,o),
(422,468,o),
(328,512,o),
(248,512,qs),
(168,512,o),
(68,464,o),
(26,390,o),
(26,344,qs),
(26,300,o),
(58,238,o),
(124,202,o),
(188,190,qs),
(252,180,ls),
(282,174,o),
(298,166,o),
(308,154,o),
(308,146,qs),
(308,134,o),
(296,120,o),
(276,112,o),
(252,112,qs),
(226,112,o),
(202,124,o),
(190,150,o),
(190,170,q),
(24,170,l),
(26,108,o),
(80,26,o),
(172,-12,o),
(254,-12,qs)
);
}
);
width = 500;
},
{
anchors = (
{
name = bottom;
pos = (250,0);
},
{
name = top;
pos = (250,500);
}
);
guides = (
{
pos = (-8,350);
},
{
pos = (-8,150);
}
);
layerId = m004;
shapes = (
{
closed = 1;
nodes = (
(320,-12,o),
(404,22,o),
(450,92,o),
(450,140,qs),
(450,184,o),
(422,242,o),
(364,278,o),
(302,288,qs),
(232,300,ls),
(194,308,o),
(168,322,o),
(152,344,o),
(152,368,qs),
(152,388,o),
(174,416,o),
(216,432,o),
(246,432,qs),
(278,432,o),
(324,416,o),
(350,380,o),
(350,350,q),
(442,350,l),
(442,400,o),
(396,476,o),
(308,512,o),
(244,512,qs),
(182,512,o),
(98,472,o),
(56,406,o),
(56,362,qs),
(56,318,o),
(88,256,o),
(152,220,o),
(204,212,qs),
(272,200,ls),
(310,194,o),
(338,180,o),
(354,158,o),
(354,136,qs),
(354,114,o),
(332,82,o),
(292,68,o),
(254,68,qs),
(216,68,o),
(166,84,o),
(142,122,o),
(142,150,q),
(50,150,l),
(50,96,o),
(102,22,o),
(190,-12,o),
(254,-12,qs)
);
}
);
width = 500;
},
{
anchors = (
{
name = bottom;
pos = (250,0);
},
{
name = top;
pos = (250,500);
}
);
guides = (
{
pos = (-8,360);
},
{
pos = (-8,140);
}
);
layerId = m007;
shapes = (
{
closed = 1;
nodes = (
(314,-12,o),
(396,20,o),
(438,84,o),
(438,128,qs),
(438,170,o),
(408,226,o),
(350,256,o),
(290,266,qs),
(218,278,ls),
(176,286,o),
(134,308,o),
(112,340,o),
(112,374,qs),
(112,406,o),
(146,452,o),
(206,472,o),
(246,472,qs),
(288,472,o),
(348,452,o),
(388,396,o),
(388,360,q),
(428,360,l),
(428,406,o),
(380,480,o),
(298,512,o),
(246,512,qs),
(194,512,o),
(116,480,o),
(72,418,o),
(72,374,qs),
(72,332,o),
(104,280,o),
(164,248,o),
(210,240,qs),
(282,228,ls),
(334,220,o),
(374,200,o),
(398,162,o),
(398,128,qs),
(398,96,o),
(364,50,o),
(304,28,o),
(252,28,qs),
(204,28,o),
(142,48,o),
(104,104,o),
(104,140,q),
(64,140,l),
(64,92,o),
(110,20,o),
(196,-12,o),
(252,-12,qs)
);
}
);
width = 500;
}
);
unicode = 115;
userData = {
KernOnName = s;
};
},
{
glyphname = germandbls;
kernLeft = Omega;
kernRight = delta;
lastChange = "2025-11-18 19:09:20 +0000";
layers = (
{
layerId = m003;
shapes = (
{
closed = 1;
nodes = (
(468,0,o),
(546,30,o),
(600,106,o),
(600,166,qs),
(600,214,o),
(558,286,o),
(508,324,qs),
(480,344,o),
(456,368,o),
(456,386,qs),
(456,410,o),
(500,460,o),
(526,506,o),
(526,544,qs),
(526,600,o),
(462,678,o),
(358,712,o),
(290,712,qs),
(218,712,o),
(104,664,o),
(40,556,o),
(40,462,qs),
(40,0,l),
(224,0,l),
(224,450,ls),
(224,502,o),
(234,546,o),
(264,570,o),
(286,570,qs),
(306,570,o),
(328,560,o),
(344,538,o),
(344,514,qs),
(344,490,o),
(314,452,o),
(278,396,o),
(278,360,qs),
(278,320,o),
(322,262,o),
(366,234,qs),
(396,214,o),
(416,186,o),
(416,170,qs),
(416,158,o),
(408,142,o),
(388,134,o),
(358,134,q),
(272,134,l),
(272,0,l),
(400,0,l)
);
}
);
width = 620;
},
{
layerId = m004;
shapes = (
{
closed = 1;
nodes = (
(460,0,o),
(534,30,o),
(582,98,o),
(582,154,qs),
(582,204,o),
(526,278,o),
(470,316,qs),
(434,338,o),
(408,368,o),
(408,386,qs),
(408,404,o),
(450,458,o),
(486,520,o),
(486,556,qs),
(486,604,o),
(432,678,o),
(344,712,o),
(282,712,qs),
(218,712,o),
(118,662,o),
(70,564,o),
(70,480,qs),
(70,0,l),
(166,0,l),
(166,474,ls),
(166,534,o),
(196,594,o),
(246,624,o),
(282,624,qs),
(322,624,o),
(360,606,o),
(388,570,o),
(388,542,qs),
(388,514,o),
(352,472,o),
(312,412,o),
(312,376,qs),
(312,338,o),
(354,272,o),
(402,242,qs),
(450,212,o),
(486,170,o),
(486,148,qs),
(486,126,o),
(462,98,o),
(426,88,o),
(388,88,qs),
(264,88,l),
(264,0,l),
(398,0,ls)
);
}
);
width = 620;
},
{
layerId = m007;
shapes = (
{
closed = 1;
nodes = (
(458,0,o),
(528,32.857,o),
(571,98,o),
(572,148,qs),
(571,199,o),
(520,270,o),
(464,300,qs),
(422,322,o),
(380,360,o),
(380,388,qs),
(380,416,o),
(426,470,o),
(466,529,o),
(466,570,qs),
(466,616,o),
(417.143,679.428,o),
(344,712,o),
(284,712,qs),
(218,712,o),
(132.572,664,o),
(85,572,o),
(86,490,qs),
(86,0,l),
(126,0,l),
(126,488,ls),
(126,558,o),
(159.714,635.143,o),
(230,672,o),
(284,672,qs),
(332,672,o),
(390,650.572,o),
(426,606,o),
(426,570,qs),
(426,536,o),
(388,484,o),
(340,425,o),
(340,388,qs),
(340,350,o),
(384,296,o),
(444,266,qs),
(488,244,o),
(532,188,o),
(532,148,qs),
(532,110,o),
(498,64,o),
(444,40,o),
(402,40,qs),
(254,40,l),
(254,0,l),
(404,0,ls)
);
}
);
width = 620;
}
);
metricLeft = n;
unicode = 223;
},
{
glyphname = t;
kernLeft = t;
kernRight = t;
lastChange = "2025-11-18 19:16:08 +0000";
layers = (
{
anchors = (
{
name = bottom;
pos = (250,0);
}
);
layerId = m003;
shapes = (
{
closed = 1;
nodes = (
(104,360,l),
(288,360,l),
(288,600,l),
(104,600,l)
);
},
{
ref = tau.ss02;
}
);
width = 440;
},
{
anchors = (
{
name = bottom;
pos = (271,0);
}
);
layerId = m004;
shapes = (
{
closed = 1;
nodes = (
(136,424,l),
(232,424,l),
(232,600,l),
(136,600,l)
);
},
{
ref = tau.ss02;
}
);
width = 440;
},
{
anchors = (
{
name = bottom;
pos = (293,0);
}
);
layerId = m007;
shapes = (
{
closed = 1;
nodes = (
(160,476,l),
(200,476,l),
(200,600,l),
(160,600,l)
);
},
{
ref = tau.ss02;
}
);
width = 440;
}
);
metricLeft = tau.ss02;
unicode = 116;
userData = {
KernOnName = t;
};
},
{
glyphname = t.ss03;
kernLeft = t;
kernRight = t;
lastChange = "2025-11-18 19:16:02 +0000";
layers = (
{
layerId = m003;
shapes = (
{
closed = 1;
nodes = (
(292,358,l),
(292,600,l),
(108,600,l),
(108,358,l)
);
},
{
closed = 1;
nodes = (
(292,0,l),
(292,358,l),
(388,358,l),
(388,500,l),
(12,500,l),
(12,358,l),
(108,358,l),
(108,0,l)
);
}
);
width = 400;
},
{
layerId = m004;
shapes = (
{
closed = 1;
nodes = (
(248,412,l),
(248,600,l),
(152,600,l),
(152,412,l)
);
},
{
closed = 1;
nodes = (
(248,0,l),
(248,412,l),
(370,412,l),
(370,500,l),
(30,500,l),
(30,412,l),
(152,412,l),
(152,0,l)
);
}
);
width = 400;
},
{
layerId = m007;
shapes = (
{
closed = 1;
nodes = (
(220,460,l),
(220,600,l),
(180,600,l),
(180,460,l)
);
},
{
closed = 1;
nodes = (
(220,0,l),
(220,460,l),
(364,460,l),
(364,500,l),
(36,500,l),
(36,460,l),
(180,460,l),
(180,0,l)
);
}
);
width = 400;
}
);
metricLeft = tau;
metricRight = tau;
userData = {
KernOnName = t;
};
},
{
glyphname = t_circumflexcomb.ss03;
kernLeft = t;
kernRight = t;
lastChange = "2025-11-19 08:28:58 +0000";
layers = (
{
layerId = m003;
shapes = (
{
ref = circumflexcomb;
},
{
closed = 1;
nodes = (
(292,0,l),
(292,358,l),
(388,358,l),
(388,500,l),
(12,500,l),
(12,358,l),
(108,358,l),
(108,0,l)
);
}
);
width = 400;
},
{
layerId = m004;
shapes = (
{
ref = circumflexcomb;
},
{
closed = 1;
nodes = (
(248,0,l),
(248,412,l),
(370,412,l),
(370,500,l),
(30,500,l),
(30,412,l),
(152,412,l),
(152,0,l)
);
}
);
width = 400;
},
{
layerId = m007;
shapes = (
{
ref = circumflexcomb;
},
{
closed = 1;
nodes = (
(220,0,l),
(220,460,l),
(364,460,l),
(364,500,l),
(36,500,l),
(36,460,l),
(180,460,l),
(180,0,l)
);
}
);
width = 400;
}
);
metricLeft = tau;
metricRight = tau;
},
{
glyphname = tbar;
kernLeft = t;
kernRight = t;
lastChange = "2025-11-18 19:16:20 +0000";
layers = (
{
layerId = m003;
shapes = (
{
closed = 1;
nodes = (
(414,204,l),
(414,298,l),
(14,298,l),
(14,204,l)
);
},
{
ref = t;
}
);
width = 440;
},
{
layerId = m004;
shapes = (
{
closed = 1;
nodes = (
(392,214,l),
(392,286,l),
(30,286,l),
(30,214,l)
);
},
{
ref = t;
}
);
width = 440;
},
{
layerId = m007;
shapes = (
{
closed = 1;
nodes = (
(384,230,l),
(384,270,l),
(38,270,l),
(38,230,l)
);
},
{
ref = t;
}
);
width = 440;
}
);
metricLeft = t;
metricRight = t;
unicode = 359;
},
{
glyphname = tbar.ss03;
kernLeft = t;
kernRight = t;
lastChange = "2025-11-18 19:16:17 +0000";
layers = (
{
layerId = m003;
shapes = (
{
closed = 1;
nodes = (
(388,204,l),
(388,298,l),
(14,298,l),
(14,204,l)
);
},
{
ref = t.ss03;
}
);
width = 400;
},
{
layerId = m004;
shapes = (
{
closed = 1;
nodes = (
(370,214,l),
(370,286,l),
(30,286,l),
(30,214,l)
);
},
{
ref = t.ss03;
}
);
width = 400;
},
{
layerId = m007;
shapes = (
{
closed = 1;
nodes = (
(364,230,l),
(364,270,l),
(36,270,l),
(36,230,l)
);
},
{
ref = t.ss03;
}
);
width = 400;
}
);
metricLeft = t.ss03;
metricRight = t.ss03;
},
{
glyphname = tcaron;
kernLeft = t;
kernRight = t;
lastChange = "2025-11-16 14:12:00 +0000";
layers = (
{
anchors = (
{
name = bottom;
pos = (250,0);
}
);
layerId = m003;
shapes = (
{
closed = 1;
nodes = (
(103,393,l),
(235,393,l),
(235,600,l),
(103,600,l)
);
},
{
alignment = -1;
ref = tau.ss02;
},
{
pos = (268,0);
ref = caroncomb.alt;
}
);
width = 440;
},
{
anchors = (
{
name = bottom;
pos = (271,0);
}
);
layerId = m004;
shapes = (
{
closed = 1;
nodes = (
(136,423,l),
(221,423,l),
(221,600,l),
(136,600,l)
);
},
{
alignment = -1;
ref = tau.ss02;
},
{
pos = (249,0);
ref = caroncomb.alt;
}
);
width = 440;
},
{
anchors = (
{
name = bottom;
pos = (293,0);
}
);
layerId = m007;
shapes = (
{
closed = 1;
nodes = (
(160,466,l),
(200,466,l),
(200,600,l),
(160,600,l)
);
},
{
alignment = -1;
ref = tau.ss02;
},
{
pos = (209,0);
ref = caroncomb.alt;
}
);
width = 440;
}
);
metricLeft = t;
unicode = 357;
},
{
glyphname = tcaron.ss03;
kernLeft = t;
kernRight = f;
lastChange = "2025-11-18 15:15:56 +0000";
layers = (
{
layerId = m003;
shapes = (
{
closed = 1;
nodes = (
(203,358,l),
(203,600,l),
(101,600,l),
(101,358,l)
);
},
{
closed = 1;
nodes = (
(292,0,l),
(292,358,l),
(380,358,l),
(380,500,l),
(20,500,l),
(20,358,l),
(108,358,l),
(108,0,l)
);
},
{
pos = (228,0);
ref = caroncomb.alt;
}
);
width = 400;
},
{
layerId = m004;
shapes = (
{
closed = 1;
nodes = (
(214,412,l),
(214,600,l),
(152,600,l),
(152,412,l)
);
},
{
closed = 1;
nodes = (
(248,0,l),
(248,412,l),
(372,412,l),
(372,500,l),
(30,500,l),
(30,412,l),
(152,412,l),
(152,0,l)
);
},
{
pos = (234,0);
ref = caroncomb.alt;
}
);
width = 400;
},
{
layerId = m007;
shapes = (
{
closed = 1;
nodes = (
(220,460,l),
(220,600,l),
(180,600,l),
(180,460,l)
);
},
{
closed = 1;
nodes = (
(220,0,l),
(220,460,l),
(364,460,l),
(364,500,l),
(38,500,l),
(38,460,l),
(180,460,l),
(180,0,l)
);
},
{
pos = (221,0);
ref = caroncomb.alt;
}
);
width = 400;
}
);
},
{
glyphname = tdotaccent.ss03;
kernLeft = t;
kernRight = t;
lastChange = "2025-11-19 08:10:43 +0000";
layers = (
{
layerId = m003;
shapes = (
{
pos = (50,0);
ref = dotaccentcomb;
},
{
closed = 1;
nodes = (
(292,0,l),
(292,358,l),
(387,358,l),
(387,500,l),
(12,500,l),
(12,358,l),
(108,358,l),
(108,0,l)
);
}
);
width = 400;
},
{
layerId = m004;
shapes = (
{
pos = (50,0);
ref = dotaccentcomb;
},
{
closed = 1;
nodes = (
(248,0,l),
(248,412,l),
(370,412,l),
(370,500,l),
(30,500,l),
(30,412,l),
(152,412,l),
(152,0,l)
);
}
);
width = 400;
},
{
layerId = m007;
shapes = (
{
pos = (50,0);
ref = dotaccentcomb;
},
{
closed = 1;
nodes = (
(220,0,l),
(220,460,l),
(364,460,l),
(364,500,l),
(36,500,l),
(36,460,l),
(180,460,l),
(180,0,l)
);
}
);
width = 400;
}
);
metricLeft = tau;
metricRight = tau;
},
{
glyphname = v;
kernLeft = v;
kernRight = v;
lastChange = "2025-11-18 19:26:29 +0000";
layers = (
{
anchors = (
{
name = bottom;
pos = (260,0);
},
{
name = top;
pos = (260,500);
}
);
layerId = m003;
shapes = (
{
closed = 1;
nodes = (
(384,0,l),
(508,500,l),
(330,500,l),
(268,200,l),
(206,500,l),
(12,500,l),
(138,0,l)
);
}
);
width = 520;
},
{
anchors = (
{
name = bottom;
pos = (260,0);
},
{
name = top;
pos = (260,500);
}
);
layerId = m004;
shapes = (
{
closed = 1;
nodes = (
(320,0,l),
(494,500,l),
(390,500,l),
(262,120,l),
(136,500,l),
(26,500,l),
(200,0,l)
);
}
);
width = 520;
},
{
anchors = (
{
name = bottom;
pos = (260,0);
},
{
name = top;
pos = (260,500);
}
);
layerId = m007;
shapes = (
{
closed = 1;
nodes = (
(284,0,l),
(484,500,l),
(440,500,l),
(260,52,l),
(80,500,l),
(36,500,l),
(236,0,l)
);
}
);
width = 520;
}
);
metricLeft = x;
metricRight = x;
unicode = 118;
userData = {
KernOnName = v;
};
},
{
glyphname = w;
kernLeft = w;
kernRight = w;
lastChange = "2025-11-18 19:26:31 +0000";
layers = (
{
anchors = (
{
name = bottom;
pos = (370,0);
},
{
name = top;
pos = (370,500);
}
);
layerId = m003;
shapes = (
{
closed = 1;
nodes = (
(312,0,l),
(368,244,l),
(422,0,l),
(626,0,l),
(728,500,l),
(564,500,l),
(514,220,l),
(458,500,l),
(302,500,l),
(240,220,l),
(196,500,l),
(12,500,l),
(114,0,l)
);
}
);
width = 740;
},
{
anchors = (
{
name = bottom;
pos = (370,0);
},
{
name = top;
pos = (370,500);
}
);
layerId = m004;
shapes = (
{
closed = 1;
nodes = (
(278,0,l),
(370,344,l),
(462,0,l),
(574,0,l),
(714,500,l),
(616,500,l),
(522,128,l),
(416,500,l),
(324,500,l),
(224,128,l),
(132,500,l),
(26,500,l),
(166,0,l)
);
}
);
width = 740;
},
{
anchors = (
{
name = bottom;
pos = (370,0);
},
{
name = top;
pos = (370,500);
}
);
layerId = m007;
shapes = (
{
closed = 1;
nodes = (
(240,0,l),
(370,444,l),
(500,0,l),
(548,0,l),
(704,500,l),
(662,500,l),
(524,56,l),
(394,500,l),
(346,500,l),
(216,56,l),
(78,500,l),
(36,500,l),
(192,0,l)
);
}
);
width = 740;
}
);
metricLeft = x;
metricRight = x;
unicode = 119;
userData = {
KernOnName = w;
};
},
{
glyphname = x;
kernLeft = x;
kernRight = x;
lastChange = "2025-11-18 20:35:21 +0000";
layers = (
{
anchors = (
{
name = bottom;
pos = (270,0);
},
{
name = top;
pos = (270,500);
}
);
layerId = m003;
shapes = (
{
closed = 1;
nodes = (
(198,0,l),
(260,132,l),
(324,0,l),
(528,0,l),
(396,256,l),
(522,502,l),
(338,500,l),
(280,368,l),
(222,500,l),
(18,500,l),
(144,244,l),
(12,0,l)
);
}
);
width = 540;
},
{
anchors = (
{
name = bottom;
pos = (270,0);
},
{
name = top;
pos = (270,500);
}
);
layerId = m004;
shapes = (
{
closed = 1;
nodes = (
(136,0,l),
(266,188,l),
(394,0,l),
(514,0,l),
(336,256,l),
(506,502,l),
(396,500,l),
(274,316,l),
(156,500,l),
(36,500,l),
(204,250,l),
(26,0,l)
);
}
);
width = 540;
},
{
anchors = (
{
name = bottom;
pos = (270,0);
},
{
name = top;
pos = (270,500);
}
);
layerId = m007;
shapes = (
{
closed = 1;
nodes = (
(86,0,l),
(270,224,l),
(454,0,l),
(504,0,l),
(296,250,l),
(496,500,l),
(446,500,l),
(270,278,l),
(94,500,l),
(44,500,l),
(244,250,l),
(36,0,l)
);
}
);
width = 540;
}
);
unicode = 120;
userData = {
KernOnName = x;
};
},
{
glyphname = y;
kernLeft = y;
kernRight = y;
lastChange = "2025-11-18 19:26:39 +0000";
layers = (
{
anchors = (
{
name = bottom;
pos = (220,-200);
},
{
name = top;
pos = (260,500);
}
);
layerId = m003;
shapes = (
{
closed = 1;
nodes = (
(306,-200,l),
(508,500,l),
(332,500,l),
(266,228,l),
(198,500,l),
(12,500,l),
(176,-18,l),
(130,-200,l)
);
}
);
width = 520;
},
{
anchors = (
{
name = bottom;
pos = (211,-200);
},
{
name = top;
pos = (260,500);
}
);
layerId = m004;
shapes = (
{
closed = 1;
nodes = (
(254,-200,l),
(494,500,l),
(390,500,l),
(272,130,l),
(136,500,l),
(26,500,l),
(220,-4,l),
(154,-200,l)
);
}
);
width = 520;
},
{
anchors = (
{
name = bottom;
pos = (203,-200);
},
{
name = top;
pos = (260,500);
}
);
layerId = m007;
shapes = (
{
closed = 1;
nodes = (
(218,-200,l),
(484,500,l),
(440,500,l),
(270,54,l),
(80,500,l),
(36,500,l),
(250,0,l),
(174,-200,l)
);
}
);
width = 520;
}
);
metricLeft = x;
metricRight = x;
unicode = 121;
},
{
glyphname = y.ss02;
kernLeft = "y-tail";
kernRight = y;
lastChange = "2025-11-18 19:26:41 +0000";
layers = (
{
anchors = (
{
name = bottom;
pos = (220,-200);
},
{
name = top;
pos = (260,500);
}
);
layerId = m003;
shapes = (
{
closed = 1;
nodes = (
(176,-200,ls),
(262,-200,o),
(342,-128,o),
(360,-64,qs),
(508,500,l),
(332,500,l),
(266,228,l),
(198,500,l),
(12,500,l),
(178,-18,l),
(174,-30,ls),
(168,-46,o),
(154,-56,o),
(138,-56,qs),
(56,-56,l),
(56,-200,l)
);
}
);
width = 520;
},
{
anchors = (
{
name = bottom;
pos = (211,-200);
},
{
name = top;
pos = (260,500);
}
);
layerId = m004;
shapes = (
{
closed = 1;
nodes = (
(154,-200,ls),
(214,-200,o),
(276,-154,o),
(296,-94,qs),
(494,500,l),
(390,500,l),
(272,130,l),
(136,500,l),
(26,500,l),
(222,-4,l),
(200,-66,ls),
(192,-90,o),
(164,-112,o),
(136,-112,qs),
(76,-112,l),
(76,-200,l)
);
}
);
width = 520;
},
{
anchors = (
{
name = bottom;
pos = (203,-200);
},
{
name = top;
pos = (260,500);
}
);
layerId = m007;
shapes = (
{
closed = 1;
nodes = (
(138,-200,ls),
(185,-200,o),
(232,-163,o),
(250,-118,qs),
(484,500,l),
(438,500,l),
(272,56,l),
(82,500,l),
(36,500,l),
(250,0,l),
(210,-108,ls),
(198,-138,o),
(164,-160,o),
(134,-160,qs),
(88,-160,l),
(88,-200,l)
);
}
);
width = 520;
}
);
metricLeft = x;
metricRight = x;
userData = {
KernOnName = y;
};
},
{
glyphname = z;
kernLeft = z;
kernRight = z;
lastChange = "2025-11-18 19:32:23 +0000";
layers = (
{
anchors = (
{
name = bottom;
pos = (240,0);
},
{
name = top;
pos = (240,500);
}
);
layerId = m003;
shapes = (
{
closed = 1;
nodes = (
(456,0,l),
(456,142,l),
(254,142,l),
(454,388,l),
(454,500,l),
(26,500,l),
(26,358,l),
(222,358,l),
(24,114,l),
(24,0,l)
);
}
);
width = 480;
},
{
anchors = (
{
name = bottom;
pos = (240,0);
},
{
name = top;
pos = (240,500);
}
);
layerId = m004;
shapes = (
{
closed = 1;
nodes = (
(440,0,l),
(440,88,l),
(168,88,l),
(442,428,l),
(442,500,l),
(42,500,l),
(42,412,l),
(314,412,l),
(40,72,l),
(40,0,l)
);
}
);
width = 480;
},
{
anchors = (
{
name = bottom;
pos = (240,0);
},
{
name = top;
pos = (240,500);
}
);
layerId = m007;
shapes = (
{
closed = 1;
nodes = (
(432,0,l),
(432,40,l),
(106,40,l),
(434,470,l),
(434,500,l),
(48,500,l),
(48,460,l),
(378,460,l),
(48,30,l),
(48,0,l)
);
}
);
width = 480;
}
);
unicode = 122;
},
{
glyphname = saltillo;
kernLeft = I;
kernRight = I;
lastChange = "2025-11-18 19:22:15 +0000";
layers = (
{
layerId = m003;
shapes = (
{
closed = 1;
nodes = (
(222,380,l),
(222,600,l),
(222,700,l),
(38,700,l),
(38,600,l),
(38,380,l)
);
}
);
width = 260;
},
{
layerId = m004;
shapes = (
{
closed = 1;
nodes = (
(178,380,l),
(178,600,l),
(178,700,l),
(82,700,l),
(82,600,l),
(82,380,l)
);
}
);
width = 260;
},
{
layerId = m007;
shapes = (
{
closed = 1;
nodes = (
(150,380,l),
(150,600,l),
(150,700,l),
(110,700,l),
(110,600,l),
(110,380,l)
);
}
);
width = 260;
}
);
metricLeft = idotless;
metricRight = idotless;
unicode = 42892;
},
{
export = 0;
glyphname = a.small;
lastChange = "2025-11-18 19:44:17 +0000";
layers = (
{
guides = (
{
},
{
pos = (0,400);
},
{
pos = (0,300);
},
{
pos = (0,-100);
},
{
pos = (0,200);
}
);
layerId = m003;
shapes = (
{
closed = 1;
nodes = (
(156,-4,o),
(192,4,o),
(220,26,o),
(228,38,q),
(228,0,l),
(358,0,l),
(358,182,ls),
(358,226,o),
(318,280,o),
(250,308,o),
(194,308,qs),
(136,308,o),
(66,278,o),
(34,228,o),
(32,200,q),
(164,200,l),
(164,206,o),
(170,216,o),
(182,220,o),
(192,220,qs),
(202,220,o),
(212,214,o),
(220,202,o),
(220,192,qs),
(220,110,ls),
(220,98,o),
(208,84,o),
(192,80,o),
(180,80,qs),
(172,80,o),
(160,82,o),
(154,92,o),
(154,98,qs),
(154,102,o),
(160,110,o),
(174,116,o),
(190,116,qs),
(266,116,l),
(266,184,l),
(168,184,ls),
(120,184,o),
(50,164,o),
(18,120,o),
(18,82,qs),
(18,54,o),
(48,12,o),
(102,-4,o),
(130,-4,qs)
);
}
);
width = 380;
},
{
guides = (
{
pos = (-16,0);
},
{
pos = (-16,400);
},
{
pos = (-16,300);
},
{
pos = (-16,-100);
},
{
pos = (-16,210);
}
);
layerId = m004;
shapes = (
{
closed = 1;
nodes = (
(172,-4,o),
(212,10,o),
(240,28,o),
(252,46,q),
(252,0,l),
(332,0,l),
(332,192,ls),
(332,232,o),
(298,282,o),
(236,308,o),
(192,308,qs),
(146,308,o),
(82,282,o),
(50,234,o),
(50,210,q),
(130,210,l),
(130,220,o),
(144,234,o),
(168,240,o),
(188,240,qs),
(210,240,o),
(232,234,o),
(250,216,o),
(250,196,qs),
(250,126,ls),
(250,102,o),
(226,74,o),
(190,64,o),
(170,64,qs),
(148,64,o),
(126,68,o),
(114,78,o),
(114,88,qs),
(114,100,o),
(132,112,o),
(162,118,o),
(198,118,qs),
(282,118,l),
(282,182,l),
(190,182,ls),
(134,182,o),
(72,166,o),
(34,120,o),
(34,88,qs),
(34,54,o),
(62,16,o),
(108,-4,o),
(140,-4,qs)
);
}
);
width = 380;
},
{
guides = (
{
pos = (-16,0);
},
{
pos = (-16,400);
},
{
pos = (-16,300);
},
{
pos = (-16,-100);
},
{
pos = (-16,220);
}
);
layerId = m007;
shapes = (
{
closed = 1;
nodes = (
(186,-8,o),
(228,6,o),
(262,32,o),
(274,52,q),
(274,0,l),
(314,0,l),
(314,192,ls),
(314,234,o),
(282,284,o),
(226,308,o),
(190,308,qs),
(152,308,o),
(96,286,o),
(64,244,o),
(62,220,q),
(104,220,l),
(106,234,o),
(128,258,o),
(160,268,o),
(188,268,qs),
(216,268,o),
(252,254,o),
(274,222,o),
(274,192,qs),
(274,140,ls),
(274,108,o),
(246,62,o),
(198,32,o),
(158,32,qs),
(134,32,o),
(104,42,o),
(86,62,o),
(86,80,qs),
(86,98,o),
(112,122,o),
(162,130,o),
(206,130,qs),
(298,130,l),
(298,170,l),
(204,170,ls),
(146,170,o),
(80,152,o),
(46,110,o),
(46,80,qs),
(46,50,o),
(72,12,o),
(120,-8,o),
(154,-8,qs)
);
}
);
width = 380;
}
);
userData = {
KernOnName = a;
};
},
{
export = 0;
glyphname = b.small;
lastChange = "2025-11-19 08:29:06 +0000";
layers = (
{
guides = (
{
},
{
pos = (0,400);
},
{
pos = (0,300);
},
{
pos = (0,-100);
}
);
layerId = m003;
shapes = (
{
closed = 1;
nodes = (
(316,-8,o),
(372,30,o),
(408,98,o),
(408,150,qs),
(408,202,o),
(372,270,o),
(316,308,o),
(272,308,qs),
(250,308,o),
(214,300,o),
(186,282,o),
(178,272,q),
(178,400,l),
(24,400,l),
(24,0,l),
(178,0,l),
(178,30,l),
(184,20,o),
(214,0,o),
(250,-8,o),
(272,-8,qs)
);
},
{
closed = 1;
nodes = (
(200,102,o),
(182,114,o),
(174,134,o),
(174,150,qs),
(174,168,o),
(182,186,o),
(200,198,o),
(214,198,qs),
(230,198,o),
(246,186,o),
(256,168,o),
(256,150,qs),
(256,134,o),
(246,114,o),
(230,102,o),
(214,102,qs)
);
}
);
width = 420;
},
{
guides = (
{
pos = (-22,0);
},
{
pos = (-22,400);
},
{
pos = (-22,300);
},
{
pos = (-22,-100);
}
);
layerId = m004;
shapes = (
{
closed = 1;
nodes = (
(282,-8,o),
(348,30,o),
(388,98,o),
(388,150,qs),
(388,202,o),
(348,270,o),
(282,308,o),
(234,308,qs),
(214,308,o),
(178,302,o),
(144,286,o),
(128,272,q),
(128,400,l),
(48,400,l),
(48,0,l),
(128,0,l),
(128,32,l),
(144,14,o),
(178,-2,o),
(214,-8,o),
(234,-8,qs)
);
},
{
closed = 1;
nodes = (
(188,62,o),
(150,80,o),
(126,118,o),
(126,150,qs),
(126,182,o),
(150,220,o),
(188,240,o),
(218,240,qs),
(246,240,o),
(284,220,o),
(308,182,o),
(308,150,qs),
(308,118,o),
(284,80,o),
(246,62,o),
(218,62,qs)
);
}
);
width = 420;
},
{
guides = (
{
pos = (-22,0);
},
{
pos = (-22,400);
},
{
pos = (-22,300);
},
{
pos = (-22,-100);
}
);
layerId = m007;
shapes = (
{
closed = 1;
nodes = (
(266,-8,o),
(332,26,o),
(372,96,o),
(372,150,qs),
(372,204,o),
(332,274,o),
(266,308,o),
(224,308,qs),
(190,308,o),
(148,294,o),
(114,270,o),
(104,254,q),
(104,400,l),
(64,400,l),
(64,0,l),
(104,0,l),
(104,46,l),
(114,30,o),
(148,6,o),
(190,-8,o),
(224,-8,qs)
);
},
{
closed = 1;
nodes = (
(188,32,o),
(136,56,o),
(104,106,o),
(104,150,qs),
(104,194,o),
(136,244,o),
(188,268,o),
(220,268,qs),
(252,268,o),
(302,244,o),
(332,194,o),
(332,150,qs),
(332,106,o),
(302,56,o),
(252,32,o),
(220,32,qs)
);
}
);
width = 420;
}
);
metricLeft = n.small;
metricRight = o.small;
},
{
export = 0;
glyphname = c.small;
lastChange = "2025-11-18 19:44:21 +0000";
layers = (
{
guides = (
{
},
{
pos = (0,400);
},
{
pos = (0,300);
},
{
pos = (0,-100);
},
{
pos = (0,200);
},
{
pos = (0,100);
}
);
layerId = m003;
shapes = (
{
closed = 1;
nodes = (
(256,-8,o),
(322,22,o),
(358,70,o),
(360,100,q),
(220,100,l),
(220,96,o),
(214,86,o),
(206,80,o),
(198,80,qs),
(188,80,o),
(174,92,o),
(166,122,o),
(166,150,qs),
(166,178,o),
(174,208,o),
(188,220,o),
(198,220,qs),
(206,220,o),
(214,214,o),
(220,204,o),
(220,200,q),
(360,200,l),
(358,228,o),
(322,278,o),
(256,308,o),
(198,308,qs),
(136,308,o),
(58,274,o),
(14,206,o),
(14,150,qs),
(14,98,o),
(58,26,o),
(136,-8,o),
(198,-8,qs)
);
}
);
width = 360;
},
{
guides = (
{
pos = (-18,0);
},
{
pos = (-18,400);
},
{
pos = (-18,300);
},
{
pos = (-18,-100);
},
{
pos = (-18,90);
},
{
pos = (-18,210);
}
);
layerId = m004;
shapes = (
{
closed = 1;
nodes = (
(242,-8,o),
(304,18,o),
(340,64,o),
(340,90,q),
(262,90,l),
(260,80,o),
(240,68,o),
(216,64,o),
(196,64,qs),
(172,64,o),
(140,78,o),
(114,114,o),
(114,150,qs),
(114,186,o),
(140,222,o),
(172,236,o),
(196,236,qs),
(216,236,o),
(240,232,o),
(260,220,o),
(262,210,q),
(340,210,l),
(340,236,o),
(304,282,o),
(242,308,o),
(196,308,qs),
(144,308,o),
(76,272,o),
(34,206,o),
(34,150,qs),
(34,96,o),
(76,28,o),
(144,-8,o),
(196,-8,qs)
);
}
);
width = 360;
},
{
guides = (
{
pos = (-18,0);
},
{
pos = (-18,400);
},
{
pos = (-18,300);
},
{
pos = (-18,-100);
},
{
pos = (-18,80);
},
{
pos = (-18,220);
}
);
layerId = m007;
shapes = (
{
closed = 1;
nodes = (
(240,-8,o),
(292,16,o),
(322,58,o),
(324,80,q),
(284,80,l),
(282,66,o),
(256,42,o),
(226,32,o),
(196,32,qs),
(162,32,o),
(118,56,o),
(88,110,o),
(88,150,qs),
(88,192,o),
(118,246,o),
(162,268,o),
(196,268,qs),
(226,268,o),
(256,258,o),
(282,234,o),
(284,220,q),
(324,220,l),
(322,244,o),
(292,284,o),
(240,308,o),
(196,308,qs),
(150,308,o),
(86,272,o),
(48,202,o),
(48,150,qs),
(48,98,o),
(86,30,o),
(150,-8,o),
(196,-8,qs)
);
}
);
width = 360;
}
);
metricLeft = o.small;
userData = {
KernOnName = c;
};
},
{
export = 0;
glyphname = e.small;
lastChange = "2025-11-19 08:12:51 +0000";
layers = (
{
guides = (
{
},
{
pos = (0,400);
},
{
pos = (0,300);
},
{
pos = (0,-100);
},
{
pos = (0,100);
}
);
layerId = m003;
shapes = (
{
closed = 1;
nodes = (
(252,-8,o),
(324,20,o),
(366,74,o),
(368,100,q),
(224,100,l),
(224,94,o),
(220,86,o),
(208,80,o),
(196,80,qs),
(186,80,o),
(168,90,o),
(156,116,o),
(156,146,qs),
(156,156,ls),
(156,188,o),
(166,212,o),
(182,224,o),
(196,224,qs),
(208,224,o),
(220,214,o),
(226,200,o),
(226,188,q),
(100,188,l),
(100,126,l),
(368,126,l),
(368,150,ls),
(368,198,o),
(328,268,o),
(248,308,o),
(194,308,qs),
(136,308,o),
(58,270,o),
(13,198,o),
(13,150,qs),
(13,101,o),
(60,30,o),
(138,-8,o),
(198,-8,qs)
);
}
);
width = 380;
},
{
guides = (
{
pos = (-18,0);
},
{
pos = (-18,400);
},
{
pos = (-18,300);
},
{
pos = (-18,-100);
},
{
pos = (-18,90);
}
);
layerId = m004;
shapes = (
{
closed = 1;
nodes = (
(244,-8,o),
(306,18,o),
(344,66,o),
(346,90,q),
(260,90,l),
(258,80,o),
(240,70,o),
(218,64,o),
(196,64,qs),
(174,64,o),
(138,76,o),
(114,108,o),
(114,146,qs),
(114,156,ls),
(114,194,o),
(138,224,o),
(172,236,o),
(194,236,qs),
(218,236,o),
(246,224,o),
(266,200,o),
(268,182,q),
(82,182,l),
(82,118,l),
(348,118,l),
(348,154,ls),
(348,202,o),
(312,270,o),
(240,308,o),
(194,308,qs),
(146,308,o),
(74,274,o),
(34,204,o),
(34,150,qs),
(34,96,o),
(74,26,o),
(144,-8,o),
(196,-8,qs)
);
}
);
width = 380;
},
{
guides = (
{
pos = (-18,0);
},
{
pos = (-18,400);
},
{
pos = (-18,300);
},
{
pos = (-18,-100);
},
{
pos = (-18,80);
}
);
layerId = m007;
shapes = (
{
closed = 1;
nodes = (
(236,-8,o),
(292,18,o),
(324,60,o),
(326,80,q),
(284,80,l),
(282,70,o),
(260,46,o),
(226,32,o),
(194,32,qs),
(162,32,o),
(116,54,o),
(88,102,o),
(88,146,qs),
(88,154,ls),
(88,198,o),
(116,246,o),
(162,268,o),
(194,268,qs),
(226,268,o),
(268,248,o),
(292,204,o),
(292,170,q),
(64,170,l),
(64,130,l),
(332,130,l),
(332,162,ls),
(332,206,o),
(302,270,o),
(240,308,o),
(194,308,qs),
(150,308,o),
(84,272,o),
(48,206,o),
(48,150,qs),
(48,96,o),
(84,30,o),
(148,-8,o),
(194,-8,qs)
);
}
);
width = 380;
}
);
metricLeft = o.small;
metricRight = o.small;
userData = {
KernOnName = e;
};
},
{
export = 0;
glyphname = f.small;
lastChange = "2025-11-18 19:44:28 +0000";
layers = (
{
guides = (
{
},
{
pos = (0,400);
},
{
pos = (0,300);
},
{
pos = (0,-100);
}
);
layerId = m003;
shapes = (
{
closed = 1;
nodes = (
(268,168,l),
(268,264,l),
(6,264,l),
(6,168,l)
);
},
{
closed = 1;
nodes = (
(198,0,l),
(198,284,ls),
(198,294,o),
(208,304,o),
(218,304,qs),
(268,304,l),
(268,400,l),
(124,400,ls),
(84,400,o),
(44,360,o),
(44,320,qs),
(44,0,l)
);
}
);
width = 280;
},
{
guides = (
{
pos = (-8,0);
},
{
pos = (-8,400);
},
{
pos = (-8,300);
},
{
pos = (-8,-100);
}
);
layerId = m004;
shapes = (
{
closed = 1;
nodes = (
(252,202,l),
(252,274,l),
(16,274,l),
(16,202,l)
);
},
{
closed = 1;
nodes = (
(158,0,l),
(158,288,ls),
(158,308,o),
(178,328,o),
(198,328,qs),
(272,328,l),
(272,400,l),
(178,400,ls),
(130,400,o),
(78,348,o),
(78,300,qs),
(78,0,l)
);
}
);
width = 280;
},
{
guides = (
{
pos = (-8,0);
},
{
pos = (-8,400);
},
{
pos = (-8,300);
},
{
pos = (-8,-100);
}
);
layerId = m007;
shapes = (
{
closed = 1;
nodes = (
(244,260,l),
(244,300,l),
(22,300,l),
(22,260,l)
);
},
{
closed = 1;
nodes = (
(134,0,l),
(134,320,ls),
(134,340,o),
(154,360,o),
(174,360,qs),
(254,360,l),
(254,400,l),
(174,400,ls),
(134,400,o),
(94,360,o),
(94,320,qs),
(94,0,l)
);
}
);
width = 280;
}
);
userData = {
KernOnName = f;
};
},
{
export = 0;
glyphname = g.small;
lastChange = "2025-11-18 19:44:30 +0000";
layers = (
{
guides = (
{
},
{
pos = (0,400);
},
{
pos = (0,300);
},
{
pos = (0,-100);
}
);
layerId = m003;
shapes = (
{
closed = 1;
nodes = (
(262,-108,o),
(340,-88,o),
(398,-26,o),
(398,40,qs),
(398,300,l),
(244,300,l),
(244,270,l),
(238,278,o),
(208,298,o),
(172,308,o),
(146,308,qs),
(106,308,o),
(48,274,o),
(14,214,o),
(14,164,qs),
(14,116,o),
(48,52,o),
(108,20,o),
(144,20,qs),
(172,20,o),
(208,30,o),
(238,50,o),
(244,58,q),
(244,20,ls),
(244,6,o),
(234,-12,o),
(218,-18,o),
(204,-18,qs),
(196,-18,o),
(182,-16,o),
(172,-6,o),
(170,0,q),
(16,0,l),
(18,-36,o),
(64,-88,o),
(148,-108,o),
(204,-108,qs)
);
},
{
closed = 1;
nodes = (
(194,126,o),
(176,132,o),
(166,150,o),
(166,164,qs),
(166,178,o),
(176,196,o),
(194,202,o),
(206,202,qs),
(218,202,o),
(234,196,o),
(246,178,o),
(246,164,qs),
(246,150,o),
(234,132,o),
(218,126,o),
(206,126,qs)
);
}
);
width = 420;
},
{
guides = (
{
pos = (-16,0);
},
{
pos = (-16,400);
},
{
pos = (-16,300);
},
{
pos = (-16,-100);
}
);
layerId = m004;
shapes = (
{
closed = 1;
nodes = (
(250,-108,o),
(320,-90,o),
(374,-32,o),
(374,32,qs),
(374,300,l),
(294,300,l),
(294,270,l),
(282,282,o),
(256,298,o),
(210,308,o),
(184,308,qs),
(140,308,o),
(72,272,o),
(34,208,o),
(34,164,qs),
(34,118,o),
(72,52,o),
(142,18,o),
(184,18,qs),
(212,18,o),
(256,30,o),
(282,48,o),
(294,60,q),
(294,22,ls),
(294,-10,o),
(262,-34,o),
(228,-40,o),
(204,-40,qs),
(182,-40,o),
(154,-36,o),
(130,-22,o),
(128,-8,q),
(44,-8,l),
(46,-40,o),
(88,-88,o),
(158,-108,o),
(204,-108,qs)
);
},
{
closed = 1;
nodes = (
(178,92,o),
(138,104,o),
(114,140,o),
(114,164,qs),
(114,188,o),
(138,222,o),
(178,236,o),
(204,236,qs),
(230,236,o),
(268,222,o),
(294,188,o),
(294,164,qs),
(294,140,o),
(268,104,o),
(230,92,o),
(204,92,qs)
);
}
);
width = 420;
},
{
guides = (
{
pos = (-16,0);
},
{
pos = (-16,400);
},
{
pos = (-16,300);
},
{
pos = (-16,-100);
}
);
layerId = m007;
shapes = (
{
closed = 1;
nodes = (
(244,-108,o),
(312,-88,o),
(360,-32,o),
(360,28,qs),
(360,300,l),
(320,300,l),
(320,258,l),
(308,272,o),
(274,294,o),
(226,308,o),
(196,308,qs),
(152,308,o),
(84,270,o),
(48,206,o),
(48,160,qs),
(48,116,o),
(84,54,o),
(152,18,o),
(196,18,qs),
(230,18,o),
(274,32,o),
(308,54,o),
(320,70,q),
(320,28,ls),
(320,-16,o),
(288,-54,o),
(240,-68,o),
(204,-68,qs),
(170,-68,o),
(134,-60,o),
(104,-36,o),
(102,-16,q),
(62,-16,l),
(64,-44,o),
(104,-90,o),
(164,-108,o),
(204,-108,qs)
);
},
{
closed = 1;
nodes = (
(166,58,o),
(118,80,o),
(88,124,o),
(88,160,qs),
(88,198,o),
(118,244,o),
(166,268,o),
(204,268,qs),
(238,268,o),
(288,244,o),
(320,200,o),
(320,162,qs),
(320,126,o),
(288,80,o),
(238,58,o),
(204,58,qs)
);
}
);
width = 420;
}
);
metricLeft = o.small;
metricRight = n.small;
userData = {
KernOnName = g;
};
},
{
export = 0;
glyphname = glottalstop;
kernLeft = C;
kernRight = S;
lastChange = "2025-11-18 18:50:29 +0000";
layers = (
{
guides = (
{
pos = (-8,480);
}
);
layerId = m003;
shapes = (
{
closed = 1;
nodes = (
(356,0,l),
(356,130,ls),
(356,152,o),
(366,180,o),
(384,192,qs),
(446,238,ls),
(498,276,o),
(576,386,o),
(576,472,qs),
(576,554,o),
(504,658,o),
(386,712,o),
(298,712,qs),
(216,712,o),
(92,662,o),
(18,550,o),
(16,480,q),
(210,480,l),
(212,504,o),
(230,544,o),
(268,564,o),
(298,564,qs),
(328,564,o),
(360,544,o),
(380,510,o),
(380,480,qs),
(380,442,o),
(338,386,o),
(300,356,qs),
(230,300,ls),
(198,276,o),
(168,202,o),
(168,146,qs),
(168,0,l)
);
}
);
width = 600;
},
{
guides = (
{
pos = (-8,510);
}
);
layerId = m004;
shapes = (
{
closed = 1;
nodes = (
(314,0,l),
(314,128,ls),
(314,166,o),
(338,212,o),
(362,230,qs),
(426,280,ls),
(482,324,o),
(552,428,o),
(552,500,qs),
(552,576,o),
(482,666,o),
(374,712,o),
(298,712,qs),
(222,712,o),
(110,662,o),
(46,570,o),
(44,510,q),
(144,510,l),
(146,542,o),
(186,594,o),
(250,620,o),
(298,620,qs),
(348,620,o),
(410,596,o),
(452,546,o),
(452,500,qs),
(452,456,o),
(404,386,o),
(362,354,qs),
(286,292,ls),
(254,266,o),
(214,192,o),
(214,138,qs),
(214,0,l)
);
}
);
width = 600;
},
{
guides = (
{
pos = (-8,520);
}
);
layerId = m007;
shapes = (
{
closed = 1;
nodes = (
(290,0,l),
(290,122,ls),
(290,182,o),
(312,232,o),
(350,258,qs),
(406,298,ls),
(466,342,o),
(534,442,o),
(534,506,qs),
(534,580,o),
(470,668,o),
(372,712,o),
(294,712,qs),
(222,712,o),
(118,666,o),
(58,574,o),
(56,520,q),
(96,520,l),
(98,564,o),
(148,638,o),
(234,672,o),
(294,672,qs),
(358,672,o),
(440,642,o),
(494,570,o),
(494,506,qs),
(494,452,o),
(430,366,o),
(380,330,qs),
(320,286,ls),
(280,256,o),
(250,194,o),
(250,126,qs),
(250,0,l)
);
}
);
width = 600;
}
);
unicode = 660;
},
{
export = 0;
glyphname = glottalstopreversed.small;
lastChange = "2025-11-18 19:45:59 +0000";
layers = (
{
guides = (
{
},
{
pos = (0,400);
},
{
pos = (0,-100);
},
{
pos = (0,280);
}
);
layerId = m003;
shapes = (
{
closed = 1;
nodes = (
(280,84,ls),
(280,134,o),
(256,180,o),
(232,200,qs),
(212,216,ls),
(192,234,o),
(166,266,o),
(166,282,qs),
(166,292,o),
(172,300,o),
(182,306,o),
(192,306,qs),
(202,306,o),
(210,300,o),
(216,290,o),
(216,280,q),
(360,280,l),
(358,324,o),
(316,380,o),
(248,408,o),
(188,408,qs),
(132,408,o),
(54,376,o),
(14,314,o),
(14,270,qs),
(14,232,o),
(42,168,o),
(72,144,qs),
(94,128,ls),
(110,114,o),
(128,90,o),
(128,68,qs),
(128,0,l),
(280,0,l)
);
}
);
width = 360;
},
{
guides = (
{
pos = (-18,0);
},
{
pos = (-18,400);
},
{
pos = (-18,290);
},
{
pos = (-18,-100);
}
);
layerId = m004;
shapes = (
{
closed = 1;
nodes = (
(244,76,ls),
(244,120,o),
(216,164,o),
(188,182,qs),
(164,200,ls),
(136,218,o),
(118,256,o),
(118,278,qs),
(118,296,o),
(134,322,o),
(166,336,o),
(188,336,qs),
(210,336,o),
(242,328,o),
(258,308,o),
(258,290,q),
(340,290,l),
(340,326,o),
(302,380,o),
(236,408,o),
(186,408,qs),
(140,408,o),
(72,376,o),
(34,316,o),
(34,278,qs),
(34,234,o),
(66,170,o),
(100,148,qs),
(126,130,ls),
(146,116,o),
(160,92,o),
(160,68,qs),
(160,0,l),
(244,0,l)
);
}
);
width = 360;
},
{
guides = (
{
pos = (-18,0);
},
{
pos = (-18,400);
},
{
pos = (-18,300);
},
{
pos = (-18,-100);
}
);
layerId = m007;
shapes = (
{
closed = 1;
nodes = (
(226,66,ls),
(226,98,o),
(204,140,o),
(178,158,qs),
(150,178,ls),
(118,198,o),
(88,242,o),
(88,276,qs),
(88,312,o),
(114,350,o),
(154,368,o),
(188,368,qs),
(216,368,o),
(254,356,o),
(282,326,o),
(284,300,q),
(324,300,l),
(322,336,o),
(282.857,384.857,o),
(228,408,o),
(188,408,qs),
(148,408,o),
(86,382,o),
(48,326,o),
(48,276,qs),
(48,234,o),
(90,170,o),
(122,148,qs),
(152,128,ls),
(176,112,o),
(185,84,o),
(186,64,qs),
(186,0,l),
(226,0,l)
);
}
);
width = 360;
}
);
metricLeft = c.small;
metricRight = c.small;
},
{
export = 0;
glyphname = glottalstopsmall;
lastChange = "2025-11-18 16:18:53 +0000";
layers = (
{
guides = (
{
pos = (-8,330);
}
);
layerId = m003;
shapes = (
{
closed = 1;
nodes = (
(302,0,l),
(302,74,ls),
(302,91,o),
(315,114,o),
(330,128,qs),
(375,166,ls),
(413,197,o),
(459,270,o),
(459,327,qs),
(459,379,o),
(407.333,464,o),
(307,512,o),
(238,512,qs),
(163,512,o),
(68.667,469.333,o),
(12,388,o),
(12,330,q),
(182,330,l),
(182,348,o),
(190.667,375.333,o),
(212,389,o),
(231,389,qs),
(249,389,o),
(270,375.333,o),
(281,351,o),
(281,327,qs),
(281,301,o),
(264,273,o),
(246,259,qs),
(197,221,ls),
(165,196,o),
(137,143,o),
(137,108,qs),
(137,0,l)
);
}
);
width = 480;
},
{
guides = (
{
pos = (-8,350);
}
);
layerId = m004;
shapes = (
{
closed = 1;
nodes = (
(258,0,l),
(258,46,ls),
(258,80,o),
(274,116,o),
(298,136,qs),
(348,176,ls),
(398,216,o),
(436,286,o),
(436,340,qs),
(436,394,o),
(384,474,o),
(294,512,o),
(234,512,qs),
(172,512,o),
(78,468,o),
(32,390,o),
(30,350,q),
(126,350,l),
(128,374,o),
(160,410,o),
(204,424,o),
(232,424,qs),
(268,424,o),
(310,408,o),
(340,370,o),
(340,340,qs),
(340,304,o),
(310,264,o),
(282,240,qs),
(222,192,ls),
(190,168,o),
(162,106,o),
(162,62,qs),
(162,0,l)
);
}
);
width = 480;
},
{
guides = (
{
pos = (-8,360);
}
);
layerId = m007;
shapes = (
{
closed = 1;
nodes = (
(236,0,l),
(236,28,ls),
(235,71,o),
(252,120,o),
(284,146,qs),
(336,190,ls),
(385,230,o),
(423,298,o),
(424,346,qs),
(423,398,o),
(374.572,472,o),
(293,512,o),
(232,512,qs),
(176,512,o),
(87.143,469.714,o),
(42,392,o),
(42,360,q),
(80,360,l),
(80,384,o),
(117.143,446.572,o),
(188,479,o),
(232,480,qs),
(282,479,o),
(345.428,447.714,o),
(384,389,o),
(384,346,qs),
(384,305,o),
(352,251,o),
(312,216,qs),
(256,170,ls),
(223,143,o),
(197,82,o),
(198,30,qs),
(198,0,l)
);
}
);
width = 480;
}
);
unicode = 578;
},
{
export = 0;
glyphname = h.small;
lastChange = "2025-11-18 19:44:33 +0000";
layers = (
{
guides = (
{
},
{
pos = (0,400);
},
{
pos = (0,300);
},
{
pos = (0,-100);
}
);
layerId = m003;
shapes = (
{
closed = 1;
nodes = (
(178,0,l),
(178,148,ls),
(178,162,o),
(182,174,o),
(194,186,o),
(204,186,qs),
(212,186,o),
(220,180,o),
(224,174,o),
(224,166,qs),
(224,0,l),
(378,0,l),
(378,194,ls),
(378,238,o),
(348,288,o),
(302,312,o),
(274,312,qs),
(242,312,o),
(202,294,o),
(178,270,o),
(170,254,q),
(170,400,l),
(24,400,l),
(24,0,l)
);
}
);
width = 400;
},
{
guides = (
{
pos = (-22,0);
},
{
pos = (-22,400);
},
{
pos = (-22,300);
},
{
pos = (-22,-100);
}
);
layerId = m004;
shapes = (
{
closed = 1;
nodes = (
(128,0,l),
(128,156,ls),
(128,186,o),
(150,218,o),
(184,232,o),
(204,232,qs),
(226,232,o),
(254,222,o),
(274,196,o),
(274,174,qs),
(274,0,l),
(354,0,l),
(354,192,ls),
(354,236,o),
(312,288,o),
(258,308,o),
(226,308,qs),
(204,308,o),
(168,298,o),
(138,278,o),
(128,266,q),
(128,400,l),
(48,400,l),
(48,0,l)
);
}
);
width = 400;
},
{
guides = (
{
pos = (-22,0);
},
{
pos = (-22,400);
},
{
pos = (-22,300);
},
{
pos = (-22,-100);
}
);
layerId = m007;
shapes = (
{
closed = 1;
nodes = (
(104,0,l),
(104,160,ls),
(104,202,o),
(134,248,o),
(180,268,o),
(208,268,qs),
(236,268,o),
(274,252,o),
(300,214,o),
(300,180,qs),
(300,0,l),
(340,0,l),
(340,192,ls),
(340,234,o),
(306,284,o),
(250,308,o),
(214,308,qs),
(182,308,o),
(138,290,o),
(110,264,o),
(104,254,q),
(104,400,l),
(64,400,l),
(64,0,l)
);
}
);
width = 400;
}
);
metricLeft = n.small;
metricRight = n.small;
},
{
export = 0;
glyphname = hhook.small;
lastChange = "2025-11-18 19:46:01 +0000";
layers = (
{
guides = (
{
},
{
pos = (0,400);
},
{
pos = (0,300);
},
{
pos = (0,-100);
}
);
layerId = m003;
shapes = (
{
closed = 1;
nodes = (
(24,0,l),
(178,0,l),
(178,104,ls),
(178,118,o),
(182,132,o),
(194,142,o),
(204,142,qs),
(212,142,o),
(220,134,o),
(224,126,o),
(224,120,qs),
(224,0,l),
(378,0,l),
(378,154,ls),
(378,198,o),
(352,244,o),
(310,268,o),
(280,268,qs),
(250,268,o),
(206,250,o),
(180,226,o),
(170,210,q),
(170,274,ls),
(170,290,o),
(184,304,o),
(200,304,qs),
(288,304,l),
(288,400,l),
(136,400,ls),
(82,400,o),
(24,350,o),
(24,296,qs)
);
}
);
width = 400;
},
{
guides = (
{
pos = (-22,0);
},
{
pos = (-22,400);
},
{
pos = (-22,300);
},
{
pos = (-22,-100);
}
);
layerId = m004;
shapes = (
{
closed = 1;
nodes = (
(48,0,l),
(128,0,l),
(128,116,ls),
(128,146,o),
(148,178,o),
(184,192,o),
(206,192,qs),
(224,192,o),
(252,182,o),
(274,156,o),
(274,134,qs),
(274,0,l),
(354,0,l),
(354,148,ls),
(354,194,o),
(314,246,o),
(258,268,o),
(222,268,qs),
(200,268,o),
(160,256,o),
(136,240,o),
(128,230,q),
(128,288,ls),
(128,308,o),
(148,328,o),
(168,328,qs),
(288,328,l),
(288,400,l),
(158,400,ls),
(104,400,o),
(48,344,o),
(48,290,qs)
);
}
);
width = 400;
},
{
guides = (
{
pos = (-22,0);
},
{
pos = (-22,400);
},
{
pos = (-22,300);
},
{
pos = (-22,-100);
}
);
layerId = m007;
shapes = (
{
closed = 1;
nodes = (
(64,0,l),
(104,0,l),
(104,120,ls),
(104,162,o),
(134,208,o),
(182,228,o),
(206,228,qs),
(234,228,o),
(274,214,o),
(300,174,o),
(300,140,qs),
(300,0,l),
(340,0,l),
(340,152,ls),
(340,194,o),
(300,248,o),
(246,268,o),
(210,268,qs),
(184,268,o),
(146,256,o),
(116,236,o),
(104,220,q),
(104,320,ls),
(104,340,o),
(124,360,o),
(144,360,qs),
(288,360,l),
(288,400,l),
(144,400,ls),
(104,400,o),
(64,360,o),
(64,320,qs)
);
}
);
width = 400;
}
);
},
{
export = 0;
glyphname = i.small;
lastChange = "2025-11-18 19:44:36 +0000";
layers = (
{
guides = (
{
},
{
pos = (0,400);
},
{
pos = (0,300);
},
{
pos = (0,-100);
}
);
layerId = m003;
shapes = (
{
closed = 1;
nodes = (
(178,0,l),
(178,300,l),
(24,300,l),
(24,0,l)
);
},
{
closed = 1;
nodes = (
(142,328,o),
(188,362,o),
(188,388,qs),
(188,392,ls),
(188,418,o),
(142,452,o),
(100,452,qs),
(58,452,o),
(14,418,o),
(14,392,qs),
(14,388,ls),
(14,362,o),
(58,328,o),
(100,328,qs)
);
}
);
width = 200;
},
{
guides = (
{
pos = (-32,0);
},
{
pos = (-32,400);
},
{
pos = (-32,300);
},
{
pos = (-32,-100);
}
);
layerId = m004;
shapes = (
{
closed = 1;
nodes = (
(140,0,l),
(140,300,l),
(60,300,l),
(60,0,l)
);
},
{
closed = 1;
nodes = (
(130,346,o),
(156,368,o),
(156,386,qs),
(156,388,ls),
(156,406,o),
(130,428,o),
(100,428,qs),
(72,428,o),
(44,406,o),
(44,388,qs),
(44,386,ls),
(44,368,o),
(72,346,o),
(100,346,qs)
);
}
);
width = 200;
},
{
guides = (
{
pos = (-32,0);
},
{
pos = (-32,400);
},
{
pos = (-32,300);
},
{
pos = (-32,-100);
}
);
layerId = m007;
shapes = (
{
closed = 1;
nodes = (
(120,0,l),
(120,300,l),
(80,300,l),
(80,0,l)
);
},
{
closed = 1;
nodes = (
(116,360,o),
(132,374,o),
(132,386,qs),
(132,388,ls),
(132,400,o),
(116,414,o),
(100,414,qs),
(84,414,o),
(68,400,o),
(68,388,qs),
(68,386,ls),
(68,374,o),
(84,360,o),
(100,360,qs)
);
}
);
width = 200;
}
);
userData = {
KernOnName = i;
};
},
{
export = 0;
glyphname = j.small;
lastChange = "2025-11-18 19:44:38 +0000";
layers = (
{
guides = (
{
},
{
pos = (0,400);
},
{
pos = (0,300);
},
{
pos = (0,-100);
}
);
layerId = m003;
shapes = (
{
closed = 1;
nodes = (
(24,300,l),
(24,18,ls),
(24,8,o),
(14,-2,o),
(4,-2,qs),
(-20,-2,l),
(-20,-100,l),
(98,-100,ls),
(138,-100,o),
(178,-60,o),
(178,-20,qs),
(178,300,l)
);
},
{
closed = 1;
nodes = (
(142,328,o),
(188,362,o),
(188,388,qs),
(188,392,ls),
(188,418,o),
(142,452,o),
(100,452,qs),
(58,452,o),
(14,418,o),
(14,392,qs),
(14,388,ls),
(14,362,o),
(58,328,o),
(100,328,qs)
);
}
);
width = 200;
},
{
guides = (
{
},
{
pos = (0,400);
},
{
pos = (0,300);
},
{
pos = (0,-100);
}
);
layerId = m004;
shapes = (
{
closed = 1;
nodes = (
(60,300,l),
(60,12,ls),
(60,-8,o),
(40,-28,o),
(20,-28,qs),
(-20,-28,l),
(-20,-100,l),
(40,-100,ls),
(88,-100,o),
(140,-48,o),
(140,0,qs),
(140,300,l)
);
},
{
closed = 1;
nodes = (
(130,346,o),
(156,368,o),
(156,386,qs),
(156,388,ls),
(156,406,o),
(130,428,o),
(100,428,qs),
(72,428,o),
(44,406,o),
(44,388,qs),
(44,386,ls),
(44,368,o),
(72,346,o),
(100,346,qs)
);
}
);
width = 200;
},
{
guides = (
{
},
{
pos = (0,400);
},
{
pos = (0,300);
},
{
pos = (0,-100);
}
);
layerId = m007;
shapes = (
{
closed = 1;
nodes = (
(80,300,l),
(80,-20,ls),
(80,-40,o),
(60,-60,o),
(40,-60,qs),
(-20,-60,l),
(-20,-100,l),
(40,-100,ls),
(80,-100,o),
(120,-60,o),
(120,-20,qs),
(120,300,l)
);
},
{
closed = 1;
nodes = (
(116,360,o),
(132,374,o),
(132,386,qs),
(132,388,ls),
(132,400,o),
(116,414,o),
(100,414,qs),
(84,414,o),
(68,400,o),
(68,388,qs),
(68,386,ls),
(68,374,o),
(84,360,o),
(100,360,qs)
);
}
);
width = 200;
}
);
metricRight = i.small;
userData = {
KernOnName = j;
};
},
{
export = 0;
glyphname = k.small;
lastChange = "2025-11-18 19:44:39 +0000";
layers = (
{
guides = (
{
},
{
pos = (0,400);
},
{
pos = (0,300);
},
{
pos = (0,-100);
}
);
layerId = m003;
shapes = (
{
closed = 1;
nodes = (
(178,0,l),
(178,100,l),
(184,110,l),
(234,0,l),
(396,0,l),
(308,186,l),
(398,300,l),
(240,300,l),
(178,210,l),
(178,400,l),
(24,400,l),
(24,0,l)
);
}
);
width = 400;
},
{
guides = (
{
pos = (-22,0);
},
{
pos = (-22,400);
},
{
pos = (-22,300);
},
{
pos = (-22,-100);
}
);
layerId = m004;
shapes = (
{
closed = 1;
nodes = (
(128,0,l),
(128,92,l),
(186,144,l),
(280,0,l),
(376,0,l),
(252,188,l),
(378,300,l),
(270,300,l),
(128,178,l),
(128,400,l),
(48,400,l),
(48,0,l)
);
}
);
width = 400;
},
{
guides = (
{
pos = (-22,0);
},
{
pos = (-22,400);
},
{
pos = (-22,300);
},
{
pos = (-22,-100);
}
);
layerId = m007;
shapes = (
{
closed = 1;
nodes = (
(104,0,l),
(104,102,l),
(194,172,l),
(318,0,l),
(364,0,l),
(224,194,l),
(360,300,l),
(302,300,l),
(104,148,l),
(104,400,l),
(64,400,l),
(64,0,l)
);
}
);
width = 400;
}
);
metricLeft = n.small;
metricRight = x.small;
userData = {
KernOnName = k;
};
},
{
export = 0;
glyphname = l.small;
lastChange = "2025-11-18 19:44:45 +0000";
layers = (
{
guides = (
{
},
{
pos = (0,400);
},
{
pos = (0,300);
},
{
pos = (0,-100);
}
);
layerId = m003;
shapes = (
{
closed = 1;
nodes = (
(178,0,l),
(178,400,l),
(24,400,l),
(24,0,l)
);
}
);
width = 200;
},
{
guides = (
{
pos = (-34,0);
},
{
pos = (-34,400);
},
{
pos = (-34,300);
},
{
pos = (-34,-100);
}
);
layerId = m004;
shapes = (
{
closed = 1;
nodes = (
(140,0,l),
(140,400,l),
(60,400,l),
(60,0,l)
);
}
);
width = 200;
},
{
guides = (
{
pos = (-34,0);
},
{
pos = (-34,400);
},
{
pos = (-34,300);
},
{
pos = (-34,-100);
}
);
layerId = m007;
shapes = (
{
closed = 1;
nodes = (
(120,0,l),
(120,400,l),
(80,400,l),
(80,0,l)
);
}
);
width = 200;
}
);
},
{
export = 0;
glyphname = m.small;
lastChange = "2025-11-18 19:44:47 +0000";
layers = (
{
guides = (
{
},
{
pos = (0,400);
},
{
pos = (0,300);
},
{
pos = (0,-100);
}
);
layerId = m003;
shapes = (
{
closed = 1;
nodes = (
(178,0,l),
(178,140,ls),
(178,162,o),
(194,182,o),
(206,182,qs),
(214,182,o),
(224,172,o),
(224,162,qs),
(224,0,l),
(378,0,l),
(378,140,ls),
(378,162,o),
(394,182,o),
(406,182,qs),
(414,182,o),
(424,172,o),
(424,162,qs),
(424,0,l),
(578,0,l),
(578,192,ls),
(578,248,o),
(510,306,o),
(458,306,qs),
(422,306,o),
(356,274,o),
(342,242,q),
(338,274,o),
(294,306,o),
(264,306,qs),
(232,306,o),
(188,278,o),
(178,256,q),
(178,300,l),
(24,300,l),
(24,0,l)
);
}
);
width = 600;
},
{
guides = (
{
pos = (-22,0);
},
{
pos = (-22,400);
},
{
pos = (-22,300);
},
{
pos = (-22,-100);
}
);
layerId = m004;
shapes = (
{
closed = 1;
nodes = (
(128,0,l),
(128,168,ls),
(128,196,o),
(168,232,o),
(200,232,qs),
(228,232,o),
(260,204,o),
(260,180,qs),
(260,0,l),
(340,0,l),
(340,168,ls),
(340,196,o),
(382,232,o),
(414,232,qs),
(442,232,o),
(474,204,o),
(474,180,qs),
(474,0,l),
(554,0,l),
(554,196,ls),
(554,248,o),
(488,308,o),
(432,308,qs),
(396,308,o),
(340,274,o),
(326,250,q),
(316,276,o),
(264,308,o),
(228,308,qs),
(192,308,o),
(144,286,o),
(128,268,q),
(128,300,l),
(48,300,l),
(48,0,l)
);
}
);
width = 600;
},
{
guides = (
{
pos = (-22,0);
},
{
pos = (-22,400);
},
{
pos = (-22,300);
},
{
pos = (-22,-100);
}
);
layerId = m007;
shapes = (
{
closed = 1;
nodes = (
(104,0,l),
(104,188,ls),
(104,222,o),
(158,268,o),
(196,268,qs),
(236,268,o),
(280,222,o),
(280,186,qs),
(280,0,l),
(320,0,l),
(320,184,ls),
(320,222,o),
(370,268,o),
(412,268,qs),
(454,268,o),
(500,228,o),
(500,188,qs),
(500,0,l),
(540,0,l),
(540,188,ls),
(540,246,o),
(470,308,o),
(414,308,qs),
(374,308,o),
(322,278,o),
(306,252,q),
(294,278,o),
(240,308,o),
(200,308,qs),
(164,308,o),
(114,280,o),
(104,262,q),
(104,300,l),
(64,300,l),
(64,0,l)
);
}
);
width = 600;
}
);
metricLeft = n.small;
metricRight = n.small;
},
{
export = 0;
glyphname = o.small;
lastChange = "2025-11-18 19:44:51 +0000";
layers = (
{
guides = (
{
},
{
pos = (0,400);
},
{
pos = (0,300);
},
{
pos = (0,-100);
}
);
layerId = m003;
shapes = (
{
closed = 1;
nodes = (
(260,-8,o),
(342,30,o),
(388,100,o),
(388,150,qs),
(388,200,o),
(342,270,o),
(260,308,o),
(200,308,qs),
(142,308,o),
(60,270,o),
(14,200,o),
(14,150,qs),
(14,100,o),
(60,30,o),
(142,-8,o),
(200,-8,qs)
);
},
{
closed = 1;
nodes = (
(186,98,o),
(172,112,o),
(166,136,o),
(166,150,qs),
(166,166,o),
(172,188,o),
(186,204,o),
(200,204,qs),
(216,204,o),
(228,188,o),
(234,166,o),
(234,150,qs),
(234,136,o),
(228,112,o),
(216,98,o),
(200,98,qs)
);
}
);
width = 400;
},
{
guides = (
{
pos = (-18,0);
},
{
pos = (-18,400);
},
{
pos = (-18,300);
},
{
pos = (-18,-100);
}
);
layerId = m004;
shapes = (
{
closed = 1;
nodes = (
(254,-8,o),
(326,30,o),
(368,98,o),
(368,150,qs),
(368,202,o),
(326,270,o),
(254,308,o),
(200,308,qs),
(150,308,o),
(76,270,o),
(34,202,o),
(34,150,qs),
(34,98,o),
(76,30,o),
(150,-8,o),
(200,-8,qs)
);
},
{
closed = 1;
nodes = (
(176,64,o),
(136,82,o),
(114,122,o),
(114,150,qs),
(114,180,o),
(136,218,o),
(176,236,o),
(200,236,qs),
(226,236,o),
(264,218,o),
(288,180,o),
(288,150,qs),
(288,122,o),
(264,82,o),
(226,64,o),
(200,64,qs)
);
}
);
width = 400;
},
{
guides = (
{
pos = (-18,0);
},
{
pos = (-18,400);
},
{
pos = (-18,300);
},
{
pos = (-18,-100);
}
);
layerId = m007;
shapes = (
{
closed = 1;
nodes = (
(246,-8,o),
(314,30,o),
(352,98,o),
(352,150,qs),
(352,204,o),
(314,270,o),
(246,308,o),
(200,308,qs),
(156,308,o),
(86,270,o),
(48,204,o),
(48,150,qs),
(48,98,o),
(86,30,o),
(156,-8,o),
(200,-8,qs)
);
},
{
closed = 1;
nodes = (
(166,32,o),
(118,58,o),
(88,108,o),
(88,150,qs),
(88,192,o),
(118,242,o),
(166,268,o),
(200,268,qs),
(234,268,o),
(282,242,o),
(312,192,o),
(312,150,qs),
(312,108,o),
(282,58,o),
(234,32,o),
(200,32,qs)
);
}
);
width = 400;
}
);
userData = {
KernOnName = o;
};
},
{
export = 0;
glyphname = r.small;
lastChange = "2025-11-18 19:44:56 +0000";
layers = (
{
guides = (
{
},
{
pos = (0,400);
},
{
pos = (0,300);
},
{
pos = (0,-100);
}
);
layerId = m003;
shapes = (
{
closed = 1;
nodes = (
(178,0,l),
(178,104,ls),
(178,138,o),
(206,174,o),
(240,174,qs),
(272,174,l),
(272,300,l),
(244,300,ls),
(222,300,o),
(186,280,o),
(178,258,q),
(178,300,l),
(24,300,l),
(24,0,l)
);
}
);
width = 280;
},
{
guides = (
{
pos = (-22,0);
},
{
pos = (-22,400);
},
{
pos = (-22,300);
},
{
pos = (-22,-100);
}
);
layerId = m004;
shapes = (
{
closed = 1;
nodes = (
(132,0,l),
(132,126,ls),
(132,174,o),
(176,220,o),
(216,220,qs),
(254,220,l),
(254,300,l),
(218,300,ls),
(188,300,o),
(142,274,o),
(132,250,q),
(132,300,l),
(48,300,l),
(48,0,l)
);
}
);
width = 280;
},
{
guides = (
{
pos = (-22,0);
},
{
pos = (-22,400);
},
{
pos = (-22,300);
},
{
pos = (-22,-100);
}
);
layerId = m007;
shapes = (
{
closed = 1;
nodes = (
(104,0,l),
(104,142,ls),
(104,204,o),
(152,260,o),
(200,260,qs),
(244,260,l),
(244,300,l),
(200,300,ls),
(163,300,o),
(114,274,o),
(104,252,q),
(104,300,l),
(64,300,l),
(64,0,l)
);
}
);
width = 280;
}
);
metricLeft = n.small;
userData = {
KernOnName = r;
};
},
{
export = 0;
glyphname = s.small;
lastChange = "2025-11-18 19:44:59 +0000";
layers = (
{
guides = (
{
},
{
pos = (0,400);
},
{
pos = (0,300);
},
{
pos = (0,-100);
},
{
pos = (0,200);
},
{
pos = (0,100);
}
);
layerId = m003;
shapes = (
{
closed = 1;
nodes = (
(236,-8,o),
(306,10,o),
(352,58,o),
(352,94,qs),
(352,126,o),
(328,164,o),
(280,184,o),
(246,188,qs),
(182,196,ls),
(168,198,o),
(160,202,o),
(156,208,o),
(156,214,qs),
(156,218,o),
(162,224,o),
(170,226,o),
(180,226,qs),
(190,226,o),
(200,222,o),
(204,210,o),
(204,200,q),
(350,200,l),
(350,238,o),
(304,288,o),
(230,308,o),
(176,308,qs),
(122,308,o),
(48,284,o),
(10,240,o),
(10,210,qs),
(10,178,o),
(30,142,o),
(76,120,o),
(114,116,qs),
(170,110,ls),
(188,108,o),
(198,104,o),
(204,100,o),
(204,94,qs),
(204,88,o),
(198,80,o),
(190,78,o),
(180,78,qs),
(170,78,o),
(160,82,o),
(154,92,o),
(154,100,q),
(10,100,l),
(10,58,o),
(52,12,o),
(122,-8,o),
(180,-8,qs)
);
}
);
width = 360;
},
{
guides = (
{
pos = (-22,0);
},
{
pos = (-22,400);
},
{
pos = (-22,300);
},
{
pos = (-22,-100);
},
{
pos = (-22,90);
},
{
pos = (-22,210);
}
);
layerId = m004;
shapes = (
{
closed = 1;
nodes = (
(224,-8,o),
(288,10,o),
(328,52,o),
(328,88,qs),
(328,122,o),
(300,160,o),
(252,176,o),
(218,182,qs),
(172,188,ls),
(156,190,o),
(136,196,o),
(124,206,o),
(124,216,qs),
(124,224,o),
(138,236,o),
(162,240,o),
(180,240,qs),
(198,240,o),
(226,236,o),
(246,224,o),
(246,210,q),
(326,210,l),
(326,242,o),
(282,290,o),
(218,308,o),
(178,308,qs),
(140,308,o),
(74,288,o),
(36,246,o),
(36,216,qs),
(36,182,o),
(64,146,o),
(110,124,o),
(144,120,qs),
(188,114,ls),
(210,110,o),
(228,104,o),
(240,94,o),
(240,86,qs),
(240,76,o),
(224,64,o),
(202,60,o),
(182,60,qs),
(162,60,o),
(130,64,o),
(112,76,o),
(112,90,q),
(32,90,l),
(32,56,o),
(70,12,o),
(132,-8,o),
(182,-8,qs)
);
}
);
width = 360;
},
{
guides = (
{
pos = (-22,0);
},
{
pos = (-22,400);
},
{
pos = (-22,300);
},
{
pos = (-22,-100);
},
{
pos = (-22,80);
},
{
pos = (-22,220);
}
);
layerId = m007;
shapes = (
{
closed = 1;
nodes = (
(224,-8,o),
(280,10,o),
(312,54,o),
(312,80,qs),
(312,108,o),
(290,142,o),
(246,166,o),
(208,172,qs),
(172,178,ls),
(150,182,o),
(114,190,o),
(94,208,o),
(94,224,qs),
(94,242,o),
(118,262,o),
(156,268,o),
(180,268,qs),
(204,268,o),
(240,260,o),
(266,240,o),
(268,220,q),
(308,220,l),
(306,248,o),
(270,290,o),
(216,308,o),
(180,308,qs),
(144,308,o),
(88,292,o),
(54,254,o),
(54,224,qs),
(54,196,o),
(78,164,o),
(120,146,o),
(158,140,qs),
(194,134,ls),
(222,128,o),
(252,118,o),
(272,98,o),
(272,80,qs),
(272,62,o),
(248,40,o),
(212,32,o),
(182,32,qs),
(154,32,o),
(116,40,o),
(90,60,o),
(88,80,q),
(48,80,l),
(50,52,o),
(84,10,o),
(140,-8,o),
(182,-8,qs)
);
}
);
width = 360;
}
);
userData = {
KernOnName = s;
};
},
{
export = 0;
glyphname = t.small;
lastChange = "2025-11-18 19:45:01 +0000";
layers = (
{
guides = (
{
},
{
pos = (0,400);
},
{
pos = (0,300);
},
{
pos = (0,-100);
}
);
layerId = m003;
shapes = (
{
closed = 1;
nodes = (
(6,300,l),
(6,204,l),
(268,204,l),
(268,300,l)
);
},
{
closed = 1;
nodes = (
(44,80,ls),
(44,40,o),
(84,0,o),
(124,0,qs),
(268,0,l),
(268,98,l),
(218,98,ls),
(208,98,o),
(198,108,o),
(198,118,qs),
(198,350,l),
(44,350,l)
);
}
);
width = 280;
},
{
guides = (
{
pos = (-8,0);
},
{
pos = (-8,400);
},
{
pos = (-8,300);
},
{
pos = (-8,-100);
}
);
layerId = m004;
shapes = (
{
closed = 1;
nodes = (
(16,300,l),
(16,228,l),
(252,228,l),
(252,300,l)
);
},
{
closed = 1;
nodes = (
(78,100,ls),
(78,50,o),
(128,0,o),
(178,0,qs),
(252,0,l),
(252,72,l),
(198,72,ls),
(178,72,o),
(158,92,o),
(158,112,qs),
(158,350,l),
(78,350,l)
);
}
);
width = 280;
},
{
guides = (
{
pos = (-8,0);
},
{
pos = (-8,400);
},
{
pos = (-8,300);
},
{
pos = (-8,-100);
}
);
layerId = m007;
shapes = (
{
closed = 1;
nodes = (
(22,300,l),
(22,260,l),
(244,260,l),
(244,300,l)
);
},
{
closed = 1;
nodes = (
(98,80,ls),
(98,40,o),
(138,0,o),
(178,0,qs),
(244,0,l),
(244,40,l),
(178,40,ls),
(158,40,o),
(138,60,o),
(138,80,qs),
(138,350,l),
(98,350,l)
);
}
);
width = 280;
}
);
metricLeft = f.small;
userData = {
KernOnName = t;
};
},
{
export = 0;
glyphname = v.small;
lastChange = "2025-11-18 19:45:05 +0000";
layers = (
{
guides = (
{
},
{
pos = (0,400);
},
{
pos = (0,300);
},
{
pos = (0,-100);
}
);
layerId = m003;
shapes = (
{
closed = 1;
nodes = (
(302,0,l),
(378,300,l),
(220,300,l),
(194,148,l),
(168,300,l),
(4,300,l),
(82,0,l)
);
}
);
width = 380;
},
{
guides = (
{
pos = (-16,0);
},
{
pos = (-16,400);
},
{
pos = (-16,300);
},
{
pos = (-16,-100);
}
);
layerId = m004;
shapes = (
{
closed = 1;
nodes = (
(246,0,l),
(358,300,l),
(270,300,l),
(192,80,l),
(112,300,l),
(24,300,l),
(136,0,l)
);
}
);
width = 380;
},
{
guides = (
{
pos = (-16,0);
},
{
pos = (-16,400);
},
{
pos = (-16,300);
},
{
pos = (-16,-100);
}
);
layerId = m007;
shapes = (
{
closed = 1;
nodes = (
(214,0,l),
(344,300,l),
(300,300,l),
(192,44,l),
(80,300,l),
(36,300,l),
(168,0,l)
);
}
);
width = 380;
}
);
userData = {
KernOnName = v;
};
},
{
export = 0;
glyphname = w.small;
lastChange = "2025-11-18 19:45:07 +0000";
layers = (
{
guides = (
{
},
{
pos = (0,400);
},
{
pos = (0,300);
},
{
pos = (0,-100);
}
);
layerId = m003;
shapes = (
{
closed = 1;
nodes = (
(240,0,l),
(272,136,l),
(302,0,l),
(474,0,l),
(538,300,l),
(398,300,l),
(378,150,l),
(346,300,l),
(216,300,l),
(180,150,l),
(164,300,l),
(4,300,l),
(66,0,l)
);
}
);
width = 540;
},
{
guides = (
{
pos = (-16,0);
},
{
pos = (-16,400);
},
{
pos = (-16,300);
},
{
pos = (-16,-100);
}
);
layerId = m004;
shapes = (
{
closed = 1;
nodes = (
(214,0,l),
(272,194,l),
(328,0,l),
(428,0,l),
(518,300,l),
(430,300,l),
(374,102,l),
(314,300,l),
(226,300,l),
(168,102,l),
(112,300,l),
(24,300,l),
(114,0,l)
);
}
);
width = 540;
},
{
guides = (
{
pos = (-16,0);
},
{
pos = (-16,400);
},
{
pos = (-16,300);
},
{
pos = (-16,-100);
}
);
layerId = m007;
shapes = (
{
closed = 1;
nodes = (
(182,0,l),
(270,254,l),
(358,0,l),
(408,0,l),
(504,300,l),
(460,300,l),
(384,44,l),
(292,300,l),
(248,300,l),
(158,44,l),
(80,300,l),
(36,300,l),
(132,0,l)
);
}
);
width = 540;
}
);
metricLeft = v.small;
metricRight = v.small;
userData = {
KernOnName = w;
};
},
{
export = 0;
glyphname = x.small;
lastChange = "2025-11-18 19:45:08 +0000";
layers = (
{
guides = (
{
},
{
pos = (0,400);
},
{
pos = (0,300);
},
{
pos = (0,-100);
}
);
layerId = m003;
shapes = (
{
closed = 1;
nodes = (
(164,0,l),
(198,60,l),
(230,0,l),
(398,0,l),
(304,152,l),
(390,300,l),
(232,300,l),
(206,242,l),
(178,300,l),
(10,300,l),
(98,152,l),
(4,0,l)
);
}
);
width = 400;
},
{
guides = (
{
pos = (-16,0);
},
{
pos = (-16,400);
},
{
pos = (-16,300);
},
{
pos = (-16,-100);
}
);
layerId = m004;
shapes = (
{
closed = 1;
nodes = (
(126,0,l),
(200,98,l),
(270,0,l),
(378,0,l),
(260,152,l),
(372,300,l),
(270,300,l),
(204,202,l),
(136,300,l),
(30,300,l),
(142,152,l),
(24,0,l)
);
}
);
width = 400;
},
{
guides = (
{
pos = (-16,0);
},
{
pos = (-16,400);
},
{
pos = (-16,300);
},
{
pos = (-16,-100);
}
);
layerId = m007;
shapes = (
{
closed = 1;
nodes = (
(86,0,l),
(200,126,l),
(314,0,l),
(364,0,l),
(226,150,l),
(360,300,l),
(310,300,l),
(200,174,l),
(92,300,l),
(42,300,l),
(174,150,l),
(36,0,l)
);
}
);
width = 400;
}
);
userData = {
KernOnName = x;
};
},
{
export = 0;
glyphname = y.small;
lastChange = "2025-11-18 19:45:11 +0000";
layers = (
{
guides = (
{
},
{
pos = (0,400);
},
{
pos = (0,300);
},
{
pos = (0,-100);
}
);
layerId = m003;
shapes = (
{
closed = 1;
nodes = (
(154,-100,ls),
(210,-100,o),
(266,-56,o),
(282,-2,qs),
(378,300,l),
(220,300,l),
(194,172,l),
(168,300,l),
(4,300,l),
(98,28,l),
(94,16,ls),
(90,6,o),
(80,-2,o),
(68,-2,qs),
(32,-2,l),
(32,-100,l)
);
}
);
width = 380;
},
{
guides = (
{
pos = (-16,0);
},
{
pos = (-16,400);
},
{
pos = (-16,300);
},
{
pos = (-16,-100);
}
);
layerId = m004;
shapes = (
{
closed = 1;
nodes = (
(128,-100,ls),
(174,-100,o),
(224,-62,o),
(240,-18,qs),
(358,300,l),
(270,300,l),
(200,102,l),
(114,300,l),
(24,300,l),
(154,10,l),
(150,-2,ls),
(146,-16,o),
(120,-28,o),
(104,-28,qs),
(52,-28,l),
(52,-100,l)
);
}
);
width = 380;
},
{
guides = (
{
pos = (-16,0);
},
{
pos = (-16,400);
},
{
pos = (-16,300);
},
{
pos = (-16,-100);
}
);
layerId = m007;
shapes = (
{
closed = 1;
nodes = (
(112,-100,ls),
(149,-100,o),
(190,-70,o),
(204,-34,qs),
(344,300,l),
(300,300,l),
(198,44,l),
(82,300,l),
(36,300,l),
(176,2,l),
(162,-28,ls),
(152,-48,o),
(134,-60,o),
(112,-60,qs),
(72,-60,l),
(72,-100,l)
);
}
);
width = 380;
}
);
metricLeft = v.small;
metricRight = v.small;
userData = {
KernOnName = y;
};
},
{
export = 0;
glyphname = z.small;
lastChange = "2025-11-18 19:45:12 +0000";
layers = (
{
guides = (
{
},
{
pos = (0,400);
},
{
pos = (0,300);
},
{
pos = (0,-100);
}
);
layerId = m003;
shapes = (
{
closed = 1;
nodes = (
(338,0,l),
(338,98,l),
(220,98,l),
(340,226,l),
(340,300,l),
(26,300,l),
(26,204,l),
(140,204,l),
(22,76,l),
(22,0,l)
);
}
);
width = 360;
},
{
guides = (
{
pos = (-6,0);
},
{
pos = (-6,400);
},
{
pos = (-6,300);
},
{
pos = (-6,-100);
}
);
layerId = m004;
shapes = (
{
closed = 1;
nodes = (
(326,0,l),
(326,72,l),
(158,72,l),
(326,240,l),
(326,300,l),
(34,300,l),
(34,228,l),
(202,228,l),
(34,62,l),
(34,0,l)
);
}
);
width = 360;
},
{
guides = (
{
pos = (-6,0);
},
{
pos = (-6,400);
},
{
pos = (-6,300);
},
{
pos = (-6,-100);
}
);
layerId = m007;
shapes = (
{
closed = 1;
nodes = (
(320,0,l),
(320,40,l),
(98,40,l),
(320,264,l),
(320,300,l),
(40,300,l),
(40,260,l),
(262,260,l),
(40,36,l),
(40,0,l)
);
}
);
width = 360;
}
);
},
{
glyphname = f_f;
kernLeft = t;
kernRight = f;
lastChange = "2025-11-18 19:16:35 +0000";
layers = (
{
anchors = (
{
name = caret_1;
pos = (367,0);
},
{
name = top;
pos = (240,700);
}
);
layerId = m003;
shapes = (
{
closed = 1;
nodes = (
(558,358,l),
(558,500,l),
(170,500,l),
(170,358,l)
);
},
{
closed = 1;
nodes = (
(394,358,l),
(394,500,l),
(12,500,l),
(12,358,l)
);
},
{
closed = 1;
nodes = (
(280,0,l),
(280,536,ls),
(280,550,o),
(294,566,o),
(308,566,qs),
(380,566,l),
(380,700,l),
(230,700,ls),
(164,700,o),
(96,634,o),
(96,568,qs),
(96,0,l)
);
},
{
pos = (320,0);
ref = f;
}
);
width = 740;
},
{
anchors = (
{
name = caret_1;
pos = (360,0);
},
{
name = top;
pos = (240,700);
}
);
layerId = m004;
shapes = (
{
closed = 1;
nodes = (
(546,412,l),
(546,500,l),
(178,500,l),
(178,412,l)
);
},
{
closed = 1;
nodes = (
(372,412,l),
(372,500,l),
(30,500,l),
(30,412,l)
);
},
{
closed = 1;
nodes = (
(226,0,l),
(226,544,ls),
(226,580,o),
(260,612,o),
(296,612,qs),
(372,612,l),
(372,700,l),
(268,700,ls),
(198,700,o),
(130,636,o),
(130,570,qs),
(130,0,l)
);
},
{
pos = (320,0);
ref = f;
}
);
width = 740;
},
{
anchors = (
{
name = caret_1;
pos = (360,0);
},
{
name = top;
pos = (240,700);
}
);
layerId = m007;
shapes = (
{
closed = 1;
nodes = (
(496,460,l),
(496,500,l),
(168,500,l),
(168,460,l)
);
},
{
closed = 1;
nodes = (
(364,460,l),
(364,500,l),
(36,500,l),
(36,460,l)
);
},
{
closed = 1;
nodes = (
(192,0,l),
(192,572,ls),
(192,616,o),
(236,660,o),
(280,660,qs),
(364,660,l),
(364,700,l),
(280,700,ls),
(216,700,o),
(152,636,o),
(152,572,qs),
(152,0,l)
);
},
{
pos = (320,0);
ref = f;
}
);
width = 740;
}
);
metricLeft = tau;
metricRight = f;
},
{
glyphname = f_f_i;
kernLeft = t;
kernRight = I;
lastChange = "2025-11-18 19:17:03 +0000";
layers = (
{
anchors = (
{
name = caret_1;
pos = (360,0);
},
{
name = caret_2;
pos = (660,2);
},
{
name = top;
pos = (240,700);
}
);
layerId = m003;
shapes = (
{
closed = 1;
nodes = (
(742,358,l),
(920,500,l),
(198,500,l),
(198,358,l)
);
},
{
closed = 1;
nodes = (
(654,566,l),
(920,566,l),
(920,700,l),
(654,700,l)
);
},
{
pos = (698,0);
ref = idotless;
},
{
closed = 1;
nodes = (
(394,358,l),
(394,500,l),
(12,500,l),
(12,358,l)
);
},
{
closed = 1;
nodes = (
(280,0,l),
(280,536,ls),
(280,550,o),
(294,566,o),
(308,566,qs),
(380,566,l),
(380,700,l),
(230,700,ls),
(164,700,o),
(96,634,o),
(96,568,qs),
(96,0,l)
);
},
{
pos = (322,0);
ref = f;
}
);
width = 960;
},
{
anchors = (
{
name = caret_1;
pos = (360,0);
},
{
name = caret_2;
pos = (660,2);
},
{
name = top;
pos = (240,700);
}
);
layerId = m004;
shapes = (
{
closed = 1;
nodes = (
(796,412,l),
(890,500,l),
(182,500,l),
(182,412,l)
);
},
{
closed = 1;
nodes = (
(654,612,l),
(890,612,l),
(890,700,l),
(654,700,l)
);
},
{
pos = (712,0);
ref = idotless;
},
{
closed = 1;
nodes = (
(372,412,l),
(372,500,l),
(30,500,l),
(30,412,l)
);
},
{
closed = 1;
nodes = (
(226,0,l),
(226,544,ls),
(226,580,o),
(260,612,o),
(298,612,qs),
(372,612,l),
(372,700,l),
(268,700,ls),
(198,700,o),
(130,636,o),
(130,570,qs),
(130,0,l)
);
},
{
pos = (334,0);
ref = f;
}
);
width = 960;
},
{
anchors = (
{
name = caret_1;
pos = (360,0);
},
{
name = caret_2;
pos = (660,2);
},
{
name = top;
pos = (240,700);
}
);
layerId = m007;
shapes = (
{
closed = 1;
nodes = (
(834,460,l),
(874,500,l),
(174,500,l),
(174,460,l)
);
},
{
closed = 1;
nodes = (
(654,660,l),
(874,660,l),
(874,700,l),
(654,700,l)
);
},
{
pos = (724,0);
ref = idotless;
},
{
closed = 1;
nodes = (
(364,460,l),
(364,500,l),
(36,500,l),
(36,460,l)
);
},
{
closed = 1;
nodes = (
(194,0,l),
(194,572,ls),
(194,616,o),
(238,660,o),
(282,660,qs),
(364,660,l),
(364,700,l),
(280,700,ls),
(216,700,o),
(154,636,o),
(154,572,qs),
(154,0,l)
);
},
{
pos = (344,0);
ref = f;
}
);
width = 960;
}
);
metricLeft = tau;
metricRight = u;
},
{
glyphname = f_f_j;
kernLeft = t;
kernRight = "I-des";
lastChange = "2025-11-18 19:17:41 +0000";
layers = (
{
anchors = (
{
name = caret_1;
pos = (360,0);
},
{
name = caret_2;
pos = (660,2);
},
{
name = top;
pos = (240,700);
}
);
layerId = m003;
shapes = (
{
closed = 1;
nodes = (
(916,500,l),
(214,500,l),
(214,358,l),
(916,358,l)
);
},
{
closed = 1;
nodes = (
(672,566,l),
(920,566,l),
(920,700,l),
(672,700,l)
);
},
{
pos = (698,0);
ref = jdotless;
},
{
closed = 1;
nodes = (
(394,358,l),
(394,500,l),
(12,500,l),
(12,358,l)
);
},
{
closed = 1;
nodes = (
(280,0,l),
(280,538,ls),
(280,552,o),
(294,566,o),
(308,566,qs),
(380,566,l),
(380,700,l),
(230,700,ls),
(164,700,o),
(96,634,o),
(96,568,qs),
(96,0,l)
);
},
{
pos = (322,0);
ref = f;
}
);
width = 960;
},
{
anchors = (
{
name = caret_1;
pos = (360,0);
},
{
name = caret_2;
pos = (660,2);
},
{
name = top;
pos = (240,700);
}
);
layerId = m004;
shapes = (
{
closed = 1;
nodes = (
(888,500,l),
(178,500,l),
(178,412,l),
(880,412,l)
);
},
{
closed = 1;
nodes = (
(678,612,l),
(890,612,l),
(890,700,l),
(678,700,l)
);
},
{
pos = (712,0);
ref = jdotless;
},
{
closed = 1;
nodes = (
(372,412,l),
(372,500,l),
(30,500,l),
(30,412,l)
);
},
{
closed = 1;
nodes = (
(226,0,l),
(226,544,ls),
(226,580,o),
(260,612,o),
(298,612,qs),
(372,612,l),
(372,700,l),
(270,700,ls),
(200,700,o),
(130,626,o),
(130,560,qs),
(130,0,l)
);
},
{
pos = (334,0);
ref = f;
}
);
width = 960;
},
{
anchors = (
{
name = caret_1;
pos = (360,0);
},
{
name = caret_2;
pos = (660,2);
},
{
name = top;
pos = (240,700);
}
);
layerId = m007;
shapes = (
{
closed = 1;
nodes = (
(872,500,l),
(180,500,l),
(180,460,l),
(854,460,l)
);
},
{
closed = 1;
nodes = (
(684,660,l),
(874,660,l),
(874,700,l),
(684,700,l)
);
},
{
pos = (724,0);
ref = jdotless;
},
{
closed = 1;
nodes = (
(364,460,l),
(364,500,l),
(36,500,l),
(36,460,l)
);
},
{
closed = 1;
nodes = (
(194,0,l),
(194,572,ls),
(194,616,o),
(238,660,o),
(282,660,qs),
(364,660,l),
(364,700,l),
(282,700,ls),
(218,700,o),
(154,636,o),
(154,572,qs),
(154,0,l)
);
},
{
pos = (342,0);
ref = f;
}
);
width = 960;
}
);
metricLeft = tau;
metricRight = u;
},
{
glyphname = f_f_j.ss03;
kernLeft = t;
kernRight = "I-des";
lastChange = "2025-11-18 19:17:36 +0000";
layers = (
{
anchors = (
{
name = caret_1;
pos = (360,0);
},
{
name = caret_2;
pos = (660,2);
},
{
name = top;
pos = (240,700);
}
);
layerId = m003;
shapes = (
{
closed = 1;
nodes = (
(920,500,l),
(184,500,l),
(184,358,l),
(920,358,l)
);
},
{
closed = 1;
nodes = (
(678,566,l),
(920,566,l),
(920,700,l),
(678,700,l)
);
},
{
pos = (698,0);
ref = jdotless.ss03;
},
{
closed = 1;
nodes = (
(394,358,l),
(394,500,l),
(12,500,l),
(12,358,l)
);
},
{
closed = 1;
nodes = (
(280,0,l),
(280,538,ls),
(280,552,o),
(294,566,o),
(308,566,qs),
(380,566,l),
(380,700,l),
(230,700,ls),
(164,700,o),
(96,634,o),
(96,568,qs),
(96,0,l)
);
},
{
pos = (322,0);
ref = f;
}
);
width = 960;
},
{
anchors = (
{
name = caret_1;
pos = (360,0);
},
{
name = caret_2;
pos = (660,2);
},
{
name = top;
pos = (240,700);
}
);
layerId = m004;
shapes = (
{
closed = 1;
nodes = (
(890,500,l),
(170,500,l),
(170,412,l),
(880,412,l)
);
},
{
closed = 1;
nodes = (
(678,612,l),
(890,612,l),
(890,700,l),
(678,700,l)
);
},
{
pos = (712,0);
ref = jdotless.ss03;
},
{
closed = 1;
nodes = (
(372,412,l),
(372,500,l),
(30,500,l),
(30,412,l)
);
},
{
closed = 1;
nodes = (
(226,0,l),
(226,544,ls),
(226,580,o),
(260,612,o),
(298,612,qs),
(372,612,l),
(372,700,l),
(268,700,ls),
(198,700,o),
(130,636,o),
(130,570,qs),
(130,0,l)
);
},
{
pos = (332,0);
ref = f;
}
);
width = 960;
},
{
anchors = (
{
name = caret_1;
pos = (360,0);
},
{
name = caret_2;
pos = (660,2);
},
{
name = top;
pos = (240,700);
}
);
layerId = m007;
shapes = (
{
closed = 1;
nodes = (
(874,500,l),
(170,500,l),
(170,460,l),
(856,460,l)
);
},
{
closed = 1;
nodes = (
(668,660,l),
(874,660,l),
(874,700,l),
(668,700,l)
);
},
{
pos = (724,0);
ref = jdotless.ss03;
},
{
closed = 1;
nodes = (
(364,460,l),
(364,500,l),
(36,500,l),
(36,460,l)
);
},
{
closed = 1;
nodes = (
(194,0,l),
(194,572,ls),
(194,616,o),
(238,660,o),
(282,660,qs),
(364,660,l),
(364,700,l),
(282,700,ls),
(218,700,o),
(154,636,o),
(154,572,qs),
(154,0,l)
);
},
{
pos = (338,0);
ref = f;
}
);
width = 960;
}
);
metricLeft = tau;
metricRight = u;
},
{
glyphname = f_f_l;
kernLeft = t;
kernRight = I;
lastChange = "2025-11-18 19:17:09 +0000";
layers = (
{
anchors = (
{
name = caret_1;
pos = (360,0);
},
{
name = caret_2;
pos = (660,2);
},
{
name = top;
pos = (240,700);
}
);
layerId = m003;
shapes = (
{
closed = 1;
nodes = (
(214,500,l),
(214,358,l),
(492,358,l),
(492,500,l)
);
},
{
closed = 1;
nodes = (
(662,700,l),
(662,566,l),
(742,566,l),
(920,700,l)
);
},
{
pos = (698,0);
ref = l;
},
{
pos = (320,0);
ref = f;
},
{
closed = 1;
nodes = (
(394,358,l),
(394,500,l),
(12,500,l),
(12,358,l)
);
},
{
closed = 1;
nodes = (
(280,0,l),
(280,536,ls),
(280,550,o),
(294,566,o),
(308,566,qs),
(380,566,l),
(380,700,l),
(230,700,ls),
(164,700,o),
(96,634,o),
(96,568,qs),
(96,0,l)
);
}
);
width = 960;
},
{
anchors = (
{
name = caret_1;
pos = (360,0);
},
{
name = caret_2;
pos = (660,2);
},
{
name = top;
pos = (240,700);
}
);
layerId = m004;
shapes = (
{
closed = 1;
nodes = (
(200,500,l),
(200,412,l),
(480,412,l),
(480,500,l)
);
},
{
closed = 1;
nodes = (
(650,700,l),
(650,612,l),
(796,612,l),
(890,700,l)
);
},
{
pos = (712,0);
ref = l;
},
{
pos = (330,0);
ref = f;
},
{
closed = 1;
nodes = (
(372,412,l),
(372,500,l),
(30,500,l),
(30,412,l)
);
},
{
closed = 1;
nodes = (
(226,0,l),
(226,544,ls),
(226,580,o),
(260,612,o),
(298,612,qs),
(372,612,l),
(372,700,l),
(268,700,ls),
(198,700,o),
(130,636,o),
(130,570,qs),
(130,0,l)
);
}
);
width = 960;
},
{
anchors = (
{
name = caret_1;
pos = (360,0);
},
{
name = caret_2;
pos = (660,2);
},
{
name = top;
pos = (240,700);
}
);
layerId = m007;
shapes = (
{
closed = 1;
nodes = (
(180,500,l),
(180,460,l),
(476,460,l),
(476,500,l)
);
},
{
closed = 1;
nodes = (
(632,700,l),
(632,660,l),
(836,660,l),
(874,700,l)
);
},
{
pos = (724,0);
ref = l;
},
{
pos = (340,0);
ref = f;
},
{
closed = 1;
nodes = (
(364,460,l),
(364,500,l),
(36,500,l),
(36,460,l)
);
},
{
closed = 1;
nodes = (
(194,0,l),
(194,572,ls),
(194,616,o),
(238,660,o),
(282,660,qs),
(364,660,l),
(364,700,l),
(280,700,ls),
(216,700,o),
(154,636,o),
(154,572,qs),
(154,0,l)
);
}
);
width = 960;
}
);
metricLeft = tau;
metricRight = u;
},
{
glyphname = f_f_l.ss02;
kernLeft = t;
kernRight = "l-tail";
lastChange = "2025-11-19 08:13:03 +0000";
layers = (
{
anchors = (
{
name = caret_1;
pos = (368,0);
},
{
name = caret_2;
pos = (668,2);
},
{
name = top;
pos = (240,700);
}
);
layerId = m003;
shapes = (
{
closed = 1;
nodes = (
(220,500,l),
(220,358,l),
(498,358,l),
(498,500,l)
);
},
{
closed = 1;
nodes = (
(680,700,l),
(680,566,l),
(746,566,l),
(922,700,l)
);
},
{
pos = (700,0);
ref = l.ss02;
},
{
closed = 1;
nodes = (
(394,358,l),
(394,500,l),
(12,500,l),
(12,358,l)
);
},
{
closed = 1;
nodes = (
(280,0,l),
(280,538,ls),
(280,552,o),
(294,566,o),
(308,566,qs),
(380,566,l),
(380,700,l),
(230,700,ls),
(164,700,o),
(96,634,o),
(96,568,qs),
(96,0,l)
);
},
{
pos = (324,0);
ref = f;
}
);
width = 1000;
},
{
anchors = (
{
name = caret_1;
pos = (360,0);
},
{
name = caret_2;
pos = (660,2);
},
{
name = top;
pos = (240,700);
}
);
layerId = m004;
shapes = (
{
closed = 1;
nodes = (
(200,500,l),
(200,412,l),
(492,412,l),
(492,500,l)
);
},
{
closed = 1;
nodes = (
(684,700,l),
(684,612,l),
(778,612,l),
(868,700,l)
);
},
{
pos = (700,0);
ref = l.ss02;
},
{
closed = 1;
nodes = (
(372,412,l),
(372,500,l),
(30,500,l),
(30,412,l)
);
},
{
closed = 1;
nodes = (
(226,0,l),
(226,544,ls),
(226,580,o),
(260,612,o),
(298,612,qs),
(372,612,l),
(372,700,l),
(270,700,ls),
(200,700,o),
(130,626,o),
(130,560,qs),
(130,0,l)
);
},
{
pos = (328,0);
ref = f;
}
);
width = 1000;
},
{
anchors = (
{
name = caret_1;
pos = (360,0);
},
{
name = caret_2;
pos = (660,2);
},
{
name = top;
pos = (240,700);
}
);
layerId = m007;
shapes = (
{
closed = 1;
nodes = (
(178,500,l),
(178,460,l),
(500,460,l),
(500,500,l)
);
},
{
closed = 1;
nodes = (
(678,700,l),
(678,660,l),
(796,660,l),
(832,700,l)
);
},
{
pos = (700,0);
ref = l.ss02;
},
{
closed = 1;
nodes = (
(364,460,l),
(364,500,l),
(36,500,l),
(36,460,l)
);
},
{
closed = 1;
nodes = (
(192,0,l),
(192,572,ls),
(192,616,o),
(236,660,o),
(280,660,qs),
(364,660,l),
(364,700,l),
(280,700,ls),
(216,700,o),
(152,636,o),
(152,572,qs),
(152,0,l)
);
},
{
pos = (330,0);
ref = f;
}
);
width = 1000;
}
);
metricLeft = tau;
metricRight = tau;
},
{
glyphname = f_j;
kernLeft = t;
kernRight = "I-des";
lastChange = "2025-11-18 19:16:57 +0000";
layers = (
{
anchors = (
{
name = caret_1;
pos = (328,0);
}
);
layerId = m003;
shapes = (
{
closed = 1;
nodes = (
(600,500,l),
(184,500,l),
(184,358,l),
(446,358,l)
);
},
{
pos = (378,0);
ref = jdotless;
},
{
closed = 1;
nodes = (
(340,566,l),
(600,566,l),
(600,700,l),
(340,700,l)
);
},
{
ref = f;
}
);
width = 640;
},
{
anchors = (
{
name = caret_1;
pos = (320,0);
}
);
layerId = m004;
shapes = (
{
closed = 1;
nodes = (
(568,500,l),
(170,500,l),
(170,412,l),
(480,412,l)
);
},
{
pos = (392,0);
ref = jdotless;
},
{
closed = 1;
nodes = (
(312,612,l),
(570,612,l),
(570,700,l),
(312,700,l)
);
},
{
ref = f;
}
);
width = 640;
},
{
anchors = (
{
name = caret_1;
pos = (320,0);
}
);
layerId = m007;
shapes = (
{
closed = 1;
nodes = (
(554,500,l),
(170,500,l),
(170,460,l),
(518,460,l)
);
},
{
pos = (404,0);
ref = jdotless;
},
{
closed = 1;
nodes = (
(292,660,l),
(554,660,l),
(554,700,l),
(292,700,l)
);
},
{
ref = f;
}
);
width = 640;
}
);
metricLeft = tau;
metricRight = u;
},
{
glyphname = f_j.ss03;
kernLeft = t;
kernRight = "I-des";
lastChange = "2025-11-18 19:16:59 +0000";
layers = (
{
anchors = (
{
name = caret_1;
pos = (360,0);
}
);
layerId = m003;
shapes = (
{
closed = 1;
nodes = (
(600,500,l),
(208,500,l),
(208,358,l),
(446,358,l)
);
},
{
pos = (378,0);
ref = jdotless.ss03;
},
{
closed = 1;
nodes = (
(344,566,l),
(600,566,l),
(600,700,l),
(344,700,l)
);
},
{
ref = f;
}
);
width = 640;
},
{
anchors = (
{
name = caret_1;
pos = (378,0);
}
);
layerId = m004;
shapes = (
{
closed = 1;
nodes = (
(570,500,l),
(176,500,l),
(176,412,l),
(480,412,l)
);
},
{
pos = (392,0);
ref = jdotless.ss03;
},
{
closed = 1;
nodes = (
(332,612,l),
(570,612,l),
(570,700,l),
(332,700,l)
);
},
{
ref = f;
}
);
width = 640;
},
{
anchors = (
{
name = caret_1;
pos = (394,0);
}
);
layerId = m007;
shapes = (
{
closed = 1;
nodes = (
(554,500,l),
(172,500,l),
(172,460,l),
(516,460,l)
);
},
{
pos = (404,0);
ref = jdotless.ss03;
},
{
closed = 1;
nodes = (
(342,660,l),
(554,660,l),
(554,700,l),
(342,700,l)
);
},
{
ref = f;
}
);
width = 640;
}
);
metricLeft = tau;
metricRight = u;
},
{
glyphname = f_t;
kernLeft = t;
kernRight = t;
lastChange = "2025-11-18 19:16:38 +0000";
layers = (
{
anchors = (
{
name = bottom;
pos = (590,0);
},
{
name = caret_1;
pos = (380,0);
}
);
layerId = m003;
shapes = (
{
closed = 1;
nodes = (
(512,358,l),
(512,500,l),
(220,500,l),
(220,358,l)
);
},
{
ref = f;
},
{
pos = (300,0);
ref = tau.ss02;
},
{
closed = 1;
nodes = (
(334,566,l),
(714,566,l),
(714,700,l),
(334,700,l)
);
}
);
width = 740;
},
{
anchors = (
{
name = bottom;
pos = (611,0);
},
{
name = caret_1;
pos = (380,0);
}
);
layerId = m004;
shapes = (
{
closed = 1;
nodes = (
(512,412,l),
(512,500,l),
(199,500,l),
(200,412,l)
);
},
{
ref = f;
},
{
pos = (300,0);
ref = tau.ss02;
},
{
closed = 1;
nodes = (
(318,612,l),
(692,612,l),
(692,700,l),
(318,700,l)
);
}
);
width = 740;
},
{
anchors = (
{
name = bottom;
pos = (633,0);
},
{
name = caret_1;
pos = (380,0);
}
);
layerId = m007;
shapes = (
{
closed = 1;
nodes = (
(500,460,l),
(500,500,l),
(178,500,l),
(178,460,l)
);
},
{
ref = f;
},
{
pos = (300,0);
ref = tau.ss02;
},
{
closed = 1;
nodes = (
(322,660,l),
(684,660,l),
(684,700,l),
(322,700,l)
);
}
);
width = 740;
}
);
metricLeft = tau;
metricRight = t;
},
{
glyphname = f_t.ss03;
kernLeft = t;
kernRight = f;
lastChange = "2025-11-19 08:13:13 +0000";
layers = (
{
anchors = (
{
name = caret_1;
pos = (367,0);
}
);
layerId = m003;
shapes = (
{
closed = 1;
nodes = (
(606,0,l),
(606,358,l),
(708,358,l),
(708,500,l),
(172,500,l),
(172,358,l),
(422,358,l),
(422,0,l)
);
},
{
ref = f;
},
{
closed = 1;
nodes = (
(334,566,l),
(708,566,l),
(708,700,l),
(334,700,l)
);
}
);
width = 720;
},
{
anchors = (
{
name = caret_1;
pos = (360,0);
}
);
layerId = m004;
shapes = (
{
closed = 1;
nodes = (
(572,0,l),
(572,412,l),
(690,412,l),
(690,500,l),
(174,500,l),
(174,412,l),
(476,412,l),
(476,0,l)
);
},
{
ref = f;
},
{
closed = 1;
nodes = (
(318,612,l),
(690,612,l),
(690,700,l),
(318,700,l)
);
}
);
width = 720;
},
{
anchors = (
{
name = caret_1;
pos = (360,0);
}
);
layerId = m007;
shapes = (
{
closed = 1;
nodes = (
(548,0,l),
(548,460,l),
(684,460,l),
(684,500,l),
(170,500,l),
(170,460,l),
(508,460,l),
(508,0,l)
);
},
{
ref = f;
},
{
closed = 1;
nodes = (
(322,660,l),
(684,660,l),
(684,700,l),
(322,700,l)
);
}
);
width = 720;
}
);
metricLeft = tau;
metricRight = tau;
},
{
glyphname = fi;
kernLeft = t;
kernRight = I;
lastChange = "2025-11-18 19:16:49 +0000";
layers = (
{
anchors = (
{
name = caret_1;
pos = (400,0);
}
);
layerId = m003;
shapes = (
{
closed = 1;
nodes = (
(418,358,l),
(600,500,l),
(198,500,l),
(198,358,l)
);
},
{
closed = 1;
nodes = (
(334,566,l),
(600,566,l),
(600,700,l),
(334,700,l)
);
},
{
pos = (378,0);
ref = idotless;
},
{
ref = f;
}
);
width = 640;
},
{
anchors = (
{
name = caret_1;
pos = (400,0);
}
);
layerId = m004;
shapes = (
{
closed = 1;
nodes = (
(474,412,l),
(570,500,l),
(170,500,l),
(170,412,l)
);
},
{
closed = 1;
nodes = (
(318,612,l),
(568,612,l),
(568,700,l),
(318,700,l)
);
},
{
pos = (392,0);
ref = idotless;
},
{
ref = f;
}
);
width = 640;
},
{
anchors = (
{
name = caret_1;
pos = (400,0);
}
);
layerId = m007;
shapes = (
{
closed = 1;
nodes = (
(514,460,l),
(554,500,l),
(170,500,l),
(170,460,l)
);
},
{
closed = 1;
nodes = (
(324,660,l),
(554,660,l),
(554,700,l),
(324,700,l)
);
},
{
pos = (404,0);
ref = idotless;
},
{
ref = f;
}
);
width = 640;
}
);
metricLeft = tau;
metricRight = u;
},
{
glyphname = fl;
kernLeft = t;
kernRight = I;
lastChange = "2025-11-18 19:16:52 +0000";
layers = (
{
anchors = (
{
name = caret_1;
pos = (410,0);
}
);
layerId = m003;
shapes = (
{
closed = 1;
nodes = (
(338,700,l),
(338,566,l),
(422,566,l),
(600,700,l)
);
},
{
pos = (378,0);
ref = l;
},
{
ref = f;
}
);
width = 640;
},
{
anchors = (
{
name = caret_1;
pos = (410,0);
}
);
layerId = m004;
shapes = (
{
closed = 1;
nodes = (
(352,700,l),
(352,612,l),
(474,612,l),
(570,700,l)
);
},
{
pos = (392,0);
ref = l;
},
{
ref = f;
}
);
width = 640;
},
{
anchors = (
{
name = caret_1;
pos = (410,0);
}
);
layerId = m007;
shapes = (
{
closed = 1;
nodes = (
(362,700,l),
(362,660,l),
(514,660,l),
(554,700,l)
);
},
{
pos = (404,0);
ref = l;
},
{
ref = f;
}
);
width = 640;
}
);
metricLeft = tau;
metricRight = u;
},
{
glyphname = fl.ss02;
kernLeft = t;
kernRight = "l-tail";
lastChange = "2025-11-18 19:16:54 +0000";
layers = (
{
anchors = (
{
name = caret_1;
pos = (410,0);
}
);
layerId = m003;
shapes = (
{
closed = 1;
nodes = (
(348,700,l),
(348,566,l),
(424,566,l),
(602,700,l)
);
},
{
pos = (380,0);
ref = l.ss02;
},
{
ref = f;
}
);
width = 680;
},
{
anchors = (
{
name = caret_1;
pos = (410,0);
}
);
layerId = m004;
shapes = (
{
closed = 1;
nodes = (
(338,700,l),
(338,612,l),
(456,612,l),
(550,700,l)
);
},
{
pos = (380,0);
ref = l.ss02;
},
{
ref = f;
}
);
width = 680;
},
{
anchors = (
{
name = caret_1;
pos = (410,0);
}
);
layerId = m007;
shapes = (
{
closed = 1;
nodes = (
(342,700,l),
(342,660,l),
(474,660,l),
(512,700,l)
);
},
{
pos = (380,0);
ref = l.ss02;
},
{
ref = f;
}
);
width = 680;
}
);
metricLeft = tau;
metricRight = tau;
},
{
glyphname = "Be-cy";
kernLeft = I;
kernRight = S;
lastChange = "2025-11-18 18:50:56 +0000";
layers = (
{
layerId = m003;
shapes = (
{
closed = 1;
nodes = (
(380,0,ls),
(474,0,o),
(578,56,o),
(636,156,o),
(636,222,qs),
(636,290,o),
(580,390,o),
(474,444,o),
(380,444,qs),
(246,444,l),
(246,548,l),
(598,548,l),
(598,700,l),
(52,700,l),
(52,0,l)
);
},
{
closed = 1;
nodes = (
(246,300,l),
(344,300,ls),
(382,300,o),
(418,284,o),
(442,252,o),
(442,222,qs),
(442,194,o),
(418,160,o),
(382,146,o),
(344,146,qs),
(246,146,l)
);
}
);
width = 660;
},
{
layerId = m004;
shapes = (
{
closed = 1;
nodes = (
(372,0,ls),
(458,0,o),
(558,56,o),
(612,152,o),
(612,216,qs),
(612,282,o),
(560,376,o),
(458,432,o),
(372,432,qs),
(184,432,l),
(184,612,l),
(586,612,l),
(586,700,l),
(84,700,l),
(84,0,l)
);
},
{
closed = 1;
nodes = (
(184,344,l),
(354,344,ls),
(412,344,o),
(476,318,o),
(512,260,o),
(512,216,qs),
(512,174,o),
(476,114,o),
(412,88,o),
(354,88,qs),
(184,88,l)
);
}
);
width = 660;
},
{
layerId = m007;
shapes = (
{
closed = 1;
nodes = (
(360,0,ls),
(444,0,o),
(544,52,o),
(598,144,o),
(598,210,qs),
(598,276,o),
(544,368,o),
(444,420,o),
(360,420,qs),
(140,420,l),
(140,660,l),
(582,660,l),
(582,700,l),
(100,700,l),
(100,0,l)
);
},
{
closed = 1;
nodes = (
(140,380,l),
(354,380,ls),
(428,380,o),
(512,342,o),
(558,266,o),
(558,210,qs),
(558,156,o),
(512,78,o),
(428,40,o),
(354,40,qs),
(140,40,l)
);
}
);
width = 660;
}
);
metricLeft = N;
metricRight = R;
unicode = 1041;
},
{
glyphname = "Geupturn-cy";
kernLeft = I;
kernRight = T;
lastChange = "2025-11-18 18:49:59 +0000";
layers = (
{
layerId = m003;
shapes = (
{
closed = 1;
nodes = (
(248,0,l),
(248,540,l),
(408,540,ls),
(478,540,o),
(548,610,o),
(548,680,qs),
(548,800,l),
(388,800,l),
(388,740,ls),
(388,720,o),
(368,700,o),
(348,700,qs),
(52,700,l),
(52,0,l)
);
}
);
width = 560;
},
{
layerId = m004;
shapes = (
{
closed = 1;
nodes = (
(184,0,l),
(184,612,l),
(412,612,ls),
(472,612,o),
(530,670,o),
(530,730,qs),
(530,800,l),
(442,800,l),
(442,754,ls),
(442,726,o),
(416,700,o),
(388,700,qs),
(84,700,l),
(84,0,l)
);
}
);
width = 560;
},
{
layerId = m007;
shapes = (
{
closed = 1;
nodes = (
(140,0,l),
(140,660,l),
(418,660,ls),
(468,660,o),
(524,716,o),
(524,766,qs),
(524,800,l),
(484,800,l),
(484,766,ls),
(484,732,o),
(452,700,o),
(418,700,qs),
(100,700,l),
(100,0,l)
);
}
);
width = 560;
}
);
metricLeft = N;
metricRight = T;
unicode = 1168;
},
{
glyphname = "Geupturn-cy.ss05";
kernLeft = I;
kernRight = T;
lastChange = "2025-11-18 18:50:19 +0000";
layers = (
{
layerId = m003;
shapes = (
{
closed = 1;
nodes = (
(248,0,l),
(248,500,ls),
(248,520,o),
(268,540,o),
(288,540,qs),
(408,540,ls),
(478,540,o),
(548,610,o),
(548,680,qs),
(548,800,l),
(388,800,l),
(388,740,ls),
(388,720,o),
(368,700,o),
(348,700,qs),
(192,700,ls),
(122,700,o),
(52,630,o),
(52,560,qs),
(52,0,l)
);
}
);
width = 560;
},
{
layerId = m004;
shapes = (
{
closed = 1;
nodes = (
(184,0,l),
(184,534,ls),
(184,574,o),
(222,612,o),
(262,612,qs),
(412,612,ls),
(472,612,o),
(530,670,o),
(530,730,qs),
(530,800,l),
(442,800,l),
(442,754,ls),
(442,726,o),
(416,700,o),
(388,700,qs),
(228,700,ls),
(156,700,o),
(84,628,o),
(84,556,qs),
(84,0,l)
);
}
);
width = 560;
},
{
layerId = m007;
shapes = (
{
closed = 1;
nodes = (
(140,0,l),
(140,544,ls),
(140,604,o),
(196,660,o),
(256,660,qs),
(418,660,ls),
(468,660,o),
(524,716,o),
(524,766,qs),
(524,800,l),
(484,800,l),
(484,766,ls),
(484,734,o),
(450,700,o),
(418,700,qs),
(256,700,ls),
(178,700,o),
(100,622,o),
(100,544,qs),
(102,0,l)
);
}
);
width = 560;
}
);
metricLeft = N;
metricRight = T;
},
{
glyphname = "Gedescender-cy";
kernLeft = I;
kernRight = T;
lastChange = "2025-11-17 08:19:13 +0000";
layers = (
{
layerId = m003;
shapes = (
{
closed = 1;
nodes = (
(328,-150,l),
(328,160,l),
(65,160,l),
(65,0,l),
(158,0,l),
(158,-150,l)
);
},
{
ref = "Ge-cy";
}
);
width = 560;
},
{
layerId = m004;
shapes = (
{
closed = 1;
nodes = (
(284,-150,l),
(284,90,l),
(90,90,l),
(90,0,l),
(190,0,l),
(190,-150,l)
);
},
{
ref = "Ge-cy";
}
);
width = 560;
},
{
layerId = m007;
shapes = (
{
closed = 1;
nodes = (
(242,-150,l),
(242,40,l),
(104,40,l),
(104,0,l),
(202,0,l),
(202,-150,l)
);
},
{
ref = "Ge-cy";
}
);
width = 560;
}
);
metricLeft = N;
metricRight = T;
unicode = 1270;
},
{
glyphname = "Gedescender-cy.ss05";
kernLeft = I;
kernRight = T;
lastChange = "2025-11-17 08:19:10 +0000";
layers = (
{
layerId = m003;
shapes = (
{
closed = 1;
nodes = (
(325,-150,l),
(325,160,l),
(61,160,l),
(61,0,l),
(155,0,l),
(155,-150,l)
);
},
{
ref = "Ge-cy.ss05";
}
);
width = 560;
},
{
layerId = m004;
shapes = (
{
closed = 1;
nodes = (
(278,-150,l),
(278,90,l),
(84,90,l),
(84,0,l),
(184,0,l),
(184,-150,l)
);
},
{
ref = "Ge-cy.ss05";
}
);
width = 560;
},
{
layerId = m007;
shapes = (
{
closed = 1;
nodes = (
(240,-150,l),
(240,40,l),
(108,40,l),
(108,0,l),
(200,0,l),
(200,-150,l)
);
},
{
ref = "Ge-cy.ss05";
}
);
width = 560;
}
);
metricLeft = N;
metricRight = T;
},
